STARTFONT 2.1
COMMENT
COMMENT Converted from OpenType font "BeVietnam-Bold.ttf" by "otf2bdf 3.0".
COMMENT
FONT -FreeType-Be Vietnam-Bold-R-Normal--55-400-100-100-P-275-ISO10646-1
SIZE 40 100 100
FONTBOUNDINGBOX 88 78 -26 -14
STARTPROPERTIES 19
FOUNDRY "FreeType"
FAMILY_NAME "Be Vietnam"
WEIGHT_NAME "Bold"
SLANT "R"
SETWIDTH_NAME "Normal"
ADD_STYLE_NAME ""
PIXEL_SIZE 55
POINT_SIZE 400
RESOLUTION_X 100
RESOLUTION_Y 100
SPACING "P"
AVERAGE_WIDTH 275
CHARSET_REGISTRY "ISO10646"
CHARSET_ENCODING "1"
FONT_ASCENT 66
FONT_DESCENT 14
COPYRIGHT "Copyright 2019 The Bevietnam Project Authors (https://github.com/bettergui/beVietnam)"
_OTF_FONTFILE "BeVietnam-Bold.ttf"
_OTF_PSNAME "BeVietnam-Bold"
ENDPROPERTIES
CHARS 445
STARTCHAR 000D
ENCODING 13
SWIDTH 594 0
DWIDTH 33 0
BBX 0 0 0 0
BITMAP
ENDCHAR
STARTCHAR 0020
ENCODING 32
SWIDTH 216 0
DWIDTH 12 0
BBX 0 0 0 0
BITMAP
ENDCHAR
STARTCHAR 0021
ENCODING 33
SWIDTH 270 0
DWIDTH 15 0
BBX 8 42 4 -1
BITMAP
FF
FF
FF
FF
FF
FF
FF
FE
FE
FE
FE
FE
FE
FE
FE
FE
FE
FE
FE
FE
7E
7E
7E
7E
7E
7E
7E
7C
00
00
00
00
00
38
7E
FE
FF
FF
FF
FE
7E
18
ENDCHAR
STARTCHAR 0022
ENCODING 34
SWIDTH 522 0
DWIDTH 29 0
BBX 23 17 3 27
BITMAP
000008
0E0038
1E0078
3C00E0
7801C0
7003C0
F00380
F00380
F003C0
FC03F0
FF83FC
FF83FE
FF83FE
FF83FE
7F83FE
7F01FC
3E00F8
ENDCHAR
STARTCHAR 0023
ENCODING 35
SWIDTH 882 0
DWIDTH 49 0
BBX 41 39 4 0
BITMAP
0001F807E000
0003F807E000
0003F807E000
0003F00FE000
0003F00FE000
0003F00FC000
0007F00FC000
0007F00FC000
0007E01FC000
0007E01FC000
07FFFFFFFF80
0FFFFFFFFF80
0FFFFFFFFF80
0FFFFFFFFF80
0FFFFFFFFF00
1FFFFFFFFF00
001FC03F0000
001F807F0000
001F807F0000
001F807E0000
003F807E0000
003F807E0000
003F00FE0000
003F00FE0000
003F00FC0000
7FFFFFFFFC00
7FFFFFFFFC00
7FFFFFFFF800
7FFFFFFFF800
FFFFFFFFF800
00FE01F80000
00FC03F80000
00FC03F80000
00FC03F00000
01FC03F00000
01FC03F00000
01F807F00000
01F807F00000
01F807E00000
ENDCHAR
STARTCHAR 0024
ENCODING 36
SWIDTH 576 0
DWIDTH 32 0
BBX 29 48 2 -5
BITMAP
00070000
00070000
00070000
00070000
00078000
00FFF800
03FFFE00
07FFFF80
0FFFFFC0
1FFFFFC0
3FFFFFE0
3FE73FF0
7FC70FF0
7F870FF0
7F8707F8
7F8707F8
7F8707F8
7F870000
7FC70000
3FF70000
3FFF0000
1FFFF000
0FFFFE00
07FFFF80
01FFFFC0
007FFFE0
000FFFF0
00077FF8
00071FF8
000707F8
FF0703F8
FF0703F8
FF8703F8
7F8703F8
7FC707F8
7FE70FF8
3FFF3FF0
3FFFFFF0
1FFFFFE0
0FFFFFC0
07FFFF80
01FFFF00
007FFC00
00070000
00070000
00070000
00070000
00070000
ENDCHAR
STARTCHAR 0025
ENCODING 37
SWIDTH 792 0
DWIDTH 44 0
BBX 40 40 2 -1
BITMAP
0FF0001F80
3FF8003F80
3FFC003F00
7FFC007F00
7C7E007E00
FC3E00FE00
FC3E00FC00
F83E01FC00
F83E01F800
FC3E03F800
7C7E03F000
7FFC07F000
3FFC07E000
3FF80FC000
1FF00FC000
03801F8000
00001F8000
00003F0000
00007F0000
00007E0000
0000FE0000
0000FC0000
0001FC0000
0001F80000
0003F807F8
0003F01FFC
0007F01FFE
0007E03FFE
000FE03E1F
000FC07E1F
001FC07E1F
001F807E1F
003F807E1F
003F007E1F
007F003E1F
007E003FFE
00FE001FFE
00FC001FFC
01FC0007F8
00000000C0
ENDCHAR
STARTCHAR 0026
ENCODING 38
SWIDTH 666 0
DWIDTH 37 0
BBX 35 40 2 0
BITMAP
0003800000
003FFC0000
007FFF0000
01FFFF8000
03FFFFC000
03FFFFE000
07FFFFF000
07FC1FF000
07F80FF000
07F00FF000
0FF007F000
07F007F800
07F0000000
07F8000000
07F8000000
03FC000000
03FE000000
01FF000000
00FF80FE00
007FC1FE00
03FFC1FC00
07FFE3F800
1FFFF3F800
3FFFFFF000
3FC7FFF000
7F83FFE000
7F01FFC000
FF00FFC000
FE007F8000
FF007FC000
FF007FE000
FF007FF000
FF80FFF800
7FC3FFFC00
7FFFFFFE00
7FFFF9FE00
3FFFF0FF00
1FFFE0FF80
0FFFC07FC0
03FF003FE0
ENDCHAR
STARTCHAR 0027
ENCODING 39
SWIDTH 288 0
DWIDTH 16 0
BBX 9 16 4 29
BITMAP
7F00
7F00
FF80
FF80
FF80
FF80
7F80
0780
0380
0380
0380
0700
0F00
1E00
3C00
3000
ENDCHAR
STARTCHAR 0028
ENCODING 40
SWIDTH 486 0
DWIDTH 27 0
BBX 16 57 6 -12
BITMAP
0002
000F
001F
003E
007C
00F8
01F8
03F0
07F0
07E0
0FE0
0FC0
1FC0
1FC0
3F80
3F80
3F80
7F80
7F00
7F00
7F00
FF00
FF00
FE00
FE00
FE00
FE00
FE00
FE00
FE00
FE00
FE00
FE00
FE00
FF00
FF00
7F00
7F00
7F00
7F00
3F80
3F80
3F80
1FC0
1FC0
0FC0
0FE0
07E0
07F0
03F0
01F8
00F8
00FC
007E
001F
000F
0006
ENDCHAR
STARTCHAR 0029
ENCODING 41
SWIDTH 540 0
DWIDTH 30 0
BBX 16 57 9 -12
BITMAP
4000
F000
F800
7C00
7E00
3F00
1F80
1F80
0FC0
0FE0
07E0
07F0
07F0
03F8
03F8
03F8
01FC
01FC
01FC
01FE
00FE
00FE
00FE
00FE
00FE
00FF
00FF
00FF
00FF
00FF
00FF
00FF
00FF
00FE
00FE
00FE
00FE
01FE
01FC
01FC
01FC
01FC
03F8
03F8
03F0
07F0
07E0
0FE0
0FC0
1F80
1F80
3F00
3E00
7C00
F800
F000
C000
ENDCHAR
STARTCHAR 002A
ENCODING 42
SWIDTH 504 0
DWIDTH 28 0
BBX 19 20 5 22
BITMAP
01E000
01E000
01E000
61E080
71E1C0
FDE7E0
FFEFE0
3FFF80
1FFE00
07FC00
0FFE00
3FFF00
7FFFC0
FDEFE0
F9E3C0
61E0C0
01E000
01E000
01E000
01E000
ENDCHAR
STARTCHAR 002B
ENCODING 43
SWIDTH 576 0
DWIDTH 32 0
BBX 23 23 5 6
BITMAP
00FE00
00FE00
00FE00
00FE00
00FE00
00FE00
00FE00
00FE00
FFFFFE
FFFFFE
FFFFFE
FFFFFE
FFFFFE
FFFFFE
FFFFFE
00FE00
00FE00
00FE00
00FE00
00FE00
00FE00
00FE00
00FE00
ENDCHAR
STARTCHAR 002C
ENCODING 44
SWIDTH 306 0
DWIDTH 17 0
BBX 10 17 4 -10
BITMAP
3F00
7F80
FF80
FF80
FFC0
FFC0
7FC0
1FC0
03C0
0380
0380
0380
0780
0F00
3E00
3C00
3000
ENDCHAR
STARTCHAR 002D
ENCODING 45
SWIDTH 576 0
DWIDTH 32 0
BBX 21 6 6 14
BITMAP
FFFFF8
FFFFF8
FFFFF8
FFFFF8
FFFFF8
FFFFF8
ENDCHAR
STARTCHAR 002E
ENCODING 46
SWIDTH 306 0
DWIDTH 17 0
BBX 8 8 5 0
BITMAP
7C
FE
FF
FF
FF
FF
FF
7E
ENDCHAR
STARTCHAR 002F
ENCODING 47
SWIDTH 522 0
DWIDTH 29 0
BBX 26 55 2 -11
BITMAP
00001FC0
00001FC0
00003F80
00003F80
00003F80
00007F00
00007F00
0000FF00
0000FE00
0000FE00
0001FE00
0001FC00
0001FC00
0003FC00
0003F800
0003F800
0007F800
0007F000
0007F000
000FE000
000FE000
001FE000
001FC000
001FC000
003FC000
003F8000
003F8000
007F8000
007F0000
007F0000
00FF0000
00FE0000
00FE0000
01FC0000
01FC0000
01FC0000
03F80000
03F80000
07F80000
07F00000
07F00000
0FF00000
0FE00000
0FE00000
1FE00000
1FC00000
1FC00000
3FC00000
3F800000
3F800000
7F000000
7F000000
FF000000
FE000000
FE000000
ENDCHAR
STARTCHAR 0030
ENCODING 48
SWIDTH 612 0
DWIDTH 34 0
BBX 30 41 2 -1
BITMAP
00078000
007FFC00
01FFFF00
07FFFF80
0FFFFFC0
0FFFFFE0
1FFFFFE0
3FF83FF0
3FE01FF0
3FE00FF8
7FC00FF8
7FC007F8
7F8007FC
7F8007FC
FF8007FC
FF8007FC
FF8003FC
FF8003FC
FF8003FC
FF8003FC
FF8003FC
FF8003FC
FF8003FC
FF8003FC
FF8003FC
FF8007FC
FF8007FC
7F8007FC
7F8007FC
7FC007F8
7FC00FF8
3FC00FF8
3FE01FF0
3FF83FF0
1FFFFFE0
0FFFFFE0
0FFFFFC0
07FFFF80
01FFFF00
00FFFC00
000FC000
ENDCHAR
STARTCHAR 0031
ENCODING 49
SWIDTH 522 0
DWIDTH 29 0
BBX 23 39 4 0
BITMAP
00FF00
01FF00
03FF00
07FF00
0FFF00
3FFF00
7FFF00
FFFF00
FFFF00
FF7F00
FE7F00
FC7F00
F87F00
F07F00
E07F00
C07F00
007F00
007F00
007F00
007F00
007F00
007F00
007F00
007F00
007F00
007F00
007F00
007F00
007F00
007F00
007F00
007F00
FFFFFE
FFFFFE
FFFFFE
FFFFFE
FFFFFE
FFFFFE
FFFFFE
ENDCHAR
STARTCHAR 0032
ENCODING 50
SWIDTH 594 0
DWIDTH 33 0
BBX 27 40 3 0
BITMAP
001F8000
01FFF000
03FFFC00
0FFFFE00
1FFFFF00
3FFFFF80
3FFFFF80
7FC07FC0
7F803FC0
7F801FC0
FF001FE0
FF001FE0
FF001FE0
FF001FE0
00001FE0
00001FC0
00003FC0
00003FC0
00007F80
0000FF80
0001FF00
0003FE00
0007FC00
000FF800
001FF000
003FE000
00FFC000
01FF8000
03FF0000
07FE0000
0FF80000
3FF00000
7FE00000
FFFFFFE0
FFFFFFE0
FFFFFFE0
FFFFFFE0
FFFFFFE0
FFFFFFE0
FFFFFFE0
ENDCHAR
STARTCHAR 0033
ENCODING 51
SWIDTH 594 0
DWIDTH 33 0
BBX 28 41 2 -1
BITMAP
001FC000
00FFFC00
03FFFE00
07FFFF80
0FFFFFC0
1FFFFFC0
3FFDFFE0
3FE03FE0
3FC01FF0
7F800FF0
7F800FF0
00000FF0
00000FF0
00000FF0
00000FF0
00001FE0
0000FFC0
001FFFC0
001FFF00
001FFE00
001FFE00
001FFF80
001FFFC0
00003FE0
00000FF0
00000FF0
000007F0
000007F0
000007F0
FF0007F0
FF8007F0
7F800FF0
7FC01FF0
3FF8FFF0
3FFFFFE0
1FFFFFC0
0FFFFFC0
07FFFF80
03FFFE00
00FFF800
00070000
ENDCHAR
STARTCHAR 0034
ENCODING 52
SWIDTH 612 0
DWIDTH 34 0
BBX 30 39 2 0
BITMAP
0001FF80
0003FF80
0003FF80
0007FF80
000FFF80
000FFF80
001FFF80
003FFF80
003FFF80
007FFF80
00FF7F80
00FF7F80
01FE7F80
01FC7F80
03FC7F80
07F87F80
07F07F80
0FF07F80
1FE07F80
1FE07F80
3FC07F80
3F807F80
7F807F80
FF007F80
FFFFFFFC
FFFFFFFC
FFFFFFFC
FFFFFFFC
FFFFFFFC
FFFFFFFC
00007F80
00007F80
00007F80
00007F80
00007F80
00007F80
00007F80
00007F80
00007F80
ENDCHAR
STARTCHAR 0035
ENCODING 53
SWIDTH 594 0
DWIDTH 33 0
BBX 28 39 3 0
BITMAP
7FFFFF80
7FFFFF80
7FFFFF80
7FFFFF80
7FFFFF80
7FFFFF80
7FFFFF80
7F000000
7F000000
7F000000
7E000000
7E000000
7E000000
7E0FF000
7E3FFC00
7EFFFF00
7EFFFF80
FFFFFF80
FFFBFFC0
FFC07FE0
FF803FE0
FF001FE0
00000FF0
00000FF0
00000FF0
00000FF0
00000FF0
00000FF0
FF000FE0
FF001FE0
FF803FE0
7FC07FE0
7FFBFFC0
3FFFFFC0
1FFFFF80
0FFFFF00
07FFFE00
03FFF800
00FFE000
ENDCHAR
STARTCHAR 0036
ENCODING 54
SWIDTH 576 0
DWIDTH 32 0
BBX 29 40 2 -1
BITMAP
000FF000
000FE000
001FC000
003FC000
003F8000
007F0000
00FF0000
00FE0000
01FC0000
03FC0000
03F80000
07F00000
07F00000
0FE00000
1FCFFC00
1FDFFF00
3FBFFF80
3FFFFFC0
7FFFFFC0
7FF07FE0
7FC01FE0
7F800FF0
FF800FF0
FF0007F0
FF0007F0
FF0007F8
FF0007F8
FF0007F8
7F0007F0
7F000FF0
7F800FF0
7FC01FF0
3FE03FE0
3FFFFFE0
1FFFFFC0
0FFFFF80
07FFFF00
01FFFE00
007FF000
00020000
ENDCHAR
STARTCHAR 0037
ENCODING 55
SWIDTH 522 0
DWIDTH 29 0
BBX 27 39 1 0
BITMAP
FFFFFFE0
FFFFFFE0
FFFFFFE0
FFFFFFE0
FFFFFFE0
FFFFFFE0
FFFFFFE0
00001FE0
00001FC0
00003FC0
00003F80
00007F80
00007F80
0000FF00
0000FF00
0001FE00
0001FE00
0003FC00
0003FC00
0007F800
0007F800
000FF000
000FF000
000FF000
001FE000
001FE000
003FC000
003FC000
007F8000
007F8000
00FF0000
00FF0000
01FE0000
01FE0000
03FE0000
03FC0000
07FC0000
07F80000
0FF80000
ENDCHAR
STARTCHAR 0038
ENCODING 56
SWIDTH 594 0
DWIDTH 33 0
BBX 29 41 3 -1
BITMAP
00020000
00FFF800
03FFFE00
0FFFFF00
1FFFFF80
1FFFFFC0
3FFFFFC0
3FE03FE0
7F801FE0
7F801FE0
7F000FE0
7F000FE0
7F000FE0
7F000FE0
7F800FE0
3F801FE0
3FC03FC0
1FF9FF80
0FFFFF00
07FFFE00
07FFFE00
0FFFFF80
3FF0FFC0
3FC01FE0
7F801FE0
FF000FF0
FF0007F0
FF0007F0
FF0007F8
FF0007F8
FF000FF8
FF000FF0
FF801FF0
7FC03FF0
7FFFFFE0
3FFFFFE0
3FFFFFC0
1FFFFF80
07FFFF00
01FFFC00
001FC000
ENDCHAR
STARTCHAR 0039
ENCODING 57
SWIDTH 576 0
DWIDTH 32 0
BBX 29 40 2 0
BITMAP
00070000
00FFF000
03FFFC00
07FFFF00
0FFFFF80
1FFFFFC0
3FFFFFE0
3FE03FE0
7FC01FF0
7F800FF0
7F0007F0
FF0007F0
FF0007F0
FF0007F8
FF0007F8
FF0007F8
7F0007F0
7F800FF0
7F800FF0
7FC01FF0
3FF07FF0
1FFFFFE0
1FFFFFE0
0FFFEFC0
03FFDFC0
01FF3F80
00003F80
00007F00
0000FF00
0001FE00
0001FC00
0003FC00
0007F800
0007F000
000FF000
001FE000
003FE000
003FC000
007F8000
00FF8000
ENDCHAR
STARTCHAR 003A
ENCODING 58
SWIDTH 324 0
DWIDTH 18 0
BBX 9 30 4 -1
BITMAP
3E00
7F00
7F80
FF80
FF80
7F80
7F00
3E00
0000
0000
0000
0000
0000
0000
0000
0000
0000
0000
0000
0000
0000
3E00
7F00
7F80
FF80
FF80
7F80
7F00
3F00
0800
ENDCHAR
STARTCHAR 003B
ENCODING 59
SWIDTH 342 0
DWIDTH 19 0
BBX 10 39 5 -10
BITMAP
3E00
7F00
7F80
7F80
7F80
7F80
7F80
3F00
0000
0000
0000
0000
0000
0000
0000
0000
0000
0000
0000
0000
0000
0000
3F00
7F80
7FC0
FFC0
FFC0
7FC0
7FC0
0FC0
03C0
03C0
03C0
0380
0380
0700
1E00
3C00
3000
ENDCHAR
STARTCHAR 003C
ENCODING 60
SWIDTH 576 0
DWIDTH 32 0
BBX 21 26 6 5
BITMAP
000038
0000F8
0001F8
0007F8
001FF8
007FF8
01FFF0
07FFC0
1FFF00
7FFC00
FFF000
FFC000
FF0000
FF0000
FFC000
FFF000
7FFC00
1FFF00
07FFC0
01FFF8
007FF8
001FF8
0007F8
0001F8
000078
000038
ENDCHAR
STARTCHAR 003D
ENCODING 61
SWIDTH 702 0
DWIDTH 39 0
BBX 26 18 7 8
BITMAP
FFFFFFC0
FFFFFFC0
FFFFFFC0
FFFFFFC0
FFFFFFC0
FFFFFFC0
00000000
00000000
00000000
00000000
00000000
00000000
FFFFFFC0
FFFFFFC0
FFFFFFC0
FFFFFFC0
FFFFFFC0
FFFFFFC0
ENDCHAR
STARTCHAR 003E
ENCODING 62
SWIDTH 576 0
DWIDTH 32 0
BBX 21 26 6 5
BITMAP
C00000
F00000
FC0000
FF0000
FF8000
FFE000
FFF800
3FFE00
0FFF80
03FFE0
00FFF8
003FF8
000FF8
000FF8
003FF8
00FFF8
03FFE0
0FFF80
3FFE00
FFF800
FFE000
FF8000
FE0000
F80000
F00000
C00000
ENDCHAR
STARTCHAR 003F
ENCODING 63
SWIDTH 576 0
DWIDTH 32 0
BBX 27 40 3 -1
BITMAP
000E0000
01FFF000
07FFFC00
0FFFFE00
1FFFFF00
3FFFFF80
3FFFFF80
7FF3FFC0
7FC07FC0
FF803FC0
FF001FE0
FF001FE0
FF001FE0
FF001FE0
00003FC0
00003FC0
00007FC0
0000FF80
0001FF00
0003FE00
0007FE00
000FF800
001FF000
001FE000
003FC000
007FC000
007F8000
007F8000
007F8000
00000000
00000000
00000000
001C0000
003F0000
007F8000
007F8000
007F8000
007F8000
007F0000
003F0000
ENDCHAR
STARTCHAR 0040
ENCODING 64
SWIDTH 1008 0
DWIDTH 56 0
BBX 48 49 4 -9
BITMAP
000000800000
00007FFF0000
0003FFFFE000
000FFFFFF800
003FFFFFFC00
007FFFFFFF00
01FFE007FF80
03FF00007FC0
07FC00001FE0
07F000000FF0
0FE0000007F8
1FC0000003F8
1F80000001FC
3F801F0000FC
3F007FCFC07E
7E01FFEFC07E
7E01FFFFC03E
7E03FFFFC03F
7C07F87FC03F
FC07F01FC03F
FC07E01FC01F
FC0FE00FC01F
FC0FE00FC01F
FC0FE00FC01F
FC0FC00FC01F
FC0FC00FC01F
FC0FE00FC01F
FC0FE00FC03F
FC07E00FC03F
FC07F01FE03E
FC07F83FE07E
7E03FFFFF0FC
7E03FFFBFFF8
7E01FFF1FFF0
3F00FFE0FFE0
3F003FC03F80
3F8000000000
1FC000000000
1FE000000000
0FF000000000
07F800000000
03FE00000000
01FFC0000000
00FFFF000000
007FFFFFF800
001FFFFFF800
000FFFFFF800
0001FFFFF800
00003FFFF800
ENDCHAR
STARTCHAR 0041
ENCODING 65
SWIDTH 666 0
DWIDTH 37 0
BBX 35 39 1 0
BITMAP
0003FC0000
0003FC0000
0007FC0000
0007FE0000
0007FE0000
000FFE0000
000FFF0000
000FFF0000
001FFF8000
001FFF8000
001FBF8000
003F9FC000
003F9FC000
007F1FC000
007F0FE000
007F0FE000
00FE0FE000
00FE07F000
00FE07F000
01FC07F000
01FC03F800
01FC03F800
03F803FC00
03FFFFFC00
07FFFFFC00
07FFFFFE00
07FFFFFE00
0FFFFFFE00
0FFFFFFF00
0FE0007F00
1FE0007F00
1FE0007F80
1FC0003F80
3FC0003F80
3FC0003FC0
3F80001FC0
7F80001FE0
7F80001FE0
FF00001FE0
ENDCHAR
STARTCHAR 0042
ENCODING 66
SWIDTH 612 0
DWIDTH 34 0
BBX 30 39 3 0
BITMAP
FFFFF000
FFFFFE00
FFFFFF00
FFFFFF80
FFFFFFC0
FFFFFFE0
FF00FFE0
FF001FE0
FF000FE0
FF000FF0
FF000FF0
FF000FF0
FF000FE0
FF000FE0
FF001FE0
FF003FC0
FFFFFF80
FFFFFE00
FFFFFC00
FFFFFF80
FFFFFFC0
FFFFFFE0
FF001FF0
FF0007F8
FF0003F8
FF0003F8
FF0003FC
FF0003FC
FF0003FC
FF0003FC
FF0003F8
FF0007F8
FF001FF8
FFFFFFF0
FFFFFFF0
FFFFFFE0
FFFFFFC0
FFFFFF00
FFFFFC00
ENDCHAR
STARTCHAR 0043
ENCODING 67
SWIDTH 684 0
DWIDTH 38 0
BBX 35 40 2 0
BITMAP
0001F00000
001FFF8000
007FFFE000
00FFFFF000
01FFFFF800
03FFFFFC00
07FFFFFE00
0FFE07FF00
1FF801FF80
1FF0007F80
3FE0007FC0
3FC0003FC0
3FC0001FC0
7F80001FE0
7F80000000
7F80000000
7F80000000
FF80000000
FF00000000
FF00000000
FF00000000
FF00000000
FF00000000
FF80000000
7F80000000
7F80000000
7F80000000
7FC0001FC0
3FC0003FC0
3FC0003FC0
3FE0007F80
1FF000FF80
1FF801FF00
0FFF0FFF00
07FFFFFE00
03FFFFFC00
01FFFFF800
00FFFFF000
003FFFC000
000FFF0000
ENDCHAR
STARTCHAR 0044
ENCODING 68
SWIDTH 666 0
DWIDTH 37 0
BBX 33 39 3 0
BITMAP
FFFFE00000
FFFFFE0000
FFFFFF8000
FFFFFFC000
FFFFFFE000
FFFFFFF000
FFFFFFF800
FF003FFC00
FF000FFC00
FF0007FE00
FF0003FE00
FF0001FF00
FF0001FF00
FF0000FF00
FF0000FF00
FF0000FF00
FF0000FF80
FF0000FF80
FF0000FF80
FF0000FF80
FF0000FF80
FF0000FF80
FF0000FF80
FF0000FF00
FF0000FF00
FF0000FF00
FF0001FF00
FF0001FF00
FF0003FE00
FF0007FE00
FF000FFC00
FF003FFC00
FFFFFFF800
FFFFFFF000
FFFFFFE000
FFFFFFC000
FFFFFF8000
FFFFFE0000
FFFFF00000
ENDCHAR
STARTCHAR 0045
ENCODING 69
SWIDTH 558 0
DWIDTH 31 0
BBX 26 39 3 0
BITMAP
FFFFFFC0
FFFFFFC0
FFFFFFC0
FFFFFFC0
FFFFFFC0
FFFFFFC0
FFFFFFC0
FF000000
FF000000
FF000000
FF000000
FF000000
FF000000
FF000000
FF000000
FF000000
FFFFFE00
FFFFFE00
FFFFFE00
FFFFFE00
FFFFFE00
FFFFFE00
FF000000
FF000000
FF000000
FF000000
FF000000
FF000000
FF000000
FF000000
FF000000
FF000000
FFFFFFC0
FFFFFFC0
FFFFFFC0
FFFFFFC0
FFFFFFC0
FFFFFFC0
FFFFFFC0
ENDCHAR
STARTCHAR 0046
ENCODING 70
SWIDTH 504 0
DWIDTH 28 0
BBX 25 39 3 0
BITMAP
FFFFFF80
FFFFFF80
FFFFFF80
FFFFFF80
FFFFFF80
FFFFFF80
FFFFFF80
FF000000
FF000000
FF000000
FF000000
FF000000
FF000000
FF000000
FF000000
FF000000
FFFFFE00
FFFFFE00
FFFFFE00
FFFFFE00
FFFFFE00
FFFFFE00
FF000000
FF000000
FF000000
FF000000
FF000000
FF000000
FF000000
FF000000
FF000000
FF000000
FF000000
FF000000
FF000000
FF000000
FF000000
FF000000
FF000000
ENDCHAR
STARTCHAR 0047
ENCODING 71
SWIDTH 702 0
DWIDTH 39 0
BBX 35 40 2 0
BITMAP
0001F80000
001FFF8000
007FFFE000
00FFFFF000
01FFFFF800
03FFFFFC00
07FFFFFE00
0FFE07FF00
1FF801FF80
1FF000FF80
3FE0007FC0
3FC0003FC0
3FC0003FC0
7F80000000
7F80000000
7F80000000
7F80000000
7F00000000
FF00000000
FF001FFFE0
FF001FFFE0
FF001FFFE0
FF001FFFE0
7F001FFFE0
7F001FFFE0
7F80001FE0
7F80001FE0
7F80001FE0
3FC0001FE0
3FC0003FE0
3FE0003FE0
1FF0007FE0
1FF800FFE0
0FFC03FFE0
07FFFFFFE0
03FFFFF7E0
01FFFFE7E0
00FFFFC7E0
007FFF87E0
000FFE07E0
ENDCHAR
STARTCHAR 0048
ENCODING 72
SWIDTH 666 0
DWIDTH 37 0
BBX 32 39 3 0
BITMAP
FF0000FF
FF0000FF
FF0000FF
FF0000FF
FF0000FF
FF0000FF
FF0000FF
FF0000FF
FF0000FF
FF0000FF
FF0000FF
FF0000FF
FF0000FF
FF0000FF
FF0000FF
FF0000FF
FFFFFFFF
FFFFFFFF
FFFFFFFF
FFFFFFFF
FFFFFFFF
FFFFFFFF
FFFFFFFF
FF0000FF
FF0000FF
FF0000FF
FF0000FF
FF0000FF
FF0000FF
FF0000FF
FF0000FF
FF0000FF
FF0000FF
FF0000FF
FF0000FF
FF0000FF
FF0000FF
FF0000FF
FF0000FF
ENDCHAR
STARTCHAR 0049
ENCODING 73
SWIDTH 252 0
DWIDTH 14 0
BBX 7 39 4 0
BITMAP
FE
FE
FE
FE
FE
FE
FE
FE
FE
FE
FE
FE
FE
FE
FE
FE
FE
FE
FE
FE
FE
FE
FE
FE
FE
FE
FE
FE
FE
FE
FE
FE
FE
FE
FE
FE
FE
FE
FE
ENDCHAR
STARTCHAR 004A
ENCODING 74
SWIDTH 360 0
DWIDTH 20 0
BBX 15 39 2 0
BITMAP
01FE
01FE
01FE
01FE
01FE
01FE
01FE
01FE
01FE
01FE
01FE
01FE
01FE
01FE
01FE
01FE
01FE
01FE
01FE
01FE
01FE
01FE
01FE
01FE
01FE
01FE
01FE
01FE
01FE
01FE
01FE
01FE
03FC
FFFC
FFFC
FFF8
FFF8
FFF0
FFC0
ENDCHAR
STARTCHAR 004B
ENCODING 75
SWIDTH 648 0
DWIDTH 36 0
BBX 30 39 3 0
BITMAP
FF0007FC
FF000FF8
FF000FF0
FF001FF0
FF003FE0
FF007FC0
FF00FF80
FF01FF00
FF03FE00
FF03FC00
FF07FC00
FF0FF800
FF1FF000
FF3FE000
FF7FC000
FFFF8000
FFFF0000
FFFF8000
FFFF8000
FFFFC000
FFFFE000
FFFFE000
FFEFF000
FFCFF800
FF87F800
FF03FC00
FF03FE00
FF01FE00
FF00FF00
FF00FF80
FF007F80
FF007FC0
FF003FE0
FF001FE0
FF001FF0
FF000FF8
FF0007F8
FF0007FC
FF0003FC
ENDCHAR
STARTCHAR 004C
ENCODING 76
SWIDTH 522 0
DWIDTH 29 0
BBX 25 39 3 0
BITMAP
FF000000
FF000000
FF000000
FF000000
FF000000
FF000000
FF000000
FF000000
FF000000
FF000000
FF000000
FF000000
FF000000
FF000000
FF000000
FF000000
FF000000
FF000000
FF000000
FF000000
FF000000
FF000000
FF000000
FF000000
FF000000
FF000000
FF000000
FF000000
FF000000
FF000000
FF000000
FF000000
FFFFFF80
FFFFFF80
FFFFFF80
FFFFFF80
FFFFFF80
FFFFFF80
FFFFFF80
ENDCHAR
STARTCHAR 004D
ENCODING 77
SWIDTH 828 0
DWIDTH 46 0
BBX 40 39 3 0
BITMAP
FFF00007FF
FFF0000FFF
FFF0000FFF
FFF8000FFF
FFF8001FFF
FFFC001FFF
FFFC001FFF
FFFC003FFF
FFFE003FFF
FFFE003FFF
FFFE007FFF
FFFF007F7F
FFFF007F7F
FF7F00FF7F
FF7F80FE7F
FF3F81FE7F
FF3FC1FE7F
FF3FC1FC7F
FF1FC3FC7F
FF1FE3FC7F
FF1FE3F87F
FF0FE7F87F
FF0FF7F87F
FF0FF7F07F
FF07FFF07F
FF07FFF07F
FF07FFE07F
FF03FFE07F
FF03FFE07F
FF03FFC07F
FF01FFC07F
FF01FF807F
FF00FF807F
FF00FF807F
FF00FF007F
FF007F007F
FF007F007F
FF007E007F
FF003E007F
ENDCHAR
STARTCHAR 004E
ENCODING 78
SWIDTH 684 0
DWIDTH 38 0
BBX 33 39 3 0
BITMAP
FF80007F80
FFC0007F80
FFE0007F80
FFE0007F80
FFF0007F80
FFF0007F80
FFF8007F80
FFF8007F80
FFFC007F80
FFFE007F80
FFFE007F80
FFFF007F80
FFFF007F80
FFFF807F80
FF7FC07F80
FF3FC07F80
FF3FE07F80
FF1FE07F80
FF1FF07F80
FF0FF87F80
FF07F87F80
FF07FC7F80
FF03FC7F80
FF03FE7F80
FF01FE7F80
FF00FF7F80
FF00FFFF80
FF007FFF80
FF007FFF80
FF003FFF80
FF001FFF80
FF001FFF80
FF000FFF80
FF000FFF80
FF0007FF80
FF0003FF80
FF0003FF80
FF0001FF80
FF0001FF80
ENDCHAR
STARTCHAR 004F
ENCODING 79
SWIDTH 720 0
DWIDTH 40 0
BBX 36 40 2 0
BITMAP
0001F80000
001FFF8000
007FFFE000
00FFFFF000
01FFFFFC00
03FFFFFE00
07FFFFFF00
0FFF0FFF00
1FFC01FF80
1FF000FF80
3FE0007FC0
3FE0007FC0
7FC0003FE0
7FC0003FE0
7F80001FE0
7F80001FE0
7F80001FF0
FF80001FF0
FF80000FF0
FF00000FF0
FF00000FF0
FF00000FF0
FF80000FF0
FF80001FF0
7F80001FF0
7F80001FE0
7F80001FE0
7FC0003FE0
7FC0003FE0
3FE0007FC0
3FE0007FC0
1FF000FF80
1FFC03FF80
0FFFDFFF00
07FFFFFE00
03FFFFFE00
01FFFFFC00
00FFFFF000
007FFFE000
000FFF0000
ENDCHAR
STARTCHAR 0050
ENCODING 80
SWIDTH 576 0
DWIDTH 32 0
BBX 29 39 3 0
BITMAP
FFFFC000
FFFFF800
FFFFFE00
FFFFFF00
FFFFFF80
FFFFFFC0
FFFFFFE0
FF007FE0
FF001FF0
FF000FF0
FF0007F0
FF0007F0
FF0007F8
FF0007F8
FF0007F8
FF0007F0
FF0007F0
FF000FF0
FF001FF0
FF007FE0
FFFFFFE0
FFFFFFC0
FFFFFF80
FFFFFF00
FFFFFE00
FFFFF800
FFFF0000
FF000000
FF000000
FF000000
FF000000
FF000000
FF000000
FF000000
FF000000
FF000000
FF000000
FF000000
FF000000
ENDCHAR
STARTCHAR 0051
ENCODING 81
SWIDTH 720 0
DWIDTH 40 0
BBX 36 42 2 -2
BITMAP
0001F80000
001FFF8000
007FFFE000
00FFFFF000
01FFFFFC00
03FFFFFE00
07FFFFFF00
0FFF0FFF00
1FFC01FF80
1FF000FF80
3FE0007FC0
3FE0007FC0
7FC0003FE0
7FC0003FE0
7F80001FE0
7F80001FE0
7F80001FF0
FF80001FF0
FF80000FF0
FF00000FF0
FF00000FF0
FF00000FF0
FF80000FF0
FF80001FF0
7F80001FF0
7F81FC1FE0
7F80FE1FE0
7FC07F3FE0
7FC07F3FE0
3FE03FFFC0
3FE01FFFC0
1FF00FFF80
1FFC0FFF80
0FFFFFFF00
07FFFFFE00
03FFFFFE00
01FFFFFC00
00FFFFFE00
007FFFFF00
000FFF3F80
0000001F80
0000001FC0
ENDCHAR
STARTCHAR 0052
ENCODING 82
SWIDTH 594 0
DWIDTH 33 0
BBX 29 39 3 0
BITMAP
FFFFE000
FFFFFC00
FFFFFE00
FFFFFF80
FFFFFFC0
FFFFFFC0
FFFFFFE0
FF007FF0
FF001FF0
FF000FF0
FF0007F0
FF0007F8
FF0007F8
FF0007F8
FF0007F0
FF000FF0
FF000FF0
FF003FF0
FF03FFE0
FFFFFFE0
FFFFFFC0
FFFFFF80
FFFFFF00
FFFFFC00
FFFFF800
FF07F800
FF03FC00
FF03FE00
FF01FE00
FF00FF00
FF00FF00
FF007F80
FF007F80
FF003FC0
FF001FE0
FF001FE0
FF000FF0
FF000FF0
FF0007F8
ENDCHAR
STARTCHAR 0053
ENCODING 83
SWIDTH 594 0
DWIDTH 33 0
BBX 30 41 2 -1
BITMAP
00078000
00FFF800
03FFFE00
07FFFF80
0FFFFFC0
1FFFFFE0
1FFFFFE0
3FF03FF0
3FC01FF0
3FC00FF8
7F800FF8
7F800FF8
7F800FF8
7FC00000
3FC00000
3FF00000
3FFE0000
1FFFE000
1FFFFC00
0FFFFF00
03FFFFC0
00FFFFE0
001FFFF0
0001FFF0
00001FF8
00000FF8
000007F8
FF8007F8
FF8007FC
7F8007F8
7FC007F8
7FC007F8
7FE00FF8
3FF87FF0
1FFFFFF0
1FFFFFE0
0FFFFFC0
07FFFF80
01FFFF00
007FF800
00030000
ENDCHAR
STARTCHAR 0054
ENCODING 84
SWIDTH 576 0
DWIDTH 32 0
BBX 29 39 2 0
BITMAP
FFFFFFF8
FFFFFFF8
FFFFFFF8
FFFFFFF8
FFFFFFF8
FFFFFFF8
FFFFFFF8
001FC000
001FC000
001FC000
001FC000
001FC000
001FC000
001FC000
001FC000
001FC000
001FC000
001FC000
001FC000
001FC000
001FC000
001FC000
001FC000
001FC000
001FC000
001FC000
001FC000
001FC000
001FC000
001FC000
001FC000
001FC000
001FC000
001FC000
001FC000
001FC000
001FC000
001FC000
001FC000
ENDCHAR
STARTCHAR 0055
ENCODING 85
SWIDTH 684 0
DWIDTH 38 0
BBX 32 40 3 -1
BITMAP
FF0000FF
FF0000FF
FF0000FF
FF0000FF
FF0000FF
FF0000FF
FF0000FF
FF0000FF
FF0000FF
FF0000FF
FF0000FF
FF0000FF
FF0000FF
FF0000FF
FF0000FF
FF0000FF
FF0000FF
FF0000FF
FF0000FF
FF0000FF
FF0000FF
FF0000FF
FF0000FF
FF0000FF
FF0000FF
FF0000FF
FF0000FF
7F8001FE
7F8001FE
7FC003FE
7FE007FE
3FF00FFC
3FFFFFFC
1FFFFFF8
0FFFFFF0
07FFFFE0
03FFFFC0
01FFFF80
003FFC00
00018000
ENDCHAR
STARTCHAR 0056
ENCODING 86
SWIDTH 648 0
DWIDTH 36 0
BBX 35 39 1 0
BITMAP
FE00001FE0
FF00001FE0
FF00003FC0
7F00003FC0
7F80003FC0
7F80007F80
3F80007F80
3FC0007F80
3FC0007F00
1FC000FF00
1FE000FF00
1FE000FE00
0FE001FE00
0FF001FE00
0FF001FC00
07F003FC00
07F803FC00
07F803F800
03F807F800
03F807F800
03FC07F000
01FC0FF000
01FC0FF000
01FE0FE000
00FE1FE000
00FE1FE000
00FF1FC000
007F1FC000
007F3FC000
007FBF8000
007FBF8000
003FFF8000
003FFF0000
003FFF0000
001FFF0000
001FFE0000
001FFE0000
000FFE0000
000FFC0000
ENDCHAR
STARTCHAR 0057
ENCODING 87
SWIDTH 990 0
DWIDTH 55 0
BBX 54 39 1 0
BITMAP
FE0001FC0003FC
FF0001FC0003F8
FF0001FE0007F8
FF0003FE0007F8
7F0003FE0007F8
7F8003FF0007F0
7F8007FF000FF0
3F8007FF000FF0
3F8007FF800FF0
3FC00FFF800FE0
3FC00FFF800FE0
1FC00FFFC01FE0
1FC01FFFC01FE0
1FC01FFFC01FC0
1FE01FDFC01FC0
0FE01FDFE03FC0
0FE03FCFE03FC0
0FE03F8FE03F80
0FF03F8FF03F80
07F07F87F07F80
07F07F87F07F80
07F07F07F87F00
07F8FF07F87F00
03F8FF03F87F00
03F8FE03FCFE00
03F9FE03FCFE00
03F9FE01FCFE00
01FDFC01FCFE00
01FDFC01FFFC00
01FFFC00FFFC00
01FFF800FFFC00
00FFF800FFFC00
00FFF800FFF800
00FFF8007FF800
00FFF0007FF800
007FF0007FF800
007FF0003FF000
007FE0003FF000
007FE0003FF000
ENDCHAR
STARTCHAR 0058
ENCODING 88
SWIDTH 666 0
DWIDTH 37 0
BBX 34 39 2 0
BITMAP
FF00007FC0
FF80007F80
7F8000FF80
3FC000FF00
3FE001FE00
1FE003FE00
0FF003FC00
0FF807F800
07F80FF800
03FC0FF000
03FC1FE000
01FE1FE000
00FF3FC000
00FF7F8000
007FFF8000
003FFF0000
003FFE0000
001FFE0000
001FFC0000
000FFC0000
000FFC0000
001FFE0000
003FFE0000
003FFF0000
007FFF8000
00FF7F8000
00FF3FC000
01FE1FE000
03FC1FE000
03FC0FF000
07F80FF800
0FF807F800
0FF003FC00
1FE003FE00
3FE001FE00
3FC000FF00
7FC000FF80
FF80007F80
FF00007FC0
ENDCHAR
STARTCHAR 0059
ENCODING 89
SWIDTH 630 0
DWIDTH 35 0
BBX 32 39 2 0
BITMAP
FF0000FF
FF0000FF
7F8001FE
7F8001FE
3FC003FC
3FC003FC
1FE007F8
1FE007F8
0FE00FF0
0FF00FF0
07F00FE0
07F81FE0
03F81FC0
03FC3FC0
01FC3F80
01FE7F80
00FE7F00
00FFFF00
007FFE00
007FFE00
003FFC00
003FFC00
001FF800
001FF800
000FF000
000FF000
000FF000
000FF000
000FF000
000FF000
000FF000
000FF000
000FF000
000FF000
000FF000
000FF000
000FF000
000FF000
000FF000
ENDCHAR
STARTCHAR 005A
ENCODING 90
SWIDTH 612 0
DWIDTH 34 0
BBX 29 39 3 0
BITMAP
FFFFFFF8
FFFFFFF8
FFFFFFF8
FFFFFFF8
FFFFFFF8
FFFFFFF8
FFFFFFF8
00001FF0
00003FE0
00003FE0
00007FC0
0000FF80
0001FF00
0003FE00
0003FE00
0007FC00
000FF800
001FF000
003FE000
003FE000
007FC000
00FF8000
01FF0000
03FE0000
03FE0000
07FC0000
0FF80000
1FF00000
3FE00000
3FE00000
7FC00000
FF800000
FFFFFFF8
FFFFFFF8
FFFFFFF8
FFFFFFF8
FFFFFFF8
FFFFFFF8
FFFFFFF8
ENDCHAR
STARTCHAR 005B
ENCODING 91
SWIDTH 468 0
DWIDTH 26 0
BBX 17 57 5 -11
BITMAP
FFFF80
FFFF80
FFFF80
FFFF80
FFFF80
FFFF80
FC0000
FC0000
FC0000
FC0000
FC0000
FC0000
FC0000
FC0000
FC0000
FC0000
FC0000
FC0000
FC0000
FC0000
FC0000
FC0000
FC0000
FC0000
FC0000
FC0000
FC0000
FC0000
FC0000
FC0000
FC0000
FC0000
FC0000
FC0000
FC0000
FC0000
FC0000
FC0000
FC0000
FC0000
FC0000
FC0000
FC0000
FC0000
FC0000
FC0000
FC0000
FC0000
FC0000
FC0000
FC0000
FFFF80
FFFF80
FFFF80
FFFF80
FFFF80
FFFF80
ENDCHAR
STARTCHAR 005C
ENCODING 92
SWIDTH 522 0
DWIDTH 29 0
BBX 26 55 2 -11
BITMAP
FE000000
FE000000
FF000000
7F000000
7F000000
7F800000
3F800000
3F800000
3FC00000
1FC00000
1FC00000
1FE00000
0FE00000
0FE00000
07F00000
07F00000
07F80000
03F80000
03F80000
03FC0000
01FC0000
01FC0000
01FE0000
00FE0000
00FE0000
00FF0000
007F0000
007F0000
003F8000
003F8000
003F8000
001FC000
001FC000
001FE000
000FE000
000FE000
000FF000
0007F000
0007F000
0007F800
0003F800
0003F800
0003FC00
0001FC00
0001FC00
0000FE00
0000FE00
0000FF00
00007F00
00007F00
00007F80
00003F80
00003F80
00003FC0
00001FC0
ENDCHAR
STARTCHAR 005D
ENCODING 93
SWIDTH 450 0
DWIDTH 25 0
BBX 17 57 4 -11
BITMAP
FFFF80
FFFF80
FFFF80
FFFF80
FFFF80
FFFF80
001F80
001F80
001F80
001F80
001F80
001F80
001F80
001F80
001F80
001F80
001F80
001F80
001F80
001F80
001F80
001F80
001F80
001F80
001F80
001F80
001F80
001F80
001F80
001F80
001F80
001F80
001F80
001F80
001F80
001F80
001F80
001F80
001F80
001F80
001F80
001F80
001F80
001F80
001F80
001F80
001F80
001F80
001F80
001F80
001F80
FFFF80
FFFF80
FFFF80
FFFF80
FFFF80
FFFF80
ENDCHAR
STARTCHAR 005E
ENCODING 94
SWIDTH 414 0
DWIDTH 23 0
BBX 21 11 1 31
BITMAP
07FF00
07FF00
0FFF80
0FFF80
1FDFC0
3F8FE0
3F8FE0
7F07F0
7F07F0
FE03F8
FE03F8
ENDCHAR
STARTCHAR 005F
ENCODING 95
SWIDTH 702 0
DWIDTH 39 0
BBX 27 6 6 0
BITMAP
FFFFFFE0
FFFFFFE0
FFFFFFE0
FFFFFFE0
FFFFFFE0
FFFFFFE0
ENDCHAR
STARTCHAR 0060
ENCODING 96
SWIDTH 288 0
DWIDTH 16 0
BBX 13 11 2 34
BITMAP
FF00
7F00
7F80
3F80
1FC0
1FC0
0FE0
07E0
07F0
03F0
01F8
ENDCHAR
STARTCHAR 0061
ENCODING 97
SWIDTH 612 0
DWIDTH 34 0
BBX 29 30 2 0
BITMAP
00FE0000
03FF87F8
07FFE7F8
0FFFE7F8
1FFFF7F8
3FFFFFF8
3FF0FFF8
7FE03FF8
7FC01FF8
7F800FF8
FF800FF8
FF0007F8
FF0007F8
FF0007F8
FF0007F8
FF0007F8
FF0007F8
FF0007F8
FF0007F8
FF000FF8
7F800FF8
7F801FF8
7FC01FF8
7FE07FF8
3FFFFFF8
3FFFF7F8
1FFFF7F8
0FFFE7F8
07FFC7F8
01FF07F8
ENDCHAR
STARTCHAR 0062
ENCODING 98
SWIDTH 612 0
DWIDTH 34 0
BBX 29 42 3 0
BITMAP
FF000000
FF000000
FF000000
FF000000
FF000000
FF000000
FF000000
FF000000
FF000000
FF000000
FF000000
FF000000
FF07F800
FF0FFE00
FF3FFF00
FF7FFF80
FF7FFFC0
FFFFFFE0
FFF8FFE0
FFE03FF0
FFC01FF0
FF800FF0
FF800FF0
FF0007F8
FF0007F8
FF0007F8
FF0007F8
FF0007F8
FF0007F8
FF0007F8
FF0007F8
FF800FF8
FF800FF0
FF800FF0
FFC01FF0
FFE03FE0
FFFFFFE0
FF7FFFC0
FF7FFFC0
FF3FFF80
FF1FFF00
FF07FC00
ENDCHAR
STARTCHAR 0063
ENCODING 99
SWIDTH 558 0
DWIDTH 31 0
BBX 28 31 2 -1
BITMAP
003FE000
00FFF800
03FFFE00
07FFFF00
0FFFFF80
1FFFFF80
3FF0FFC0
3FE03FE0
7FC01FE0
7F800FE0
7F800FF0
7F000FF0
FF000000
FF000000
FF000000
FF000000
FF000000
FF000000
7F000000
7F000FF0
7F800FE0
7F801FE0
3FC01FE0
3FE07FC0
1FFFFFC0
1FFFFF80
0FFFFF00
07FFFE00
01FFFC00
007FF000
00060000
ENDCHAR
STARTCHAR 0064
ENCODING 100
SWIDTH 612 0
DWIDTH 34 0
BBX 29 42 2 0
BITMAP
000007F8
000007F8
000007F8
000007F8
000007F8
000007F8
000007F8
000007F8
000007F8
000007F8
000007F8
000007F8
00FF07F8
03FFC7F8
07FFE7F8
0FFFF7F8
1FFFF7F8
3FFFFFF8
3FF8FFF8
7FE03FF8
7FC01FF8
7F800FF8
7F800FF8
FF0007F8
FF0007F8
FF0007F8
FF0007F8
FF0007F8
FF0007F8
FF0007F8
FF0007F8
7F8007F8
7F800FF8
7FC00FF8
7FC01FF8
3FE03FF8
3FFFFFF8
1FFFF7F8
1FFFF7F8
0FFFE7F8
07FFC7F8
01FF87F8
ENDCHAR
STARTCHAR 0065
ENCODING 101
SWIDTH 576 0
DWIDTH 32 0
BBX 28 30 2 0
BITMAP
003FE000
00FFF800
03FFFE00
07FFFF00
0FFFFF80
1FFFFF80
3FE03FC0
3FC01FC0
7F801FE0
7F000FE0
7F000FE0
7F000FE0
FFFFFFF0
FFFFFFF0
FFFFFFF0
FFFFFFF0
FFFFFFF0
FF000000
7F000000
7F000000
7F000000
7F801FE0
3FC01FE0
3FE07FC0
1FFFFFC0
1FFFFF80
0FFFFF00
07FFFE00
01FFFC00
007FF000
ENDCHAR
STARTCHAR 0066
ENCODING 102
SWIDTH 378 0
DWIDTH 21 0
BBX 18 41 2 0
BITMAP
007FC0
01FFC0
03FFC0
07FFC0
07FFC0
0FFC40
0FF000
0FF000
0FF000
0FF000
0FF000
0FF000
FFFFC0
FFFFC0
FFFFC0
FFFFC0
FFFFC0
FFFFC0
0FF000
0FF000
0FF000
0FF000
0FF000
0FF000
0FF000
0FF000
0FF000
0FF000
0FF000
0FF000
0FF000
0FF000
0FF000
0FF000
0FF000
0FF000
0FF000
0FF000
0FF000
0FF000
0FF000
ENDCHAR
STARTCHAR 0067
ENCODING 103
SWIDTH 612 0
DWIDTH 34 0
BBX 29 42 2 -12
BITMAP
00FF0000
03FF87F8
07FFE7F8
0FFFF7F8
1FFFF7F8
3FFFFFF8
3FF87FF8
7FE01FF8
7FC01FF8
7F800FF8
7F800FF8
FF8007F8
FF0007F8
FF0007F8
FF0007F8
FF0007F8
FF0007F8
FF0007F8
7F8007F8
7F800FF8
7FC00FF8
7FC01FF8
3FE03FF8
3FFFFFF8
1FFFFFF8
1FFFF7F8
0FFFE7F8
07FFC7F8
01FF87F8
003807F8
000007F8
000007F8
00000FF0
00000FF0
00001FF0
00207FE0
003FFFE0
003FFFC0
003FFF80
003FFF00
003FFE00
003FF800
ENDCHAR
STARTCHAR 0068
ENCODING 104
SWIDTH 594 0
DWIDTH 33 0
BBX 27 41 3 0
BITMAP
FF000000
FF000000
FF000000
FF000000
FF000000
FF000000
FF000000
FF000000
FF000000
FF000000
FF000000
FF07F800
FF1FFE00
FF3FFF00
FF7FFF80
FF7FFFC0
FFFFFFC0
FFF9FFC0
FFC07FE0
FF803FE0
FF801FE0
FF001FE0
FF000FE0
FF000FE0
FF000FE0
FF000FE0
FF000FE0
FF000FE0
FF000FE0
FF000FE0
FF000FE0
FF000FE0
FF000FE0
FF000FE0
FF000FE0
FF000FE0
FF000FE0
FF000FE0
FF000FE0
FF000FE0
FF000FE0
ENDCHAR
STARTCHAR 0069
ENCODING 105
SWIDTH 270 0
DWIDTH 15 0
BBX 8 43 4 0
BITMAP
3C
7E
FF
FF
FF
FF
FF
7E
10
00
00
00
00
00
FF
FF
FF
FF
FF
FF
FF
FF
FF
FF
FF
FF
FF
FF
FF
FF
FF
FF
FF
FF
FF
FF
FF
FF
FF
FF
FF
FF
FF
ENDCHAR
STARTCHAR 006A
ENCODING 106
SWIDTH 270 0
DWIDTH 15 0
BBX 15 56 -2 -13
BITMAP
00F0
01FC
03FC
03FE
03FE
03FC
01FC
01F8
0020
0000
0000
0000
0000
03FC
03FC
03FC
03FC
03FC
03FC
03FC
03FC
03FC
03FC
03FC
03FC
03FC
03FC
03FC
03FC
03FC
03FC
03FC
03FC
03FC
03FC
03FC
03FC
03FC
03FC
03FC
03FC
03FC
03FC
03FC
03FC
03FC
03FC
03FC
07FC
0FF8
FFF8
FFF8
FFF0
FFF0
FFC0
1C00
ENDCHAR
STARTCHAR 006B
ENCODING 107
SWIDTH 558 0
DWIDTH 31 0
BBX 25 41 4 0
BITMAP
FE000000
FE000000
FE000000
FE000000
FE000000
FE000000
FE000000
FE000000
FE000000
FE000000
FE000000
FE000000
FE00FF80
FE01FF00
FE03FE00
FE07FC00
FE07F800
FE0FF000
FE1FF000
FE3FE000
FE7FC000
FEFF8000
FEFF0000
FFFF0000
FFFE0000
FFFE0000
FFFE0000
FEFF0000
FE7F8000
FE7F8000
FE3FC000
FE1FE000
FE1FE000
FE0FF000
FE07F800
FE07FC00
FE03FC00
FE03FE00
FE01FF00
FE00FF00
FE00FF80
ENDCHAR
STARTCHAR 006C
ENCODING 108
SWIDTH 324 0
DWIDTH 18 0
BBX 13 42 4 0
BITMAP
FE00
FE00
FE00
FE00
FE00
FE00
FE00
FE00
FE00
FE00
FE00
FE00
FE00
FE00
FE00
FE00
FE00
FE00
FE00
FE00
FE00
FE00
FE00
FE00
FE00
FE00
FE00
FE00
FE00
FE00
FE00
FE00
FE00
FE00
FE00
FF00
FFC0
FFF8
FFF8
7FF8
3FF8
0FF8
ENDCHAR
STARTCHAR 006D
ENCODING 109
SWIDTH 918 0
DWIDTH 51 0
BBX 45 30 3 0
BITMAP
0007F001FE00
FF1FFC07FF00
FF3FFE0FFFC0
FF7FFF1FFFE0
FF7FFF1FFFE0
FFFFFFBFFFF0
FFFFFFFFFFF0
FFC0FFF81FF0
FF807FF00FF8
FF803FE007F8
FF003FE007F8
FF001FE007F8
FF001FE007F8
FF001FE007F8
FF001FE007F8
FF001FE007F8
FF001FE007F8
FF001FE007F8
FF001FE007F8
FF001FE007F8
FF001FE007F8
FF001FE007F8
FF001FE007F8
FF001FE007F8
FF001FE007F8
FF001FE007F8
FF001FE007F8
FF001FE007F8
FF001FE007F8
FF001FE007F8
ENDCHAR
STARTCHAR 006E
ENCODING 110
SWIDTH 594 0
DWIDTH 33 0
BBX 27 30 3 0
BITMAP
0007F800
FF1FFE00
FF3FFF00
FF7FFF80
FF7FFFC0
FFFFFFC0
FFF9FFC0
FFC07FE0
FF803FE0
FF801FE0
FF001FE0
FF000FE0
FF000FE0
FF000FE0
FF000FE0
FF000FE0
FF000FE0
FF000FE0
FF000FE0
FF000FE0
FF000FE0
FF000FE0
FF000FE0
FF000FE0
FF000FE0
FF000FE0
FF000FE0
FF000FE0
FF000FE0
FF000FE0
ENDCHAR
STARTCHAR 006F
ENCODING 111
SWIDTH 576 0
DWIDTH 32 0
BBX 28 30 2 0
BITMAP
003FC000
00FFF800
03FFFE00
07FFFF00
0FFFFF80
1FFFFFC0
3FF0FFC0
3FE03FE0
7FC01FE0
7F800FE0
7F800FF0
7F000FF0
FF0007F0
FF0007F0
FF0007F0
FF0007F0
FF0007F0
FF0007F0
7F000FF0
7F000FF0
7F800FF0
7F801FE0
3FC03FE0
3FE07FC0
1FFFFFC0
1FFFFF80
0FFFFF00
07FFFE00
01FFFC00
007FF000
ENDCHAR
STARTCHAR 0070
ENCODING 112
SWIDTH 612 0
DWIDTH 34 0
BBX 29 42 3 -12
BITMAP
0007F800
FF0FFE00
FF3FFF00
FF7FFF80
FF7FFFC0
FFFFFFE0
FFF8FFE0
FFE03FF0
FFC01FF0
FF800FF0
FF800FF0
FF0007F8
FF0007F8
FF0007F8
FF0007F8
FF0007F8
FF0007F8
FF0007F8
FF0007F8
FF800FF8
FF800FF0
FF800FF0
FFC01FF0
FFE03FE0
FFFFFFE0
FF7FFFC0
FF7FFFC0
FF3FFF80
FF1FFF00
FF07FC00
FF000000
FF000000
FF000000
FF000000
FF000000
FF000000
FF000000
FF000000
FF000000
FF000000
FF000000
FF000000
ENDCHAR
STARTCHAR 0071
ENCODING 113
SWIDTH 612 0
DWIDTH 34 0
BBX 28 42 3 -12
BITMAP
01FE0000
07FF87F0
0FFFC7F0
1FFFE7F0
3FFFF7F0
3FFFFFF0
7FF0FFF0
7FC03FF0
FF801FF0
FF801FF0
FF000FF0
FF000FF0
FF000FF0
FE000FF0
FE0007F0
FE0007F0
FE000FF0
FF000FF0
FF000FF0
FF000FF0
FF001FF0
FF801FF0
7FC03FF0
7FE07FF0
7FFFFFF0
3FFFF7F0
1FFFE7F0
0FFFC7F0
07FF87F0
01FF07F0
000007F0
000007F0
000007F0
000007F0
000007F0
000007F0
000007F0
000007F0
000007F0
000007F0
000007F0
000007F0
ENDCHAR
STARTCHAR 0072
ENCODING 114
SWIDTH 378 0
DWIDTH 21 0
BBX 18 29 3 0
BITMAP
FF0FC0
FF3FC0
FF7FC0
FF7FC0
FFFFC0
FFFFC0
FFFFC0
FFE000
FFC000
FF8000
FF0000
FF0000
FF0000
FF0000
FF0000
FF0000
FF0000
FF0000
FF0000
FF0000
FF0000
FF0000
FF0000
FF0000
FF0000
FF0000
FF0000
FF0000
FF0000
ENDCHAR
STARTCHAR 0073
ENCODING 115
SWIDTH 486 0
DWIDTH 27 0
BBX 24 30 2 0
BITMAP
00FF00
07FFC0
0FFFF0
1FFFF8
3FFFFC
7FFFFC
7F83FE
7F01FE
7F00FE
7F0000
7F0000
7FC000
3FFE00
3FFFC0
1FFFF0
0FFFF8
03FFFC
007FFE
0003FE
0000FE
FF00FF
FF00FF
FF00FE
7F81FE
7FFFFE
3FFFFC
3FFFFC
1FFFF8
07FFF0
01FF80
ENDCHAR
STARTCHAR 0074
ENCODING 116
SWIDTH 414 0
DWIDTH 23 0
BBX 19 39 2 0
BITMAP
0FF000
0FF000
0FF000
0FF000
0FF000
0FF000
0FF000
0FF000
0FF000
0FF000
FFFFE0
FFFFE0
FFFFE0
FFFFE0
FFFFE0
FFFFE0
0FF000
0FF000
0FF000
0FF000
0FF000
0FF000
0FF000
0FF000
0FF000
0FF000
0FF000
0FF000
0FF000
0FF000
0FF000
0FF000
07F800
07FE20
07FFE0
07FFE0
03FFE0
01FFE0
00FFE0
ENDCHAR
STARTCHAR 0075
ENCODING 117
SWIDTH 576 0
DWIDTH 32 0
BBX 27 30 3 -1
BITMAP
FF001FE0
FF001FE0
FF001FE0
FF001FE0
FF001FE0
FF001FE0
FF001FE0
FF001FE0
FF001FE0
FF001FE0
FF001FE0
FF001FE0
FF001FE0
FF001FE0
FF001FE0
FF001FE0
FF001FE0
FF001FE0
FF001FE0
FF001FE0
FF803FE0
7F807FE0
7FE0FFE0
7FFFFFE0
3FFFFFE0
3FFFDFE0
1FFF9FE0
0FFF1FE0
07FE1FE0
00300000
ENDCHAR
STARTCHAR 0076
ENCODING 118
SWIDTH 540 0
DWIDTH 30 0
BBX 29 29 1 0
BITMAP
FF0007F8
7F0007F0
7F0007F0
7F800FF0
3F800FE0
3F800FE0
3FC01FE0
1FC01FC0
1FC01FC0
1FE03FC0
0FE03F80
0FE03F80
0FF07F80
07F07F00
07F07F00
07F0FF00
03F8FE00
03F8FE00
03F8FE00
01FDFC00
01FDFC00
01FFFC00
00FFF800
00FFF800
00FFF800
007FF000
007FF000
007FF000
003FE000
ENDCHAR
STARTCHAR 0077
ENCODING 119
SWIDTH 810 0
DWIDTH 45 0
BBX 43 29 1 0
BITMAP
FE003F800FE0
7F003FC00FE0
7F003FC00FE0
7F007FC00FE0
7F007FE01FC0
3F807FE01FC0
3F807FE01FC0
3F80FFF01FC0
3F80FFF03F80
1FC0FFF03F80
1FC1FFF03F80
1FC1FFF83F80
1FC1FBF87F00
0FE1F9F87F00
0FE3F9FC7F00
0FE3F9FC7F00
07E3F1FC7E00
07F7F0FCFE00
07F7F0FEFE00
07F7F0FEFE00
03F7E07EFC00
03FFE07FFC00
03FFE07FFC00
03FFE07FFC00
01FFC03FF800
01FFC03FF800
01FFC03FF800
01FF803FF800
00FF801FF000
ENDCHAR
STARTCHAR 0078
ENCODING 120
SWIDTH 558 0
DWIDTH 31 0
BBX 27 29 2 0
BITMAP
FF001FE0
7F803FC0
7F803FC0
3FC07F80
3FE07F80
1FE0FF00
0FF1FE00
0FF1FE00
07FBFC00
07FBFC00
03FFF800
01FFF000
01FFF000
00FFE000
00FFE000
00FFE000
01FFF000
03FFF800
03FFF800
07FBFC00
07F9FC00
0FF1FE00
1FF0FF00
1FE0FF00
3FC07F80
3FC07F80
7F803FC0
FF803FE0
FF001FE0
ENDCHAR
STARTCHAR 0079
ENCODING 121
SWIDTH 540 0
DWIDTH 30 0
BBX 29 41 1 -12
BITMAP
FF0007F8
7F8007F0
7F800FF0
3F800FF0
3F800FE0
3FC01FE0
1FC01FC0
1FC01FC0
1FE03FC0
0FE03F80
0FE03F80
07F07F00
07F07F00
07F07F00
03F8FE00
03F8FE00
03F8FE00
01FDFC00
01FDFC00
01FDF800
00FFF800
00FFF800
007FF000
007FF000
007FE000
003FE000
003FE000
003FC000
001FC000
003FC000
003F8000
007F8000
007F0000
00FF0000
01FF0000
47FE0000
7FFE0000
7FFC0000
7FF80000
7FF00000
7FC00000
ENDCHAR
STARTCHAR 007A
ENCODING 122
SWIDTH 486 0
DWIDTH 27 0
BBX 22 29 3 0
BITMAP
FFFFFC
FFFFFC
FFFFFC
FFFFFC
FFFFFC
FFFFFC
0007F8
0007F8
000FF0
001FE0
003FC0
007F80
00FF80
00FF00
01FE00
03FC00
07F800
0FF000
1FF000
1FE000
3FC000
7F8000
FF0000
FFFFFC
FFFFFC
FFFFFC
FFFFFC
FFFFFC
FFFFFC
ENDCHAR
STARTCHAR 007B
ENCODING 123
SWIDTH 432 0
DWIDTH 24 0
BBX 18 61 4 -14
BITMAP
003FC0
00FFC0
01FFC0
03FFC0
03FFC0
07F800
07F000
07F000
07E000
07E000
07E000
07E000
07E000
07E000
07E000
07E000
07E000
07E000
07E000
07E000
07E000
07E000
07E000
07E000
07E000
07E000
0FE000
0FC000
FFC000
FF8000
FE0000
FF8000
1FC000
0FE000
0FE000
07E000
07E000
07E000
07E000
07E000
07E000
07E000
07E000
07E000
07E000
07E000
07E000
07E000
07E000
07E000
07E000
07E000
07E000
07F000
07F000
07FFC0
03FFC0
03FFC0
01FFC0
007FC0
000FC0
ENDCHAR
STARTCHAR 007C
ENCODING 124
SWIDTH 288 0
DWIDTH 16 0
BBX 7 67 5 -14
BITMAP
FE
FE
FE
FE
FE
FE
FE
FE
FE
FE
FE
FE
FE
FE
FE
FE
FE
FE
FE
FE
FE
FE
FE
FE
FE
FE
FE
FE
FE
FE
FE
FE
FE
FE
FE
FE
FE
FE
FE
FE
FE
FE
FE
FE
FE
FE
FE
FE
FE
FE
FE
FE
FE
FE
FE
FE
FE
FE
FE
FE
FE
FE
FE
FE
FE
FE
FE
ENDCHAR
STARTCHAR 007D
ENCODING 125
SWIDTH 450 0
DWIDTH 25 0
BBX 17 61 5 -14
BITMAP
FF0000
FFC000
FFE000
FFE000
FFF000
07F000
03F800
03F800
03F800
03F800
03F800
03F800
03F800
03F800
03F800
03F800
03F800
03F800
03F800
03F800
03F800
03F800
03F800
03F800
03F800
03F800
01F800
01F800
00FF80
007F80
003F80
00FF80
01FC00
01F800
01F800
03F800
03F800
03F800
03F800
03F800
03F800
03F800
03F800
03F800
03F800
03F800
03F800
03F800
03F800
03F800
03F800
03F800
03F800
03F800
07F000
FFF000
FFF000
FFE000
FFC000
FF8000
FC0000
ENDCHAR
STARTCHAR 007E
ENCODING 126
SWIDTH 594 0
DWIDTH 33 0
BBX 22 8 6 17
BITMAP
07007C
3FE07C
7FFFF8
7FFFF8
FFFFF8
F8FFF0
F01FE0
F00000
ENDCHAR
STARTCHAR 00A0
ENCODING 160
SWIDTH 216 0
DWIDTH 12 0
BBX 0 0 0 0
BITMAP
ENDCHAR
STARTCHAR 00A1
ENCODING 161
SWIDTH 270 0
DWIDTH 15 0
BBX 8 41 4 -14
BITMAP
7C
FE
FF
FF
FF
FF
FE
3C
00
00
00
00
00
7C
7E
7E
7E
7E
7E
7E
7E
FE
FE
FE
FE
FE
FE
FE
FE
FE
FE
FE
FE
FE
FF
FF
FF
FF
FF
FF
FF
ENDCHAR
STARTCHAR 00A2
ENCODING 162
SWIDTH 594 0
DWIDTH 33 0
BBX 28 38 2 -4
BITMAP
00060000
00060000
00060000
00060000
003FE000
01FFF800
03FFFE00
07FFFF00
0FFFFF80
1FFFFF80
3FF6FFC0
3FE63FE0
7FC61FE0
7F860FE0
7F860FF0
7F060FF0
FF060000
FF060000
FF060000
FF060000
FF060000
FF060000
7F060000
7F060FF0
7F860FE0
7F861FE0
3FC61FE0
3FE67FC0
1FFFFFC0
1FFFFF80
0FFFFF00
07FFFE00
01FFFC00
007FF000
00060000
00060000
00060000
00060000
ENDCHAR
STARTCHAR 00A3
ENCODING 163
SWIDTH 612 0
DWIDTH 34 0
BBX 30 40 2 0
BITMAP
0007C000
00FFFC00
03FFFF00
07FFFF80
0FFFFFC0
1FFFFFE0
1FFFFFF0
3FF01FF0
3FE00FF8
3FC00FF8
3FC007F8
3FC007F8
3FC007F8
3FC00000
3FE00000
3FF00000
1FF00000
1FF80000
0FFC0000
07FC0000
07FE0000
7FFFFE00
7FFFFE00
7FFFFE00
7FFFFE00
00FF0000
00FF0000
00FE0000
00FE0000
00FE0000
00FC0000
01F80000
07F00000
FFC00000
FFFFFFFC
FFFFFFFC
FFFFFFFC
FFFFFFFC
FFFFFFFC
FFFFFFFC
ENDCHAR
STARTCHAR 00A4
ENCODING 164
SWIDTH 612 0
DWIDTH 34 0
BBX 29 31 3 5
BITMAP
180000C0
3C0001E0
FE3FE3F0
FEFFFFF8
7FFFFFF0
3FFFFFE0
1FFFFFC0
1FFDFFC0
1FC03FC0
3F800FE0
3F0007E0
7F0007F0
7E0003F0
7E0003F0
7E0003F0
7E0003F0
7E0003F0
7E0003F0
7E0003F0
7F0007F0
3F000FE0
3F801FE0
1FE03FC0
1FFFFFC0
3FFFFFE0
7FFFFFF0
FFFFFFF0
FEFFFBF8
7C1FC1F0
380000E0
10000040
ENDCHAR
STARTCHAR 00A5
ENCODING 165
SWIDTH 648 0
DWIDTH 36 0
BBX 32 39 2 0
BITMAP
FF0000FF
FF0000FF
7F8001FE
7F8001FE
3FC003FC
3FC003FC
1FE007F8
1FE007F8
0FE00FF0
0FF00FF0
07F00FE0
07F81FE0
03F81FC0
03FC3FC0
01FC3F80
01FE7F80
00FE7F00
00FFFF00
007FFE00
007FFE00
003FFC00
003FFC00
001FF800
07FFFFE0
07FFFFE0
07FFFFE0
07FFFFE0
000FF000
000FF000
000FF000
07FFFFE0
07FFFFE0
07FFFFE0
07FFFFE0
000FF000
000FF000
000FF000
000FF000
000FF000
ENDCHAR
STARTCHAR 00A6
ENCODING 166
SWIDTH 288 0
DWIDTH 16 0
BBX 7 67 5 -14
BITMAP
FE
FE
FE
FE
FE
FE
FE
FE
FE
FE
FE
FE
FE
FE
FE
FE
FE
FE
FE
FE
FE
FE
FE
FE
FE
FE
FE
FE
FE
FE
00
00
00
00
00
00
00
00
00
FE
FE
FE
FE
FE
FE
FE
FE
FE
FE
FE
FE
FE
FE
FE
FE
FE
FE
FE
FE
FE
FE
FE
FE
FE
FE
FE
FE
ENDCHAR
STARTCHAR 00A7
ENCODING 167
SWIDTH 540 0
DWIDTH 30 0
BBX 27 41 2 -1
BITMAP
001E0000
01FFE000
07FFF800
0FFFFC00
1FFFFE00
1FFFFF00
3FC0FF00
3F807F80
3F807F80
3F800000
3FC00000
1FF80000
1FFFC000
0FFFF800
1FFFFE00
3FFFFF00
7FFFFF80
7F07FFC0
FF007FC0
FE001FE0
7F001FE0
7F801FE0
7FF01FE0
3FFF3FC0
1FFFFFC0
0FFFFF80
03FFFF00
00FFFE00
001FFF00
0001FF80
00007F80
7F803F80
7F803F80
3FC07F80
3FF9FF80
1FFFFF00
1FFFFF00
0FFFFE00
03FFFC00
00FFF000
00070000
ENDCHAR
STARTCHAR 00A8
ENCODING 168
SWIDTH 468 0
DWIDTH 26 0
BBX 23 9 2 34
BITMAP
3C00F0
7F01FC
FF01FC
FF83FE
FF83FE
FF03FE
7F01FC
7E00F8
080020
ENDCHAR
STARTCHAR 00A9
ENCODING 169
SWIDTH 792 0
DWIDTH 44 0
BBX 40 40 2 -1
BITMAP
0003FFE000
001FFFFC00
007FFFFF00
00FFFFFF80
01FF80FFC0
03FC001FE0
07F00007F0
0FE00003F8
1F800000FC
1F80FF80FC
3F03FFE07E
3E07FFF03E
3E0FFFF83E
7C1FC0FC1F
7C1F007C1F
7C3E003E1F
783E003E0F
F83E00000F
F83C00000F
F83C00000F
F83C00000F
F83C00000F
783E00180F
783E003E1F
7C1F007E1F
7C1F80FC1F
7E0FF7FC3E
3E07FFF83E
3F03FFF07E
1F01FFC07C
1F803E00FC
0FC00001F8
07E00003F0
07F8000FF0
03FF007FC0
00FFFFFF80
007FFFFF00
003FFFFE00
0007FFF000
0000FF0000
ENDCHAR
STARTCHAR 00AA
ENCODING 170
SWIDTH 162 0
DWIDTH 9 0
BBX 9 9 0 21
BITMAP
1000
7B80
7F80
F380
E380
E380
7F80
7F80
3B80
ENDCHAR
STARTCHAR 00AB
ENCODING 171
SWIDTH 684 0
DWIDTH 38 0
BBX 35 24 2 5
BITMAP
003FC01FC0
007F803F80
00FF007F00
00FE00FF00
01FC01FE00
03F803FC00
07F007F800
0FE00FF000
1FE00FE000
3FC01FC000
7F803F8000
FF007F8000
7F007F8000
3F803FC000
1FC01FE000
1FE00FF000
0FF007F800
07F803F800
03FC01FC00
01FE00FE00
00FE007F00
007F007F80
003F803FC0
001FC01FE0
ENDCHAR
STARTCHAR 00AC
ENCODING 172
SWIDTH 648 0
DWIDTH 36 0
BBX 28 15 4 14
BITMAP
FFFFFFF0
FFFFFFF0
FFFFFFF0
FFFFFFF0
FFFFFFF0
FFFFFFF0
000003F0
000003F0
000003F0
000003F0
000003F0
000003F0
000003F0
000003F0
000003F0
ENDCHAR
STARTCHAR 00AD
ENCODING 173
SWIDTH 594 0
DWIDTH 33 0
BBX 21 6 6 14
BITMAP
FFFFF8
FFFFF8
FFFFF8
FFFFF8
FFFFF8
FFFFF8
ENDCHAR
STARTCHAR 00AE
ENCODING 174
SWIDTH 324 0
DWIDTH 18 0
BBX 13 14 3 25
BITMAP
0F80
3FE0
7070
E038
CF98
CC98
8D98
8F18
CD98
CD98
E038
7070
3FE0
0F80
ENDCHAR
STARTCHAR 00AF
ENCODING 175
SWIDTH 378 0
DWIDTH 21 0
BBX 17 4 2 36
BITMAP
FFFF80
FFFF80
FFFF80
FFFF80
ENDCHAR
STARTCHAR 00B0
ENCODING 176
SWIDTH 324 0
DWIDTH 18 0
BBX 12 12 3 37
BITMAP
0F00
3FC0
7FE0
7FF0
F0F0
F070
F070
F0F0
F9F0
7FE0
3FC0
1F80
ENDCHAR
STARTCHAR 00B1
ENCODING 177
SWIDTH 594 0
DWIDTH 33 0
BBX 24 33 5 0
BITMAP
007E00
007E00
007E00
007E00
007E00
007E00
007E00
007E00
FFFFFF
FFFFFF
FFFFFF
FFFFFF
FFFFFF
FFFFFF
FFFFFF
007E00
007E00
007E00
007E00
007E00
007E00
007E00
007E00
000000
000000
000000
000000
000000
FFFFFF
FFFFFF
FFFFFF
FFFFFF
FFFFFF
ENDCHAR
STARTCHAR 00B2
ENCODING 178
SWIDTH 306 0
DWIDTH 17 0
BBX 15 21 1 22
BITMAP
0FF0
3FF8
3FFC
7EFC
783C
F83E
F83E
003C
007C
007C
00F8
03F0
07E0
0FC0
1F80
3F00
FC00
FFFE
FFFE
FFFE
FFFE
ENDCHAR
STARTCHAR 00B3
ENCODING 179
SWIDTH 324 0
DWIDTH 18 0
BBX 16 22 1 21
BITMAP
00C0
0FF8
1FFC
3FFE
7E7E
7C1F
781F
001F
003E
03FE
03FC
03FC
03FE
003E
001F
F81F
FC1F
7E3F
7FFE
3FFE
1FF8
07F0
ENDCHAR
STARTCHAR 00B4
ENCODING 180
SWIDTH 288 0
DWIDTH 16 0
BBX 12 11 2 34
BITMAP
07F0
0FF0
0FE0
1FE0
1FC0
3F80
3F80
7F00
7E00
FE00
FC00
ENDCHAR
STARTCHAR 00B5
ENCODING 181
SWIDTH 648 0
DWIDTH 36 0
BBX 31 41 3 -12
BITMAP
FF003FC0
FF003FC0
FF003FC0
FF003FC0
FF003FC0
FF003FC0
FF003FC0
FF003FC0
FF003FC0
FF003FC0
FF003FC0
FF003FC0
FF003FC0
FF003FC0
FF003FC0
FF003FC0
FF003FC0
FF003FC0
FF007FC0
FF007FC0
FF007FC0
FF80FFC0
FF81FFC0
FFFFFFF0
FFFFFFFE
FFFF9FFE
FFFF8FFE
FFFE0FFE
FFFC03FE
FE000000
FE000000
FF000000
FF000000
FF000000
FF000000
FF000000
FF000000
FF000000
FF000000
FF000000
FF000000
ENDCHAR
STARTCHAR 00B6
ENCODING 182
SWIDTH 558 0
DWIDTH 31 0
BBX 28 39 1 0
BITMAP
00FFFFF0
07FFFFF0
0FFFFFF0
3FFFFFF0
3FFFFFF0
7FFFFFF0
7FFFFFF0
FFFFE1F0
FFFFE1F0
FFFFE1F0
FFFFE1F0
FFFFE1F0
FFFFE1F0
FFFFE1F0
FFFFE1F0
7FFFE1F0
7FFFE1F0
3FFFE1F0
1FFFE1F0
0FFFE1F0
03FFE1F0
0003E1F0
0003E1F0
0003E1F0
0003E1F0
0003E1F0
0003E1F0
0003E1F0
0003E1F0
0003E1F0
0003E1F0
0003E1F0
0003E1F0
0003E1F0
0003E1F0
0003E1F0
0003E1F0
0003E1F0
0003E1F0
ENDCHAR
STARTCHAR 00B7
ENCODING 183
SWIDTH 306 0
DWIDTH 17 0
BBX 9 8 4 17
BITMAP
3E00
7F00
FF80
FF80
FF80
7F80
7F00
3E00
ENDCHAR
STARTCHAR 00B8
ENCODING 184
SWIDTH 252 0
DWIDTH 14 0
BBX 11 14 2 -14
BITMAP
7800
7800
FC00
FF80
FFC0
FFC0
01E0
01E0
01E0
83C0
FFC0
FF80
FF00
7C00
ENDCHAR
STARTCHAR 00B9
ENCODING 185
SWIDTH 270 0
DWIDTH 15 0
BBX 13 21 1 22
BITMAP
0780
0F80
1F80
7F80
FF80
FF80
F780
E780
C780
8780
0780
0780
0780
0780
0780
0780
0780
FFF8
FFF8
FFF8
FFF8
ENDCHAR
STARTCHAR 00BA
ENCODING 186
SWIDTH 162 0
DWIDTH 9 0
BBX 8 9 1 21
BITMAP
38
7E
EE
C7
C7
C7
EE
7E
3C
ENDCHAR
STARTCHAR 00BB
ENCODING 187
SWIDTH 684 0
DWIDTH 38 0
BBX 35 24 2 5
BITMAP
7F007F8000
3F803FC000
1FC01FE000
1FE00FE000
0FF007F000
07F803F800
03FC01FC00
01FE01FE00
00FE00FF00
007F007F80
003F803FC0
003FC01FE0
003FC01FC0
007F803F80
00FF007F00
01FE00FE00
03FC01FE00
03F803FC00
07F007F800
0FE00FF000
1FC00FE000
3FC01FC000
7F803F8000
FF007F0000
ENDCHAR
STARTCHAR 00BC
ENCODING 188
SWIDTH 828 0
DWIDTH 46 0
BBX 43 39 2 0
BITMAP
0F800001F800
1F800003F800
3F800007F000
FF800007F000
FF80000FE000
FF80000FE000
FF80001FC000
EF80003F8000
CF80003F8000
8F80007F0000
0F80007F0000
0F8000FE0000
0F8001FC0000
0F8001FC0000
0F8003F80000
FFF803F80000
FFF807F00000
FFF80FE00000
FFF80FE00000
FFF81FC00000
00001FC03F80
00003F807F80
00003F00FF80
00007F00FF80
0000FE01EF80
0000FE01EF80
0001FC03CF80
0001F8078F80
0003F8078F80
0007F00F0F80
0007F00E0F80
000FE01FFFE0
000FC01FFFE0
001FC01FFFE0
003F801FFFE0
003F80000F80
007F00000F80
007E00000F80
00FE00000F80
ENDCHAR
STARTCHAR 00BD
ENCODING 189
SWIDTH 882 0
DWIDTH 49 0
BBX 45 39 2 0
BITMAP
0F800000FE00
1F800000FC00
3F800001FC00
FF800003F800
FF800003F800
FF800007F000
FF800007E000
EF80000FE000
CF80001FC000
8F80001FC000
0F80003F8000
0F80003F0000
0F80007F0000
0F8000FE0000
0F8000FE0000
FFF801FC0000
FFF801FC0000
FFF803F80000
FFF807F00000
FFF807F00F80
00000FE03FE0
00000FE07FF0
00001FC0FFF8
00003F80FFF8
00003F80F8F8
00007F00F0F8
00007F0000F8
0000FE0000F8
0001FC0001F0
0001FC0003F0
0003F80007E0
0003F8000FC0
0007F0003F00
000FE0007E00
000FE000FFF8
001FC001FFF8
001FC001FFF8
003F8001FFF8
003F0001FFF8
ENDCHAR
STARTCHAR 00BE
ENCODING 190
SWIDTH 846 0
DWIDTH 47 0
BBX 43 39 2 0
BITMAP
0FF00001FC00
3FF80001F800
3FFC0003F800
7FFC0007F000
7C7E0007F000
FC3E000FE000
003E000FC000
00FE001FC000
03FC003F8000
03F8003F8000
03F8007F0000
03FC007E0000
003E00FE0000
003E01FC0000
F83E01FC0000
FE7E03F80000
7FFE03F80000
7FFC07F00000
3FF80FE00000
0FF00FE00000
00001FC03F80
00001FC07F80
00003F807F80
00007F00FF80
00007F00FF80
0000FE01EF80
0000FE03CF80
0001FC03CF80
0003F8078F80
0003F8078F80
0007F00F0F80
0007F00FFFE0
000FE00FFFE0
001FC00FFFE0
001FC00FFFE0
003F80000F80
003F80000F80
007F00000F80
007E00000F80
ENDCHAR
STARTCHAR 00BF
ENCODING 191
SWIDTH 576 0
DWIDTH 32 0
BBX 27 41 3 -14
BITMAP
00040000
001F0000
003F8000
003FC000
007FC000
007FC000
003F8000
001F8000
000E0000
00000000
00000000
00000000
003F8000
003F8000
007F8000
007F8000
00FF8000
01FF0000
03FE0000
07FC0000
0FF80000
1FF00000
3FE00000
7FC00000
7F800000
FF800000
FF000000
FF001FE0
FF001FE0
FF001FE0
FF003FC0
FF003FC0
FF807FC0
7FF3FF80
7FFFFF80
3FFFFF00
3FFFFE00
1FFFFC00
07FFF800
01FFE000
001E0000
ENDCHAR
STARTCHAR 00C0
ENCODING 192
SWIDTH 666 0
DWIDTH 37 0
BBX 35 54 1 0
BITMAP
00FE000000
00FF000000
007F000000
003F800000
003F800000
001FC00000
000FC00000
000FE00000
0007E00000
0003F00000
0003F00000
0000000000
0000000000
0000000000
0000000000
0003FC0000
0003FC0000
0007FC0000
0007FE0000
0007FE0000
000FFE0000
000FFF0000
000FFF0000
001FFF8000
001FFF8000
001FBF8000
003F9FC000
003F9FC000
007F1FC000
007F0FE000
007F0FE000
00FE0FE000
00FE07F000
00FE07F000
01FC07F000
01FC03F800
01FC03F800
03F803FC00
03FFFFFC00
07FFFFFC00
07FFFFFE00
07FFFFFE00
0FFFFFFE00
0FFFFFFF00
0FE0007F00
1FE0007F00
1FE0007F80
1FC0003F80
3FC0003F80
3FC0003FC0
3F80001FC0
7F80001FE0
7F80001FE0
FF00001FE0
ENDCHAR
STARTCHAR 00C1
ENCODING 193
SWIDTH 666 0
DWIDTH 37 0
BBX 35 54 1 0
BITMAP
00000FF000
00000FE000
00001FC000
00001FC000
00003F8000
00003F0000
00007F0000
00007E0000
0000FC0000
0001FC0000
0001F80000
0000000000
0000000000
0000000000
0000000000
0003FC0000
0003FC0000
0007FC0000
0007FE0000
0007FE0000
000FFE0000
000FFF0000
000FFF0000
001FFF8000
001FFF8000
001FBF8000
003F9FC000
003F9FC000
007F1FC000
007F0FE000
007F0FE000
00FE0FE000
00FE07F000
00FE07F000
01FC07F000
01FC03F800
01FC03F800
03F803FC00
03FFFFFC00
07FFFFFC00
07FFFFFE00
07FFFFFE00
0FFFFFFE00
0FFFFFFF00
0FE0007F00
1FE0007F00
1FE0007F80
1FC0003F80
3FC0003F80
3FC0003FC0
3F80001FC0
7F80001FE0
7F80001FE0
FF00001FE0
ENDCHAR
STARTCHAR 00C2
ENCODING 194
SWIDTH 666 0
DWIDTH 37 0
BBX 35 51 1 0
BITMAP
0003F80000
0007FC0000
0007FE0000
000FFF0000
001FFF8000
003F9FC000
007F0FE000
00FE07F000
01FC03F800
0000000000
0000000000
0000000000
0003FC0000
0003FC0000
0007FC0000
0007FE0000
0007FE0000
000FFE0000
000FFF0000
000FFF0000
001FFF8000
001FFF8000
001FBF8000
003F9FC000
003F9FC000
007F1FC000
007F0FE000
007F0FE000
00FE0FE000
00FE07F000
00FE07F000
01FC07F000
01FC03F800
01FC03F800
03F803FC00
03FFFFFC00
07FFFFFC00
07FFFFFE00
07FFFFFE00
0FFFFFFE00
0FFFFFFF00
0FE0007F00
1FE0007F00
1FE0007F80
1FC0003F80
3FC0003F80
3FC0003FC0
3F80001FC0
7F80001FE0
7F80001FE0
FF00001FE0
ENDCHAR
STARTCHAR 00C3
ENCODING 195
SWIDTH 666 0
DWIDTH 37 0
BBX 35 51 1 0
BITMAP
000F81E000
003FE3E000
003FFFC000
007FFFC000
007FFFC000
0078FF8000
00783F0000
0000000000
0000000000
0000000000
0000000000
0000000000
0003FC0000
0003FC0000
0007FC0000
0007FE0000
0007FE0000
000FFE0000
000FFF0000
000FFF0000
001FFF8000
001FFF8000
001FBF8000
003F9FC000
003F9FC000
007F1FC000
007F0FE000
007F0FE000
00FE0FE000
00FE07F000
00FE07F000
01FC07F000
01FC03F800
01FC03F800
03F803FC00
03FFFFFC00
07FFFFFC00
07FFFFFE00
07FFFFFE00
0FFFFFFE00
0FFFFFFF00
0FE0007F00
1FE0007F00
1FE0007F80
1FC0003F80
3FC0003F80
3FC0003FC0
3F80001FC0
7F80001FE0
7F80001FE0
FF00001FE0
ENDCHAR
STARTCHAR 00C4
ENCODING 196
SWIDTH 666 0
DWIDTH 37 0
BBX 35 53 1 0
BITMAP
0000004000
00FC03F000
01FE07F800
01FE07F800
01FE07F800
01FE07F800
01FE07F800
00FC03F800
007801E000
0000000000
0000000000
0000000000
0000000000
0000000000
0003FC0000
0003FC0000
0007FC0000
0007FE0000
0007FE0000
000FFE0000
000FFF0000
000FFF0000
001FFF8000
001FFF8000
001FBF8000
003F9FC000
003F9FC000
007F1FC000
007F0FE000
007F0FE000
00FE0FE000
00FE07F000
00FE07F000
01FC07F000
01FC03F800
01FC03F800
03F803FC00
03FFFFFC00
07FFFFFC00
07FFFFFE00
07FFFFFE00
0FFFFFFE00
0FFFFFFF00
0FE0007F00
1FE0007F00
1FE0007F80
1FC0003F80
3FC0003F80
3FC0003FC0
3F80001FC0
7F80001FE0
7F80001FE0
FF00001FE0
ENDCHAR
STARTCHAR 00C5
ENCODING 197
SWIDTH 666 0
DWIDTH 37 0
BBX 35 54 1 0
BITMAP
0001F00000
0003F80000
0007FC0000
00079E0000
000F0E0000
000E0E0000
000F0E0000
00071E0000
0007FC0000
0003FC0000
0001F00000
0000000000
0000000000
0000000000
0000000000
0003FC0000
0003FC0000
0007FC0000
0007FE0000
0007FE0000
000FFE0000
000FFF0000
000FFF0000
001FFF8000
001FFF8000
001FBF8000
003F9FC000
003F9FC000
007F1FC000
007F0FE000
007F0FE000
00FE0FE000
00FE07F000
00FE07F000
01FC07F000
01FC03F800
01FC03F800
03F803FC00
03FFFFFC00
07FFFFFC00
07FFFFFE00
07FFFFFE00
0FFFFFFE00
0FFFFFFF00
0FE0007F00
1FE0007F00
1FE0007F80
1FC0003F80
3FC0003F80
3FC0003FC0
3F80001FC0
7F80001FE0
7F80001FE0
FF00001FE0
ENDCHAR
STARTCHAR 00C6
ENCODING 198
SWIDTH 954 0
DWIDTH 53 0
BBX 50 39 1 0
BITMAP
00003FFFFFFFC0
00003FFFFFFFC0
00007FFFFFFFC0
00007FFFFFFFC0
0000FFFFFFFFC0
0000FFFFFFFFC0
0001FFFFFFFFC0
0001FFFF000000
0003FEFF000000
0003FEFF000000
0007FCFF000000
0007FCFF000000
000FF8FF000000
000FF8FF000000
001FF0FF000000
001FF0FF000000
003FE0FFFFFE00
003FE0FFFFFE00
007FC0FFFFFE00
007FC0FFFFFE00
00FF80FFFFFE00
00FF80FFFFFE00
01FF00FF000000
01FFFFFF000000
03FFFFFF000000
03FFFFFF000000
07FFFFFF000000
07FFFFFF000000
07FFFFFF000000
0FF800FF000000
0FF000FF000000
1FF000FF000000
1FE000FFFFFFC0
3FE000FFFFFFC0
3FC000FFFFFFC0
7FC000FFFFFFC0
7F8000FFFFFFC0
FF8000FFFFFFC0
FF0000FFFFFFC0
ENDCHAR
STARTCHAR 00C7
ENCODING 199
SWIDTH 684 0
DWIDTH 38 0
BBX 35 54 2 -14
BITMAP
0001F00000
001FFF8000
007FFFE000
00FFFFF000
01FFFFF800
03FFFFFC00
07FFFFFE00
0FFE07FF00
1FF801FF80
1FF0007F80
3FE0007FC0
3FC0003FC0
3FC0001FC0
7F80001FE0
7F80000000
7F80000000
7F80000000
FF80000000
FF00000000
FF00000000
FF00000000
FF00000000
FF00000000
FF80000000
7F80000000
7F80000000
7F80000000
7FC0001FC0
3FC0003FC0
3FC0003FC0
3FE0007F80
1FF000FF80
1FF801FF00
0FFF0FFF00
07FFFFFE00
03FFFFFC00
01FFFFF800
00FFFFF000
003FFFC000
000FFF0000
0001E00000
0001E00000
0001F00000
0001FE0000
0003FF0000
0003FF8000
0000078000
0000078000
0000078000
00000F8000
0001FF8000
0001FF0000
0001FE0000
0000F80000
ENDCHAR
STARTCHAR 00C8
ENCODING 200
SWIDTH 558 0
DWIDTH 31 0
BBX 26 54 3 0
BITMAP
1FE00000
0FE00000
0FF00000
07F00000
03F80000
03F80000
01FC0000
00FC0000
00FE0000
007E0000
003F0000
00000000
00000000
00000000
00000000
FFFFFFC0
FFFFFFC0
FFFFFFC0
FFFFFFC0
FFFFFFC0
FFFFFFC0
FFFFFFC0
FF000000
FF000000
FF000000
FF000000
FF000000
FF000000
FF000000
FF000000
FF000000
FFFFFE00
FFFFFE00
FFFFFE00
FFFFFE00
FFFFFE00
FFFFFE00
FF000000
FF000000
FF000000
FF000000
FF000000
FF000000
FF000000
FF000000
FF000000
FF000000
FFFFFFC0
FFFFFFC0
FFFFFFC0
FFFFFFC0
FFFFFFC0
FFFFFFC0
FFFFFFC0
ENDCHAR
STARTCHAR 00C9
ENCODING 201
SWIDTH 558 0
DWIDTH 31 0
BBX 26 54 3 0
BITMAP
0001FE00
0001FC00
0003FC00
0003F800
0007F000
0007F000
000FE000
000FC000
001FC000
001F8000
003F0000
00000000
00000000
00000000
00000000
FFFFFFC0
FFFFFFC0
FFFFFFC0
FFFFFFC0
FFFFFFC0
FFFFFFC0
FFFFFFC0
FF000000
FF000000
FF000000
FF000000
FF000000
FF000000
FF000000
FF000000
FF000000
FFFFFE00
FFFFFE00
FFFFFE00
FFFFFE00
FFFFFE00
FFFFFE00
FF000000
FF000000
FF000000
FF000000
FF000000
FF000000
FF000000
FF000000
FF000000
FF000000
FFFFFFC0
FFFFFFC0
FFFFFFC0
FFFFFFC0
FFFFFFC0
FFFFFFC0
FFFFFFC0
ENDCHAR
STARTCHAR 00CA
ENCODING 202
SWIDTH 558 0
DWIDTH 31 0
BBX 26 51 3 0
BITMAP
007F8000
007F8000
00FFC000
01FFE000
03FFF000
07F3F800
0FE1FC00
1FC0FE00
3F807F00
00000000
00000000
00000000
FFFFFFC0
FFFFFFC0
FFFFFFC0
FFFFFFC0
FFFFFFC0
FFFFFFC0
FFFFFFC0
FF000000
FF000000
FF000000
FF000000
FF000000
FF000000
FF000000
FF000000
FF000000
FFFFFE00
FFFFFE00
FFFFFE00
FFFFFE00
FFFFFE00
FFFFFE00
FF000000
FF000000
FF000000
FF000000
FF000000
FF000000
FF000000
FF000000
FF000000
FF000000
FFFFFFC0
FFFFFFC0
FFFFFFC0
FFFFFFC0
FFFFFFC0
FFFFFFC0
FFFFFFC0
ENDCHAR
STARTCHAR 00CB
ENCODING 203
SWIDTH 558 0
DWIDTH 31 0
BBX 26 53 3 0
BITMAP
02000000
1F803E00
1FC07F00
3FC0FF00
3FE0FF80
3FC0FF80
3FC0FF00
1FC07F00
0F003E00
00000000
00000000
00000000
00000000
00000000
FFFFFFC0
FFFFFFC0
FFFFFFC0
FFFFFFC0
FFFFFFC0
FFFFFFC0
FFFFFFC0
FF000000
FF000000
FF000000
FF000000
FF000000
FF000000
FF000000
FF000000
FF000000
FFFFFE00
FFFFFE00
FFFFFE00
FFFFFE00
FFFFFE00
FFFFFE00
FF000000
FF000000
FF000000
FF000000
FF000000
FF000000
FF000000
FF000000
FF000000
FF000000
FFFFFFC0
FFFFFFC0
FFFFFFC0
FFFFFFC0
FFFFFFC0
FFFFFFC0
FFFFFFC0
ENDCHAR
STARTCHAR 00CC
ENCODING 204
SWIDTH 252 0
DWIDTH 14 0
BBX 14 54 -3 0
BITMAP
FF00
7F80
3F80
3FC0
1FC0
0FE0
0FE0
07F0
03F0
03F8
01F8
0000
0000
0000
0000
01FC
01FC
01FC
01FC
01FC
01FC
01FC
01FC
01FC
01FC
01FC
01FC
01FC
01FC
01FC
01FC
01FC
01FC
01FC
01FC
01FC
01FC
01FC
01FC
01FC
01FC
01FC
01FC
01FC
01FC
01FC
01FC
01FC
01FC
01FC
01FC
01FC
01FC
01FC
ENDCHAR
STARTCHAR 00CD
ENCODING 205
SWIDTH 252 0
DWIDTH 14 0
BBX 13 54 4 0
BITMAP
03F8
07F8
07F0
0FE0
0FE0
1FC0
1FC0
3F80
3F00
7F00
7E00
0000
0000
0000
0000
FE00
FE00
FE00
FE00
FE00
FE00
FE00
FE00
FE00
FE00
FE00
FE00
FE00
FE00
FE00
FE00
FE00
FE00
FE00
FE00
FE00
FE00
FE00
FE00
FE00
FE00
FE00
FE00
FE00
FE00
FE00
FE00
FE00
FE00
FE00
FE00
FE00
FE00
FE00
ENDCHAR
STARTCHAR 00CE
ENCODING 206
SWIDTH 252 0
DWIDTH 14 0
BBX 21 51 -3 0
BITMAP
01FC00
03FE00
07FF00
0FFF80
1FDFC0
3F9FE0
3F8FE0
7F07F0
FE03F8
000000
000000
000000
01FC00
01FC00
01FC00
01FC00
01FC00
01FC00
01FC00
01FC00
01FC00
01FC00
01FC00
01FC00
01FC00
01FC00
01FC00
01FC00
01FC00
01FC00
01FC00
01FC00
01FC00
01FC00
01FC00
01FC00
01FC00
01FC00
01FC00
01FC00
01FC00
01FC00
01FC00
01FC00
01FC00
01FC00
01FC00
01FC00
01FC00
01FC00
01FC00
ENDCHAR
STARTCHAR 00CF
ENCODING 207
SWIDTH 252 0
DWIDTH 14 0
BBX 23 52 -4 1
BITMAP
3F00FC
7F01FE
7F81FE
FF81FE
7F81FE
7F81FE
7F00FC
1E0078
000000
000000
000000
000000
000000
00FE00
00FE00
00FE00
00FE00
00FE00
00FE00
00FE00
00FE00
00FE00
00FE00
00FE00
00FE00
00FE00
00FE00
00FE00
00FE00
00FE00
00FE00
00FE00
00FE00
00FE00
00FE00
00FE00
00FE00
00FE00
00FE00
00FE00
00FE00
00FE00
00FE00
00FE00
00FE00
00FE00
00FE00
00FE00
00FE00
00FE00
00FE00
00FE00
ENDCHAR
STARTCHAR 00D0
ENCODING 208
SWIDTH 702 0
DWIDTH 39 0
BBX 35 39 2 0
BITMAP
1FFFFC0000
1FFFFF8000
1FFFFFE000
1FFFFFF800
1FFFFFFC00
1FFFFFFE00
1FFFFFFF00
1FC00FFF00
1FC001FF80
1FC000FF80
1FC0007FC0
1FC0007FC0
1FC0003FC0
1FC0003FE0
1FC0001FE0
1FC0001FE0
1FC0001FE0
FFFF001FE0
FFFF001FE0
FFFF001FE0
FFFF001FE0
FFFF001FE0
1FC0001FE0
1FC0001FE0
1FC0001FE0
1FC0003FE0
1FC0003FC0
1FC0007FC0
1FC0007FC0
1FC000FF80
1FC003FF80
1FC00FFF00
1FFFFFFF00
1FFFFFFE00
1FFFFFFC00
1FFFFFF800
1FFFFFE000
1FFFFF8000
1FFFFC0000
ENDCHAR
STARTCHAR 00D1
ENCODING 209
SWIDTH 684 0
DWIDTH 38 0
BBX 33 51 3 0
BITMAP
003F078000
007FC78000
00FFFF8000
00FFFF8000
00FFFF8000
00F1FF0000
00F07E0000
0000000000
0000000000
0000000000
0000000000
0000000000
FF80007F80
FFC0007F80
FFE0007F80
FFE0007F80
FFF0007F80
FFF0007F80
FFF8007F80
FFF8007F80
FFFC007F80
FFFE007F80
FFFE007F80
FFFF007F80
FFFF007F80
FFFF807F80
FF7FC07F80
FF3FC07F80
FF3FE07F80
FF1FE07F80
FF1FF07F80
FF0FF87F80
FF07F87F80
FF07FC7F80
FF03FC7F80
FF03FE7F80
FF01FE7F80
FF00FF7F80
FF00FFFF80
FF007FFF80
FF007FFF80
FF003FFF80
FF001FFF80
FF001FFF80
FF000FFF80
FF000FFF80
FF0007FF80
FF0003FF80
FF0003FF80
FF0001FF80
FF0001FF80
ENDCHAR
STARTCHAR 00D2
ENCODING 210
SWIDTH 720 0
DWIDTH 40 0
BBX 36 54 2 0
BITMAP
00FF000000
007F000000
007F800000
003F800000
001FC00000
001FC00000
000FE00000
0007E00000
0007F00000
0003F00000
0001F80000
0000000000
0000000000
0000000000
0001F80000
001FFF8000
007FFFE000
00FFFFF000
01FFFFFC00
03FFFFFE00
07FFFFFF00
0FFF0FFF00
1FFC01FF80
1FF000FF80
3FE0007FC0
3FE0007FC0
7FC0003FE0
7FC0003FE0
7F80001FE0
7F80001FE0
7F80001FF0
FF80001FF0
FF80000FF0
FF00000FF0
FF00000FF0
FF00000FF0
FF80000FF0
FF80001FF0
7F80001FF0
7F80001FE0
7F80001FE0
7FC0003FE0
7FC0003FE0
3FE0007FC0
3FE0007FC0
1FF000FF80
1FFC03FF80
0FFFDFFF00
07FFFFFE00
03FFFFFE00
01FFFFFC00
00FFFFF000
007FFFE000
000FFF0000
ENDCHAR
STARTCHAR 00D3
ENCODING 211
SWIDTH 720 0
DWIDTH 40 0
BBX 36 54 2 0
BITMAP
000007F000
00000FE000
00001FE000
00001FC000
00003F8000
00003F8000
00007F0000
00007F0000
0000FE0000
0000FC0000
0001FC0000
0000000000
0000000000
0000000000
0001F80000
001FFF8000
007FFFE000
00FFFFF000
01FFFFFC00
03FFFFFE00
07FFFFFF00
0FFF0FFF00
1FFC01FF80
1FF000FF80
3FE0007FC0
3FE0007FC0
7FC0003FE0
7FC0003FE0
7F80001FE0
7F80001FE0
7F80001FF0
FF80001FF0
FF80000FF0
FF00000FF0
FF00000FF0
FF00000FF0
FF80000FF0
FF80001FF0
7F80001FF0
7F80001FE0
7F80001FE0
7FC0003FE0
7FC0003FE0
3FE0007FC0
3FE0007FC0
1FF000FF80
1FFC03FF80
0FFFDFFF00
07FFFFFE00
03FFFFFE00
01FFFFFC00
00FFFFF000
007FFFE000
000FFF0000
ENDCHAR
STARTCHAR 00D4
ENCODING 212
SWIDTH 720 0
DWIDTH 40 0
BBX 36 51 2 0
BITMAP
0001FC0000
0003FE0000
0007FF0000
000FFF0000
001FFF8000
003F9FC000
007F0FE000
00FE07F000
01FC03F800
0000000000
0000000000
0001F80000
001FFF8000
007FFFE000
00FFFFF000
01FFFFFC00
03FFFFFE00
07FFFFFF00
0FFF0FFF00
1FFC01FF80
1FF000FF80
3FE0007FC0
3FE0007FC0
7FC0003FE0
7FC0003FE0
7F80001FE0
7F80001FE0
7F80001FF0
FF80001FF0
FF80000FF0
FF00000FF0
FF00000FF0
FF00000FF0
FF80000FF0
FF80001FF0
7F80001FF0
7F80001FE0
7F80001FE0
7FC0003FE0
7FC0003FE0
3FE0007FC0
3FE0007FC0
1FF000FF80
1FFC03FF80
0FFFDFFF00
07FFFFFE00
03FFFFFE00
01FFFFFC00
00FFFFF000
007FFFE000
000FFF0000
ENDCHAR
STARTCHAR 00D5
ENCODING 213
SWIDTH 720 0
DWIDTH 40 0
BBX 36 51 2 0
BITMAP
000F81E000
001FE1E000
003FFFE000
003FFFE000
007FFFC000
00787FC000
00781F0000
0000000000
0000000000
0000000000
0000000000
0001F80000
001FFF8000
007FFFE000
00FFFFF000
01FFFFFC00
03FFFFFE00
07FFFFFF00
0FFF0FFF00
1FFC01FF80
1FF000FF80
3FE0007FC0
3FE0007FC0
7FC0003FE0
7FC0003FE0
7F80001FE0
7F80001FE0
7F80001FF0
FF80001FF0
FF80000FF0
FF00000FF0
FF00000FF0
FF00000FF0
FF80000FF0
FF80001FF0
7F80001FF0
7F80001FE0
7F80001FE0
7FC0003FE0
7FC0003FE0
3FE0007FC0
3FE0007FC0
1FF000FF80
1FFC03FF80
0FFFDFFF00
07FFFFFE00
03FFFFFE00
01FFFFFC00
00FFFFF000
007FFFE000
000FFF0000
ENDCHAR
STARTCHAR 00D6
ENCODING 214
SWIDTH 720 0
DWIDTH 40 0
BBX 36 53 2 0
BITMAP
0010004000
007C01F000
00FE03F800
01FF07FC00
01FF07FC00
01FF07FC00
00FE03FC00
00FE03F800
007C01F000
0000000000
0000000000
0000000000
0000000000
0001F80000
001FFF8000
007FFFE000
00FFFFF000
01FFFFFC00
03FFFFFE00
07FFFFFF00
0FFF0FFF00
1FFC01FF80
1FF000FF80
3FE0007FC0
3FE0007FC0
7FC0003FE0
7FC0003FE0
7F80001FE0
7F80001FE0
7F80001FF0
FF80001FF0
FF80000FF0
FF00000FF0
FF00000FF0
FF00000FF0
FF80000FF0
FF80001FF0
7F80001FF0
7F80001FE0
7F80001FE0
7FC0003FE0
7FC0003FE0
3FE0007FC0
3FE0007FC0
1FF000FF80
1FFC03FF80
0FFFDFFF00
07FFFFFE00
03FFFFFE00
01FFFFFC00
00FFFFF000
007FFFE000
000FFF0000
ENDCHAR
STARTCHAR 00D7
ENCODING 215
SWIDTH 576 0
DWIDTH 32 0
BBX 21 21 6 7
BITMAP
080080
1C01C0
3E03E0
7F07F0
FF8FF8
FFDFF0
7FFFE0
3FFFC0
1FFF80
0FFF00
07FE00
07FF00
0FFF80
1FFFC0
3FFFE0
7FFFF0
FF9FF8
FF0FF0
7E07E0
3C03C0
180180
ENDCHAR
STARTCHAR 00D8
ENCODING 216
SWIDTH 738 0
DWIDTH 41 0
BBX 35 43 3 -2
BITMAP
0000000FE0
0001E01FC0
001FFF3F80
007FFFFF80
01FFFFFF00
03FFFFFE00
07FFFFFE00
0FFFFFFE00
1FFF0FFF00
1FF803FF00
3FF007FF80
3FE007FF80
7FC00FFFC0
7FC01FFFC0
7F801FFFC0
FF803FBFE0
FF007F1FE0
FF007F1FE0
FF00FE1FE0
FF01FC1FE0
FF01FC1FE0
FF03F81FE0
FF07F01FE0
FF07F01FE0
FF0FE01FE0
FF1FE01FE0
FF1FC01FE0
FFBF803FE0
7FBF803FC0
7FFF007FC0
7FFE007FC0
3FFE00FF80
3FFC01FF80
1FF803FF00
1FFFBFFF00
0FFFFFFE00
0FFFFFFC00
0FFFFFF800
1FFFFFF000
1FFFFFC000
3F9FFF0000
7F00000000
7F00000000
ENDCHAR
STARTCHAR 00D9
ENCODING 217
SWIDTH 684 0
DWIDTH 38 0
BBX 32 55 3 -1
BITMAP
03FC0000
01FC0000
01FE0000
00FE0000
007F0000
007F0000
003F8000
001F8000
001FC000
000FC000
0007E000
00000000
00000000
00000000
00000000
FF0000FF
FF0000FF
FF0000FF
FF0000FF
FF0000FF
FF0000FF
FF0000FF
FF0000FF
FF0000FF
FF0000FF
FF0000FF
FF0000FF
FF0000FF
FF0000FF
FF0000FF
FF0000FF
FF0000FF
FF0000FF
FF0000FF
FF0000FF
FF0000FF
FF0000FF
FF0000FF
FF0000FF
FF0000FF
FF0000FF
FF0000FF
7F8001FE
7F8001FE
7FC003FE
7FE007FE
3FF00FFC
3FFFFFFC
1FFFFFF8
0FFFFFF0
07FFFFE0
03FFFFC0
01FFFF80
003FFC00
00018000
ENDCHAR
STARTCHAR 00DA
ENCODING 218
SWIDTH 684 0
DWIDTH 38 0
BBX 32 55 3 -1
BITMAP
00003FC0
00003F80
00007F80
00007F00
0000FE00
0000FE00
0001FC00
0001F800
0003F800
0003F000
0007E000
00000000
00000000
00000000
00000000
FF0000FF
FF0000FF
FF0000FF
FF0000FF
FF0000FF
FF0000FF
FF0000FF
FF0000FF
FF0000FF
FF0000FF
FF0000FF
FF0000FF
FF0000FF
FF0000FF
FF0000FF
FF0000FF
FF0000FF
FF0000FF
FF0000FF
FF0000FF
FF0000FF
FF0000FF
FF0000FF
FF0000FF
FF0000FF
FF0000FF
FF0000FF
7F8001FE
7F8001FE
7FC003FE
7FE007FE
3FF00FFC
3FFFFFFC
1FFFFFF8
0FFFFFF0
07FFFFE0
03FFFFC0
01FFFF80
003FFC00
00018000
ENDCHAR
STARTCHAR 00DB
ENCODING 219
SWIDTH 684 0
DWIDTH 38 0
BBX 32 52 3 -1
BITMAP
0007F000
000FF000
001FF800
003FFC00
007FFE00
00FE7F00
01FC3F80
03F81FC0
07F00FE0
00000000
00000000
00000000
FF0000FF
FF0000FF
FF0000FF
FF0000FF
FF0000FF
FF0000FF
FF0000FF
FF0000FF
FF0000FF
FF0000FF
FF0000FF
FF0000FF
FF0000FF
FF0000FF
FF0000FF
FF0000FF
FF0000FF
FF0000FF
FF0000FF
FF0000FF
FF0000FF
FF0000FF
FF0000FF
FF0000FF
FF0000FF
FF0000FF
FF0000FF
7F8001FE
7F8001FE
7FC003FE
7FE007FE
3FF00FFC
3FFFFFFC
1FFFFFF8
0FFFFFF0
07FFFFE0
03FFFFC0
01FFFF80
003FFC00
00018000
ENDCHAR
STARTCHAR 00DC
ENCODING 220
SWIDTH 684 0
DWIDTH 38 0
BBX 32 54 3 -1
BITMAP
00000100
03F007C0
03F80FE0
07F81FF0
07FC1FF0
07FC1FF0
07F80FE0
03F80FE0
01F007C0
00000000
00000000
00000000
00000000
00000000
FF0000FF
FF0000FF
FF0000FF
FF0000FF
FF0000FF
FF0000FF
FF0000FF
FF0000FF
FF0000FF
FF0000FF
FF0000FF
FF0000FF
FF0000FF
FF0000FF
FF0000FF
FF0000FF
FF0000FF
FF0000FF
FF0000FF
FF0000FF
FF0000FF
FF0000FF
FF0000FF
FF0000FF
FF0000FF
FF0000FF
FF0000FF
7F8001FE
7F8001FE
7FC003FE
7FE007FE
3FF00FFC
3FFFFFFC
1FFFFFF8
0FFFFFF0
07FFFFE0
03FFFFC0
01FFFF80
003FFC00
00018000
ENDCHAR
STARTCHAR 00DD
ENCODING 221
SWIDTH 630 0
DWIDTH 35 0
BBX 32 54 2 0
BITMAP
00003FC0
00003F80
00007F80
00007F00
0000FE00
0000FE00
0001FC00
0001F800
0003F800
0003F000
0007E000
00000000
00000000
00000000
00000000
FF0000FF
FF0000FF
7F8001FE
7F8001FE
3FC003FC
3FC003FC
1FE007F8
1FE007F8
0FE00FF0
0FF00FF0
07F00FE0
07F81FE0
03F81FC0
03FC3FC0
01FC3F80
01FE7F80
00FE7F00
00FFFF00
007FFE00
007FFE00
003FFC00
003FFC00
001FF800
001FF800
000FF000
000FF000
000FF000
000FF000
000FF000
000FF000
000FF000
000FF000
000FF000
000FF000
000FF000
000FF000
000FF000
000FF000
000FF000
ENDCHAR
STARTCHAR 00DE
ENCODING 222
SWIDTH 594 0
DWIDTH 33 0
BBX 29 39 3 0
BITMAP
FF000000
FF000000
FF000000
FF000000
FF000000
FF000000
FFFF8000
FFFFF800
FFFFFE00
FFFFFF00
FFFFFF80
FFFFFFC0
FFFFFFE0
FF007FE0
FF001FF0
FF000FF0
FF0007F0
FF0007F0
FF0007F8
FF0007F8
FF0007F8
FF0007F0
FF0007F0
FF000FF0
FF001FF0
FF003FE0
FFFFFFE0
FFFFFFC0
FFFFFFC0
FFFFFF80
FFFFFE00
FFFFF800
FFFF8000
FF000000
FF000000
FF000000
FF000000
FF000000
FF000000
ENDCHAR
STARTCHAR 00DF
ENCODING 223
SWIDTH 594 0
DWIDTH 33 0
BBX 27 41 3 -1
BITMAP
007F8000
03FFF000
07FFFC00
1FFFFE00
1FFFFF00
3FFFFF80
7FF0FFC0
7F803FC0
7F801FC0
7F001FC0
FF001FC0
FF001FC0
FF001FC0
FF001FC0
FF003FC0
FF007F80
FF3FFF80
FF3FFF00
FF3FFC00
FF3FF800
FF3FFE00
FF3FFF00
FF007F80
FF001FC0
FF000FE0
FF000FE0
FF000FE0
FF000FE0
FF000FE0
FF000FE0
FF000FE0
FF001FE0
FF003FE0
FF007FC0
FF1FFFC0
FF1FFF80
FF1FFF80
FF1FFF00
FF1FFC00
FF1FF000
00020000
ENDCHAR
STARTCHAR 00E0
ENCODING 224
SWIDTH 612 0
DWIDTH 34 0
BBX 29 44 2 0
BITMAP
07F80000
03F80000
01FC0000
01FC0000
00FE0000
007E0000
007F0000
003F0000
001F8000
001FC000
00000000
00000000
00000000
00000000
00FE0000
03FF87F8
07FFE7F8
0FFFE7F8
1FFFF7F8
3FFFFFF8
3FF0FFF8
7FE03FF8
7FC01FF8
7F800FF8
FF800FF8
FF0007F8
FF0007F8
FF0007F8
FF0007F8
FF0007F8
FF0007F8
FF0007F8
FF0007F8
FF000FF8
7F800FF8
7F801FF8
7FC01FF8
7FE07FF8
3FFFFFF8
3FFFF7F8
1FFFF7F8
0FFFE7F8
07FFC7F8
01FF07F8
ENDCHAR
STARTCHAR 00E1
ENCODING 225
SWIDTH 612 0
DWIDTH 34 0
BBX 29 44 2 0
BITMAP
00007F80
00007F00
0000FE00
0000FE00
0001FC00
0001FC00
0003F800
0003F000
0007F000
0007E000
0001C000
00000000
00000000
00000000
00FE0000
03FF87F8
07FFE7F8
0FFFE7F8
1FFFF7F8
3FFFFFF8
3FF0FFF8
7FE03FF8
7FC01FF8
7F800FF8
FF800FF8
FF0007F8
FF0007F8
FF0007F8
FF0007F8
FF0007F8
FF0007F8
FF0007F8
FF0007F8
FF000FF8
7F800FF8
7F801FF8
7FC01FF8
7FE07FF8
3FFFFFF8
3FFFF7F8
1FFFF7F8
0FFFE7F8
07FFC7F8
01FF07F8
ENDCHAR
STARTCHAR 00E2
ENCODING 226
SWIDTH 612 0
DWIDTH 34 0
BBX 29 42 2 0
BITMAP
000FC000
001FE000
003FF000
007FF800
00FFFC00
00FEFE00
01FCFF00
03F87F00
07F03F80
00000000
00000000
00000000
00FE0000
03FF87F8
07FFE7F8
0FFFE7F8
1FFFF7F8
3FFFFFF8
3FF0FFF8
7FE03FF8
7FC01FF8
7F800FF8
FF800FF8
FF0007F8
FF0007F8
FF0007F8
FF0007F8
FF0007F8
FF0007F8
FF0007F8
FF0007F8
FF000FF8
7F800FF8
7F801FF8
7FC01FF8
7FE07FF8
3FFFFFF8
3FFFF7F8
1FFFF7F8
0FFFE7F8
07FFC7F8
01FF07F8
ENDCHAR
STARTCHAR 00E3
ENCODING 227
SWIDTH 612 0
DWIDTH 34 0
BBX 29 42 2 0
BITMAP
00000F00
00FE0F00
01FF8F00
01FFFF00
03FFFE00
03EFFE00
03C3FC00
03C07000
00000000
00000000
00000000
00000000
00FE0000
03FF87F8
07FFE7F8
0FFFE7F8
1FFFF7F8
3FFFFFF8
3FF0FFF8
7FE03FF8
7FC01FF8
7F800FF8
FF800FF8
FF0007F8
FF0007F8
FF0007F8
FF0007F8
FF0007F8
FF0007F8
FF0007F8
FF0007F8
FF000FF8
7F800FF8
7F801FF8
7FC01FF8
7FE07FF8
3FFFFFF8
3FFFF7F8
1FFFF7F8
0FFFE7F8
07FFC7F8
01FF07F8
ENDCHAR
STARTCHAR 00E4
ENCODING 228
SWIDTH 612 0
DWIDTH 34 0
BBX 29 43 2 0
BITMAP
03C00700
07F01FC0
0FF01FC0
0FF83FE0
0FF83FE0
0FF83FE0
07F01FC0
07E00F80
00800700
00000000
00000000
00000000
00000000
00FE0000
03FF87F8
07FFE7F8
0FFFE7F8
1FFFF7F8
3FFFFFF8
3FF0FFF8
7FE03FF8
7FC01FF8
7F800FF8
FF800FF8
FF0007F8
FF0007F8
FF0007F8
FF0007F8
FF0007F8
FF0007F8
FF0007F8
FF0007F8
FF000FF8
7F800FF8
7F801FF8
7FC01FF8
7FE07FF8
3FFFFFF8
3FFFF7F8
1FFFF7F8
0FFFE7F8
07FFC7F8
01FF07F8
ENDCHAR
STARTCHAR 00E5
ENCODING 229
SWIDTH 612 0
DWIDTH 34 0
BBX 29 44 2 0
BITMAP
000FC000
001FE000
003FF000
00387000
00387800
00387800
00387000
003FF000
001FE000
000FC000
00030000
00000000
00000000
00000000
00FE0000
03FF87F8
07FFE7F8
0FFFE7F8
1FFFF7F8
3FFFFFF8
3FF0FFF8
7FE03FF8
7FC01FF8
7F800FF8
FF800FF8
FF0007F8
FF0007F8
FF0007F8
FF0007F8
FF0007F8
FF0007F8
FF0007F8
FF0007F8
FF000FF8
7F800FF8
7F801FF8
7FC01FF8
7FE07FF8
3FFFFFF8
3FFFF7F8
1FFFF7F8
0FFFE7F8
07FFC7F8
01FF07F8
ENDCHAR
STARTCHAR 00E6
ENCODING 230
SWIDTH 900 0
DWIDTH 50 0
BBX 46 30 2 0
BITMAP
007F8007F800
01FFE01FFF00
07FFF87FFF80
0FFFFCFFFFC0
1FFFFFFFFFE0
1FFFFFFFFFF0
3FE0FFFC0FF0
3FC03FF807F8
7F803FF003F8
7F001FE003FC
00001FE001FC
00001FE001FC
00001FC001FC
00FFFFFFFFFC
07FFFFFFFFFC
1FFFFFFFFFFC
3FFFFFFFFFFC
7FF81FC00000
7F801FC00000
7F001FC00000
FF001FE00000
FF003FE003FC
FF003FF007F8
7F807FF80FF8
7FC1FFFFFFF0
7FFFFBFFFFF0
3FFFF1FFFFE0
1FFFE0FFFFC0
0FFFC03FFF00
03FF000FFC00
ENDCHAR
STARTCHAR 00E7
ENCODING 231
SWIDTH 558 0
DWIDTH 31 0
BBX 28 44 2 -14
BITMAP
003FE000
00FFF800
03FFFE00
07FFFF00
0FFFFF80
1FFFFF80
3FF0FFC0
3FE03FE0
7FC01FE0
7F800FE0
7F800FF0
7F000FF0
FF000000
FF000000
FF000000
FF000000
FF000000
FF000000
7F000000
7F000FF0
7F800FE0
7F801FE0
3FC01FE0
3FE07FC0
1FFFFFC0
1FFFFF80
0FFFFF00
07FFFE00
01FFFC00
007FF000
000F0000
000F0000
000FE000
001FF000
001FF800
001FFC00
00003C00
00003C00
00003C00
001CFC00
001FF800
001FF800
001FE000
00030000
ENDCHAR
STARTCHAR 00E8
ENCODING 232
SWIDTH 576 0
DWIDTH 32 0
BBX 28 44 2 0
BITMAP
07F00000
07F80000
03F80000
01FC0000
01FC0000
00FE0000
007E0000
007F0000
003F0000
001F8000
00000000
00000000
00000000
00000000
003FE000
00FFF800
03FFFE00
07FFFF00
0FFFFF80
1FFFFF80
3FE03FC0
3FC01FC0
7F801FE0
7F000FE0
7F000FE0
7F000FE0
FFFFFFF0
FFFFFFF0
FFFFFFF0
FFFFFFF0
FFFFFFF0
FF000000
7F000000
7F000000
7F000000
7F801FE0
3FC01FE0
3FE07FC0
1FFFFFC0
1FFFFF80
0FFFFF00
07FFFE00
01FFFC00
007FF000
ENDCHAR
STARTCHAR 00E9
ENCODING 233
SWIDTH 576 0
DWIDTH 32 0
BBX 28 44 2 0
BITMAP
00007F00
0000FE00
0001FE00
0001FC00
0003F800
0003F800
0007F000
0007E000
000FE000
000FC000
0001C000
00000000
00000000
00000000
003FE000
00FFF800
03FFFE00
07FFFF00
0FFFFF80
1FFFFF80
3FE03FC0
3FC01FC0
7F801FE0
7F000FE0
7F000FE0
7F000FE0
FFFFFFF0
FFFFFFF0
FFFFFFF0
FFFFFFF0
FFFFFFF0
FF000000
7F000000
7F000000
7F000000
7F801FE0
3FC01FE0
3FE07FC0
1FFFFFC0
1FFFFF80
0FFFFF00
07FFFE00
01FFFC00
007FF000
ENDCHAR
STARTCHAR 00EA
ENCODING 234
SWIDTH 576 0
DWIDTH 32 0
BBX 28 42 2 0
BITMAP
001F8000
003FC000
003FE000
007FF000
00FFF800
01FDFC00
03F8FE00
07F07F00
0FE03F80
00000000
00000000
00000000
003FE000
00FFF800
03FFFE00
07FFFF00
0FFFFF80
1FFFFF80
3FE03FC0
3FC01FC0
7F801FE0
7F000FE0
7F000FE0
7F000FE0
FFFFFFF0
FFFFFFF0
FFFFFFF0
FFFFFFF0
FFFFFFF0
FF000000
7F000000
7F000000
7F000000
7F801FE0
3FC01FE0
3FE07FC0
1FFFFFC0
1FFFFF80
0FFFFF00
07FFFE00
01FFFC00
007FF000
ENDCHAR
STARTCHAR 00EB
ENCODING 235
SWIDTH 576 0
DWIDTH 32 0
BBX 28 43 2 0
BITMAP
03C00F00
0FE01F80
0FF03FC0
1FF03FC0
1FF03FC0
0FF03FC0
0FE03F80
07E01F80
01000400
00000000
00000000
00000000
00000000
003FE000
00FFF800
03FFFE00
07FFFF00
0FFFFF80
1FFFFF80
3FE03FC0
3FC01FC0
7F801FE0
7F000FE0
7F000FE0
7F000FE0
FFFFFFF0
FFFFFFF0
FFFFFFF0
FFFFFFF0
FFFFFFF0
FF000000
7F000000
7F000000
7F000000
7F801FE0
3FC01FE0
3FE07FC0
1FFFFFC0
1FFFFF80
0FFFFF00
07FFFE00
01FFFC00
007FF000
ENDCHAR
STARTCHAR 00EC
ENCODING 236
SWIDTH 270 0
DWIDTH 15 0
BBX 14 44 -2 0
BITMAP
FF00
7F00
7F80
3F80
1FC0
1FC0
0FE0
07E0
07F0
03F0
0000
0000
0000
0000
0000
03FC
03FC
03FC
03FC
03FC
03FC
03FC
03FC
03FC
03FC
03FC
03FC
03FC
03FC
03FC
03FC
03FC
03FC
03FC
03FC
03FC
03FC
03FC
03FC
03FC
03FC
03FC
03FC
03FC
ENDCHAR
STARTCHAR 00ED
ENCODING 237
SWIDTH 270 0
DWIDTH 15 0
BBX 14 44 4 0
BITMAP
03FC
03F8
07F0
07F0
0FE0
0FC0
1FC0
3F80
3F00
7F00
0E00
0000
0000
0000
0000
FF00
FF00
FF00
FF00
FF00
FF00
FF00
FF00
FF00
FF00
FF00
FF00
FF00
FF00
FF00
FF00
FF00
FF00
FF00
FF00
FF00
FF00
FF00
FF00
FF00
FF00
FF00
FF00
FF00
ENDCHAR
STARTCHAR 00EE
ENCODING 238
SWIDTH 270 0
DWIDTH 15 0
BBX 20 42 -2 0
BITMAP
01F800
03FC00
07FE00
0FFF00
1FFF80
3FBFC0
3F9FC0
7F0FE0
FE07F0
000000
000000
000000
000000
03FC00
03FC00
03FC00
03FC00
03FC00
03FC00
03FC00
03FC00
03FC00
03FC00
03FC00
03FC00
03FC00
03FC00
03FC00
03FC00
03FC00
03FC00
03FC00
03FC00
03FC00
03FC00
03FC00
03FC00
03FC00
03FC00
03FC00
03FC00
03FC00
ENDCHAR
STARTCHAR 00EF
ENCODING 239
SWIDTH 270 0
DWIDTH 15 0
BBX 23 43 -3 0
BITMAP
3C00F0
7E01FC
FF03FC
FF03FE
FF83FE
FF03FC
7F01FC
7E01F8
080020
000000
000000
000000
000000
000000
01FE00
01FE00
01FE00
01FE00
01FE00
01FE00
01FE00
01FE00
01FE00
01FE00
01FE00
01FE00
01FE00
01FE00
01FE00
01FE00
01FE00
01FE00
01FE00
01FE00
01FE00
01FE00
01FE00
01FE00
01FE00
01FE00
01FE00
01FE00
01FE00
ENDCHAR
STARTCHAR 00F0
ENCODING 240
SWIDTH 594 0
DWIDTH 33 0
BBX 29 45 1 0
BITMAP
007F0020
007FC060
007FF1F0
007FFFF0
007FFFF0
003FFFC0
0003FF80
0003FFC0
000FFFC0
000FFFE0
00079FE0
00070FF0
00000FF0
000007F0
000007F8
007F07F8
03FFC7F8
07FFE7F8
0FFFF7F8
1FFFFFF8
3FFFFFF8
3FF07FF8
3FE01FF8
7FC01FF8
7F800FF8
7F800FF8
FF8007F8
FF0007F8
FF0007F8
FF0007F8
FF0007F8
FF0007F8
FF0007F8
7F0007F8
7F8007F0
7F800FF0
7FC00FF0
3FC01FE0
3FF03FE0
1FFFFFC0
0FFFFFC0
07FFFF80
03FFFF00
01FFFC00
007FF000
ENDCHAR
STARTCHAR 00F1
ENCODING 241
SWIDTH 594 0
DWIDTH 33 0
BBX 27 42 3 0
BITMAP
00001E00
01FC1E00
03FF3E00
07FFFC00
07FFFC00
07DFFC00
0787F800
0781E000
00000000
00000000
00000000
00000000
0007F800
FF1FFE00
FF3FFF00
FF7FFF80
FF7FFFC0
FFFFFFC0
FFF9FFC0
FFC07FE0
FF803FE0
FF801FE0
FF001FE0
FF000FE0
FF000FE0
FF000FE0
FF000FE0
FF000FE0
FF000FE0
FF000FE0
FF000FE0
FF000FE0
FF000FE0
FF000FE0
FF000FE0
FF000FE0
FF000FE0
FF000FE0
FF000FE0
FF000FE0
FF000FE0
FF000FE0
ENDCHAR
STARTCHAR 00F2
ENCODING 242
SWIDTH 576 0
DWIDTH 32 0
BBX 28 44 2 0
BITMAP
0FF00000
07F80000
03F80000
01FC0000
01FC0000
00FE0000
007E0000
007F0000
003F0000
001F8000
00000000
00000000
00000000
00000000
003FC000
00FFF800
03FFFE00
07FFFF00
0FFFFF80
1FFFFFC0
3FF0FFC0
3FE03FE0
7FC01FE0
7F800FE0
7F800FF0
7F000FF0
FF0007F0
FF0007F0
FF0007F0
FF0007F0
FF0007F0
FF0007F0
7F000FF0
7F000FF0
7F800FF0
7F801FE0
3FC03FE0
3FE07FC0
1FFFFFC0
1FFFFF80
0FFFFF00
07FFFE00
01FFFC00
007FF000
ENDCHAR
STARTCHAR 00F3
ENCODING 243
SWIDTH 576 0
DWIDTH 32 0
BBX 28 44 2 0
BITMAP
0000FF00
0000FE00
0001FE00
0001FC00
0003F800
0003F800
0007F000
0007E000
000FE000
000FC000
00038000
00000000
00000000
00000000
003FC000
00FFF800
03FFFE00
07FFFF00
0FFFFF80
1FFFFFC0
3FF0FFC0
3FE03FE0
7FC01FE0
7F800FE0
7F800FF0
7F000FF0
FF0007F0
FF0007F0
FF0007F0
FF0007F0
FF0007F0
FF0007F0
7F000FF0
7F000FF0
7F800FF0
7F801FE0
3FC03FE0
3FE07FC0
1FFFFFC0
1FFFFF80
0FFFFF00
07FFFE00
01FFFC00
007FF000
ENDCHAR
STARTCHAR 00F4
ENCODING 244
SWIDTH 576 0
DWIDTH 32 0
BBX 28 42 2 0
BITMAP
001F8000
003FC000
003FE000
007FF000
00FFF800
01FDFC00
03F8FE00
07F07F00
0FE03F80
00000000
00000000
00000000
003FC000
00FFF800
03FFFE00
07FFFF00
0FFFFF80
1FFFFFC0
3FF0FFC0
3FE03FE0
7FC01FE0
7F800FE0
7F800FF0
7F000FF0
FF0007F0
FF0007F0
FF0007F0
FF0007F0
FF0007F0
FF0007F0
7F000FF0
7F000FF0
7F800FF0
7F801FE0
3FC03FE0
3FE07FC0
1FFFFFC0
1FFFFF80
0FFFFF00
07FFFE00
01FFFC00
007FF000
ENDCHAR
STARTCHAR 00F5
ENCODING 245
SWIDTH 576 0
DWIDTH 32 0
BBX 28 42 2 0
BITMAP
00001E00
00FC1E00
01FF1E00
03FFFE00
03FFFE00
07DFFC00
0783F800
0780E000
00000000
00000000
00000000
00000000
003FC000
00FFF800
03FFFE00
07FFFF00
0FFFFF80
1FFFFFC0
3FF0FFC0
3FE03FE0
7FC01FE0
7F800FE0
7F800FF0
7F000FF0
FF0007F0
FF0007F0
FF0007F0
FF0007F0
FF0007F0
FF0007F0
7F000FF0
7F000FF0
7F800FF0
7F801FE0
3FC03FE0
3FE07FC0
1FFFFFC0
1FFFFF80
0FFFFF00
07FFFE00
01FFFC00
007FF000
ENDCHAR
STARTCHAR 00F6
ENCODING 246
SWIDTH 576 0
DWIDTH 32 0
BBX 28 43 2 0
BITMAP
03C00F00
0FE03F80
0FE03FC0
1FF07FC0
1FF07FC0
1FF03FC0
0FE03F80
07E01F80
01000400
00000000
00000000
00000000
00000000
003FC000
00FFF800
03FFFE00
07FFFF00
0FFFFF80
1FFFFFC0
3FF0FFC0
3FE03FE0
7FC01FE0
7F800FE0
7F800FF0
7F000FF0
FF0007F0
FF0007F0
FF0007F0
FF0007F0
FF0007F0
FF0007F0
7F000FF0
7F000FF0
7F800FF0
7F801FE0
3FC03FE0
3FE07FC0
1FFFFFC0
1FFFFF80
0FFFFF00
07FFFE00
01FFFC00
007FF000
ENDCHAR
STARTCHAR 00F7
ENCODING 247
SWIDTH 594 0
DWIDTH 33 0
BBX 24 31 4 2
BITMAP
001800
007E00
00FF00
00FF00
00FF00
00FF00
00FF00
007E00
003C00
000000
000000
000000
000000
FFFFFF
FFFFFF
FFFFFF
FFFFFF
FFFFFF
FFFFFF
000000
000000
000000
001000
007E00
00FF00
00FF00
00FF00
00FF00
00FF00
00FE00
003C00
ENDCHAR
STARTCHAR 00F8
ENCODING 248
SWIDTH 576 0
DWIDTH 32 0
BBX 28 34 2 -2
BITMAP
000007C0
00000FC0
003FEF80
01FFFF80
03FFFF00
07FFFF00
0FFFFF80
1FFFFFC0
3FF0FFC0
3FC0FFE0
7FC1FFE0
7F81FFE0
7F83FFF0
7F03EFF0
FF07C7F0
FF0FC7F0
FF0F87F0
FF1F87F0
FF1F07F0
FF3F0FF0
7F3E0FF0
7F7C0FF0
7FFC0FF0
7FF81FE0
3FF83FE0
3FF07FC0
1FFFFFC0
1FFFFF80
0FFFFF00
0FFFFE00
0FFFFC00
1FFFF000
1F000000
3F000000
ENDCHAR
STARTCHAR 00F9
ENCODING 249
SWIDTH 576 0
DWIDTH 32 0
BBX 27 45 3 -1
BITMAP
1FE00000
0FE00000
07F00000
07F00000
03F80000
01F80000
01FC0000
00FC0000
007E0000
007E0000
00000000
00000000
00000000
00000000
00000000
FF001FE0
FF001FE0
FF001FE0
FF001FE0
FF001FE0
FF001FE0
FF001FE0
FF001FE0
FF001FE0
FF001FE0
FF001FE0
FF001FE0
FF001FE0
FF001FE0
FF001FE0
FF001FE0
FF001FE0
FF001FE0
FF001FE0
FF001FE0
FF803FE0
7F807FE0
7FE0FFE0
7FFFFFE0
3FFFFFE0
3FFFDFE0
1FFF9FE0
0FFF1FE0
07FE1FE0
00300000
ENDCHAR
STARTCHAR 00FA
ENCODING 250
SWIDTH 576 0
DWIDTH 32 0
BBX 27 45 3 -1
BITMAP
0001FE00
0001FC00
0003F800
0003F800
0007F000
0007E000
000FE000
000FC000
001F8000
001F8000
00070000
00000000
00000000
00000000
00000000
FF001FE0
FF001FE0
FF001FE0
FF001FE0
FF001FE0
FF001FE0
FF001FE0
FF001FE0
FF001FE0
FF001FE0
FF001FE0
FF001FE0
FF001FE0
FF001FE0
FF001FE0
FF001FE0
FF001FE0
FF001FE0
FF001FE0
FF001FE0
FF803FE0
7F807FE0
7FE0FFE0
7FFFFFE0
3FFFFFE0
3FFFDFE0
1FFF9FE0
0FFF1FE0
07FE1FE0
00300000
ENDCHAR
STARTCHAR 00FB
ENCODING 251
SWIDTH 576 0
DWIDTH 32 0
BBX 27 43 3 -1
BITMAP
003F0000
007F8000
00FFC000
01FFE000
03FFF000
03F3F800
07F3FC00
0FE1FC00
1FC0FE00
00000000
00000000
00000000
00000000
FF001FE0
FF001FE0
FF001FE0
FF001FE0
FF001FE0
FF001FE0
FF001FE0
FF001FE0
FF001FE0
FF001FE0
FF001FE0
FF001FE0
FF001FE0
FF001FE0
FF001FE0
FF001FE0
FF001FE0
FF001FE0
FF001FE0
FF001FE0
FF803FE0
7F807FE0
7FE0FFE0
7FFFFFE0
3FFFFFE0
3FFFDFE0
1FFF9FE0
0FFF1FE0
07FE1FE0
00300000
ENDCHAR
STARTCHAR 00FC
ENCODING 252
SWIDTH 576 0
DWIDTH 32 0
BBX 27 44 3 -1
BITMAP
0F003C00
1FC07F00
3FC07F00
3FE0FF80
3FE0FF80
3FC0FF80
1FC07F00
1F803E00
02000800
00000000
00000000
00000000
00000000
00000000
FF001FE0
FF001FE0
FF001FE0
FF001FE0
FF001FE0
FF001FE0
FF001FE0
FF001FE0
FF001FE0
FF001FE0
FF001FE0
FF001FE0
FF001FE0
FF001FE0
FF001FE0
FF001FE0
FF001FE0
FF001FE0
FF001FE0
FF001FE0
FF803FE0
7F807FE0
7FE0FFE0
7FFFFFE0
3FFFFFE0
3FFFDFE0
1FFF9FE0
0FFF1FE0
07FE1FE0
00300000
ENDCHAR
STARTCHAR 00FD
ENCODING 253
SWIDTH 540 0
DWIDTH 30 0
BBX 29 56 1 -12
BITMAP
00007F00
0000FF00
0000FE00
0001FC00
0001FC00
0003F800
0003F000
0007F000
0007E000
000FC000
0001C000
00000000
00000000
00000000
00000000
FF0007F8
7F8007F0
7F800FF0
3F800FF0
3F800FE0
3FC01FE0
1FC01FC0
1FC01FC0
1FE03FC0
0FE03F80
0FE03F80
07F07F00
07F07F00
07F07F00
03F8FE00
03F8FE00
03F8FE00
01FDFC00
01FDFC00
01FDF800
00FFF800
00FFF800
007FF000
007FF000
007FE000
003FE000
003FE000
003FC000
001FC000
003FC000
003F8000
007F8000
007F0000
00FF0000
01FF0000
47FE0000
7FFE0000
7FFC0000
7FF80000
7FF00000
7FC00000
ENDCHAR
STARTCHAR 00FE
ENCODING 254
SWIDTH 612 0
DWIDTH 34 0
BBX 29 55 3 -13
BITMAP
FF000000
FF000000
FF000000
FF000000
FF000000
FF000000
FF000000
FF000000
FF000000
FF000000
FF000000
FF000000
FF07F800
FF1FFE00
FF3FFF00
FF7FFF80
FF7FFFC0
FFFFFFE0
FFF8FFE0
FFE03FF0
FFC01FF0
FF800FF0
FF800FF0
FF0007F8
FF0007F8
FF0007F8
FF0007F8
FF0007F8
FF0007F8
FF0007F8
FF0007F8
FF800FF8
FF800FF0
FF800FF0
FFC01FF0
FFE03FE0
FFFFFFE0
FF7FFFC0
FF7FFFC0
FF3FFF80
FF1FFF00
FF07FC00
FF000000
FF000000
FF000000
FF000000
FF000000
FF000000
FF000000
FF000000
FF000000
FF000000
FF000000
FF000000
FF000000
ENDCHAR
STARTCHAR 00FF
ENCODING 255
SWIDTH 540 0
DWIDTH 30 0
BBX 29 55 1 -12
BITMAP
03C00F00
07E01F80
0FF03FC0
0FF03FC0
0FF03FC0
0FF03FC0
0FE03FC0
07E01F80
01000400
00000000
00000000
00000000
00000000
00000000
FF0007F8
7F8007F0
7F800FF0
3F800FF0
3F800FE0
3FC01FE0
1FC01FC0
1FC01FC0
1FE03FC0
0FE03F80
0FE03F80
07F07F00
07F07F00
07F07F00
03F8FE00
03F8FE00
03F8FE00
01FDFC00
01FDFC00
01FDF800
00FFF800
00FFF800
007FF000
007FF000
007FE000
003FE000
003FE000
003FC000
001FC000
003FC000
003F8000
007F8000
007F0000
00FF0000
01FF0000
47FE0000
7FFE0000
7FFC0000
7FF80000
7FF00000
7FC00000
ENDCHAR
STARTCHAR 0100
ENCODING 256
SWIDTH 666 0
DWIDTH 37 0
BBX 35 47 1 0
BITMAP
007FFFE000
007FFFE000
007FFFE000
0000000000
0000000000
0000000000
0000000000
0000000000
0003FC0000
0003FC0000
0007FC0000
0007FE0000
0007FE0000
000FFE0000
000FFF0000
000FFF0000
001FFF8000
001FFF8000
001FBF8000
003F9FC000
003F9FC000
007F1FC000
007F0FE000
007F0FE000
00FE0FE000
00FE07F000
00FE07F000
01FC07F000
01FC03F800
01FC03F800
03F803FC00
03FFFFFC00
07FFFFFC00
07FFFFFE00
07FFFFFE00
0FFFFFFE00
0FFFFFFF00
0FE0007F00
1FE0007F00
1FE0007F80
1FC0003F80
3FC0003F80
3FC0003FC0
3F80001FC0
7F80001FE0
7F80001FE0
FF00001FE0
ENDCHAR
STARTCHAR 0101
ENCODING 257
SWIDTH 612 0
DWIDTH 34 0
BBX 29 38 2 0
BITMAP
03FFFF00
03FFFF00
03FFFF00
03FFFF00
00000000
00000000
00000000
00000000
00FE0000
03FF87F8
07FFE7F8
0FFFE7F8
1FFFF7F8
3FFFFFF8
3FF0FFF8
7FE03FF8
7FC01FF8
7F800FF8
FF800FF8
FF0007F8
FF0007F8
FF0007F8
FF0007F8
FF0007F8
FF0007F8
FF0007F8
FF0007F8
FF000FF8
7F800FF8
7F801FF8
7FC01FF8
7FE07FF8
3FFFFFF8
3FFFF7F8
1FFFF7F8
0FFFE7F8
07FFC7F8
01FF07F8
ENDCHAR
STARTCHAR 0102
ENCODING 258
SWIDTH 666 0
DWIDTH 37 0
BBX 35 50 1 0
BITMAP
00FC03F000
00FE07E000
007F1FE000
003FFFC000
001FFF8000
000FFE0000
0003F80000
0000000000
0000000000
0000000000
0000000000
0003FC0000
0003FC0000
0007FC0000
0007FE0000
0007FE0000
000FFE0000
000FFF0000
000FFF0000
001FFF8000
001FFF8000
001FBF8000
003F9FC000
003F9FC000
007F1FC000
007F0FE000
007F0FE000
00FE0FE000
00FE07F000
00FE07F000
01FC07F000
01FC03F800
01FC03F800
03F803FC00
03FFFFFC00
07FFFFFC00
07FFFFFE00
07FFFFFE00
0FFFFFFE00
0FFFFFFF00
0FE0007F00
1FE0007F00
1FE0007F80
1FC0003F80
3FC0003F80
3FC0003FC0
3F80001FC0
7F80001FE0
7F80001FE0
FF00001FE0
ENDCHAR
STARTCHAR 0103
ENCODING 259
SWIDTH 612 0
DWIDTH 34 0
BBX 29 40 2 0
BITMAP
07E01F80
03F03F00
03FFFF00
01FFFE00
00FFFC00
003FF000
00000000
00000000
00000000
00000000
00FE0000
03FF87F8
07FFE7F8
0FFFE7F8
1FFFF7F8
3FFFFFF8
3FF0FFF8
7FE03FF8
7FC01FF8
7F800FF8
FF800FF8
FF0007F8
FF0007F8
FF0007F8
FF0007F8
FF0007F8
FF0007F8
FF0007F8
FF0007F8
FF000FF8
7F800FF8
7F801FF8
7FC01FF8
7FE07FF8
3FFFFFF8
3FFFF7F8
1FFFF7F8
0FFFE7F8
07FFC7F8
01FF07F8
ENDCHAR
STARTCHAR 0104
ENCODING 260
SWIDTH 666 0
DWIDTH 37 0
BBX 36 49 1 -10
BITMAP
0003FC0000
0003FC0000
0007FC0000
0007FE0000
0007FE0000
000FFE0000
000FFF0000
000FFF0000
001FFF8000
001FFF8000
001FBF8000
003F9FC000
003F9FC000
007F1FC000
007F0FE000
007F0FE000
00FE0FE000
00FE07F000
00FE07F000
01FC07F000
01FC03F800
01FC03F800
03F803FC00
03FFFFFC00
07FFFFFC00
07FFFFFE00
07FFFFFE00
0FFFFFFE00
0FFFFFFF00
0FE0007F00
1FE0007F00
1FE0007F80
1FC0003F80
3FC0003F80
3FC0003FC0
3F80001FC0
7F80001FE0
7F80001FE0
FF00001FE0
0000001F80
0000003F00
0000003E00
0000003E00
0000003E00
0000003F10
0000003FF0
0000001FF0
0000000FF0
00000001E0
ENDCHAR
STARTCHAR 0105
ENCODING 261
SWIDTH 612 0
DWIDTH 34 0
BBX 31 40 2 -10
BITMAP
00FE0000
03FF87F8
07FFE7F8
0FFFE7F8
1FFFF7F8
3FFFFFF8
3FF0FFF8
7FE03FF8
7FC01FF8
7F800FF8
FF800FF8
FF0007F8
FF0007F8
FF0007F8
FF0007F8
FF0007F8
FF0007F8
FF0007F8
FF0007F8
FF000FF8
7F800FF8
7F801FF8
7FC01FF8
7FE07FF8
3FFFFFF8
3FFFF7F8
1FFFF7F8
0FFFE7F8
07FFC7F8
01FF07F8
000003F0
000007E0
000007C0
000007C0
000007C0
000007E2
000007FE
000003FE
000001FE
0000003C
ENDCHAR
STARTCHAR 0106
ENCODING 262
SWIDTH 684 0
DWIDTH 38 0
BBX 35 54 2 0
BITMAP
00000FF000
00000FE000
00001FC000
00001FC000
00003F8000
00003F8000
00007F0000
00007E0000
0000FE0000
0000FC0000
0001F80000
0000000000
0000000000
0000000000
0001F00000
001FFF8000
007FFFE000
00FFFFF000
01FFFFF800
03FFFFFC00
07FFFFFE00
0FFE07FF00
1FF801FF80
1FF0007F80
3FE0007FC0
3FC0003FC0
3FC0001FC0
7F80001FE0
7F80000000
7F80000000
7F80000000
FF80000000
FF00000000
FF00000000
FF00000000
FF00000000
FF00000000
FF80000000
7F80000000
7F80000000
7F80000000
7FC0001FC0
3FC0003FC0
3FC0003FC0
3FE0007F80
1FF000FF80
1FF801FF00
0FFF0FFF00
07FFFFFE00
03FFFFFC00
01FFFFF800
00FFFFF000
003FFFC000
000FFF0000
ENDCHAR
STARTCHAR 0107
ENCODING 263
SWIDTH 558 0
DWIDTH 31 0
BBX 28 45 2 -1
BITMAP
00007F00
0000FE00
0001FE00
0001FC00
0003F800
0003F800
0007F000
0007E000
000FE000
000FC000
0001C000
00000000
00000000
00000000
003FE000
00FFF800
03FFFE00
07FFFF00
0FFFFF80
1FFFFF80
3FF0FFC0
3FE03FE0
7FC01FE0
7F800FE0
7F800FF0
7F000FF0
FF000000
FF000000
FF000000
FF000000
FF000000
FF000000
7F000000
7F000FF0
7F800FE0
7F801FE0
3FC01FE0
3FE07FC0
1FFFFFC0
1FFFFF80
0FFFFF00
07FFFE00
01FFFC00
007FF000
00060000
ENDCHAR
STARTCHAR 010A
ENCODING 266
SWIDTH 684 0
DWIDTH 38 0
BBX 35 53 2 0
BITMAP
0000400000
0001F80000
0003F80000
0003FC0000
0007FC0000
0003FC0000
0003FC0000
0003F80000
0000F00000
0000000000
0000000000
0000000000
0000000000
0001F00000
001FFF8000
007FFFE000
00FFFFF000
01FFFFF800
03FFFFFC00
07FFFFFE00
0FFE07FF00
1FF801FF80
1FF0007F80
3FE0007FC0
3FC0003FC0
3FC0001FC0
7F80001FE0
7F80000000
7F80000000
7F80000000
FF80000000
FF00000000
FF00000000
FF00000000
FF00000000
FF00000000
FF80000000
7F80000000
7F80000000
7F80000000
7FC0001FC0
3FC0003FC0
3FC0003FC0
3FE0007F80
1FF000FF80
1FF801FF00
0FFF0FFF00
07FFFFFE00
03FFFFFC00
01FFFFF800
00FFFFF000
003FFFC000
000FFF0000
ENDCHAR
STARTCHAR 010B
ENCODING 267
SWIDTH 558 0
DWIDTH 31 0
BBX 28 44 2 -1
BITMAP
000F0000
001FC000
003FC000
003FC000
003FE000
003FC000
001FC000
001F8000
00020000
00000000
00000000
00000000
00000000
003FE000
00FFF800
03FFFE00
07FFFF00
0FFFFF80
1FFFFF80
3FF0FFC0
3FE03FE0
7FC01FE0
7F800FE0
7F800FF0
7F000FF0
FF000000
FF000000
FF000000
FF000000
FF000000
FF000000
7F000000
7F000FF0
7F800FE0
7F801FE0
3FC01FE0
3FE07FC0
1FFFFFC0
1FFFFF80
0FFFFF00
07FFFE00
01FFFC00
007FF000
00060000
ENDCHAR
STARTCHAR 010C
ENCODING 268
SWIDTH 684 0
DWIDTH 38 0
BBX 35 51 2 0
BITMAP
01FE07F000
007F0FE000
007F1FC000
003FBF8000
001FFF0000
000FFE0000
0007FC0000
0003FC0000
0001F80000
0000000000
0000000000
0001F00000
001FFF8000
007FFFE000
00FFFFF000
01FFFFF800
03FFFFFC00
07FFFFFE00
0FFE07FF00
1FF801FF80
1FF0007F80
3FE0007FC0
3FC0003FC0
3FC0001FC0
7F80001FE0
7F80000000
7F80000000
7F80000000
FF80000000
FF00000000
FF00000000
FF00000000
FF00000000
FF00000000
FF80000000
7F80000000
7F80000000
7F80000000
7FC0001FC0
3FC0003FC0
3FC0003FC0
3FE0007F80
1FF000FF80
1FF801FF00
0FFF0FFF00
07FFFFFE00
03FFFFFC00
01FFFFF800
00FFFFF000
003FFFC000
000FFF0000
ENDCHAR
STARTCHAR 010D
ENCODING 269
SWIDTH 558 0
DWIDTH 31 0
BBX 28 43 2 -1
BITMAP
0FE03F80
07F07F00
07F0FE00
03F9FC00
01FFF800
00FFF000
007FF000
003FE000
001FC000
00000000
00000000
00000000
003FE000
00FFF800
03FFFE00
07FFFF00
0FFFFF80
1FFFFF80
3FF0FFC0
3FE03FE0
7FC01FE0
7F800FE0
7F800FF0
7F000FF0
FF000000
FF000000
FF000000
FF000000
FF000000
FF000000
7F000000
7F000FF0
7F800FE0
7F801FE0
3FC01FE0
3FE07FC0
1FFFFFC0
1FFFFF80
0FFFFF00
07FFFE00
01FFFC00
007FF000
00060000
ENDCHAR
STARTCHAR 010E
ENCODING 270
SWIDTH 666 0
DWIDTH 37 0
BBX 33 51 3 0
BITMAP
07F03FC000
03F87F8000
01FC7F0000
00FEFE0000
007FFC0000
003FF80000
001FF00000
001FE00000
000FC00000
0000000000
0000000000
0000000000
FFFFE00000
FFFFFE0000
FFFFFF8000
FFFFFFC000
FFFFFFE000
FFFFFFF000
FFFFFFF800
FF003FFC00
FF000FFC00
FF0007FE00
FF0003FE00
FF0001FF00
FF0001FF00
FF0000FF00
FF0000FF00
FF0000FF00
FF0000FF80
FF0000FF80
FF0000FF80
FF0000FF80
FF0000FF80
FF0000FF80
FF0000FF80
FF0000FF00
FF0000FF00
FF0000FF00
FF0001FF00
FF0001FF00
FF0003FE00
FF0007FE00
FF000FFC00
FF003FFC00
FFFFFFF800
FFFFFFF000
FFFFFFE000
FFFFFFC000
FFFFFF8000
FFFFFE0000
FFFFF00000
ENDCHAR
STARTCHAR 010F
ENCODING 271
SWIDTH 774 0
DWIDTH 43 0
BBX 41 45 2 0
BITMAP
000000007E00
00000000FF00
00000001FF00
000007F9FF80
000007F9FF80
000007F9FF80
000007F8FF80
000007F87F80
000007F80780
000007F80780
000007F80780
000007F80700
000007F80F00
000007F80E00
000007F83C00
00FF07F87800
03FFC7F87000
07FFE7F80000
0FFFF7F80000
1FFFF7F80000
3FFFFFF80000
3FF8FFF80000
7FE03FF80000
7FC01FF80000
7F800FF80000
7F800FF80000
FF0007F80000
FF0007F80000
FF0007F80000
FF0007F80000
FF0007F80000
FF0007F80000
FF0007F80000
FF0007F80000
7F8007F80000
7F800FF80000
7FC00FF80000
7FC01FF80000
3FE03FF80000
3FFFFFF80000
1FFFF7F80000
1FFFF7F80000
0FFFE7F80000
07FFC7F80000
01FF87F80000
ENDCHAR
STARTCHAR 0110
ENCODING 272
SWIDTH 702 0
DWIDTH 39 0
BBX 35 39 2 0
BITMAP
1FFFFC0000
1FFFFF8000
1FFFFFE000
1FFFFFF800
1FFFFFFC00
1FFFFFFE00
1FFFFFFF00
1FC00FFF00
1FC001FF80
1FC000FF80
1FC0007FC0
1FC0007FC0
1FC0003FC0
1FC0003FE0
1FC0001FE0
1FC0001FE0
1FC0001FE0
FFFF001FE0
FFFF001FE0
FFFF001FE0
FFFF001FE0
FFFF001FE0
1FC0001FE0
1FC0001FE0
1FC0001FE0
1FC0003FE0
1FC0003FC0
1FC0007FC0
1FC0007FC0
1FC000FF80
1FC003FF80
1FC00FFF00
1FFFFFFF00
1FFFFFFE00
1FFFFFFC00
1FFFFFF800
1FFFFFE000
1FFFFF8000
1FFFFC0000
ENDCHAR
STARTCHAR 0111
ENCODING 273
SWIDTH 612 0
DWIDTH 34 0
BBX 32 42 2 0
BITMAP
000007F8
000007F8
000007F8
000007F8
0001FFFF
0001FFFF
0001FFFF
0001FFFF
0001FFFF
000007F8
000007F8
000007F8
00FF07F8
03FFC7F8
07FFE7F8
0FFFF7F8
1FFFF7F8
3FFFFFF8
3FF8FFF8
7FE03FF8
7FC01FF8
7F800FF8
7F800FF8
FF0007F8
FF0007F8
FF0007F8
FF0007F8
FF0007F8
FF0007F8
FF0007F8
FF0007F8
7F8007F8
7F800FF8
7FC00FF8
7FC01FF8
3FE03FF8
3FFFFFF8
1FFFF7F8
1FFFF7F8
0FFFE7F8
07FFC7F8
01FF87F8
ENDCHAR
STARTCHAR 0112
ENCODING 274
SWIDTH 558 0
DWIDTH 31 0
BBX 26 47 3 0
BITMAP
0FFFFC00
0FFFFC00
0FFFFC00
00000000
00000000
00000000
00000000
00000000
FFFFFFC0
FFFFFFC0
FFFFFFC0
FFFFFFC0
FFFFFFC0
FFFFFFC0
FFFFFFC0
FF000000
FF000000
FF000000
FF000000
FF000000
FF000000
FF000000
FF000000
FF000000
FFFFFE00
FFFFFE00
FFFFFE00
FFFFFE00
FFFFFE00
FFFFFE00
FF000000
FF000000
FF000000
FF000000
FF000000
FF000000
FF000000
FF000000
FF000000
FF000000
FFFFFFC0
FFFFFFC0
FFFFFFC0
FFFFFFC0
FFFFFFC0
FFFFFFC0
FFFFFFC0
ENDCHAR
STARTCHAR 0113
ENCODING 275
SWIDTH 576 0
DWIDTH 32 0
BBX 28 38 2 0
BITMAP
07FFFE00
07FFFE00
07FFFE00
07FFFE00
00000000
00000000
00000000
00000000
003FE000
00FFF800
03FFFE00
07FFFF00
0FFFFF80
1FFFFF80
3FE03FC0
3FC01FC0
7F801FE0
7F000FE0
7F000FE0
7F000FE0
FFFFFFF0
FFFFFFF0
FFFFFFF0
FFFFFFF0
FFFFFFF0
FF000000
7F000000
7F000000
7F000000
7F801FE0
3FC01FE0
3FE07FC0
1FFFFFC0
1FFFFF80
0FFFFF00
07FFFE00
01FFFC00
007FF000
ENDCHAR
STARTCHAR 0116
ENCODING 278
SWIDTH 558 0
DWIDTH 31 0
BBX 26 52 3 1
BITMAP
003F0000
007F8000
007F8000
007F8000
007F8000
007F8000
003F0000
001E0000
00000000
00000000
00000000
00000000
00000000
FFFFFFC0
FFFFFFC0
FFFFFFC0
FFFFFFC0
FFFFFFC0
FFFFFFC0
FFFFFFC0
FF000000
FF000000
FF000000
FF000000
FF000000
FF000000
FF000000
FF000000
FF000000
FFFFFE00
FFFFFE00
FFFFFE00
FFFFFE00
FFFFFE00
FFFFFE00
FF000000
FF000000
FF000000
FF000000
FF000000
FF000000
FF000000
FF000000
FF000000
FF000000
FFFFFFC0
FFFFFFC0
FFFFFFC0
FFFFFFC0
FFFFFFC0
FFFFFFC0
FFFFFFC0
ENDCHAR
STARTCHAR 0117
ENCODING 279
SWIDTH 576 0
DWIDTH 32 0
BBX 28 43 2 0
BITMAP
000F0000
001FC000
003FC000
003FC000
003FE000
003FC000
001FC000
001F8000
00020000
00000000
00000000
00000000
00000000
003FE000
00FFF800
03FFFE00
07FFFF00
0FFFFF80
1FFFFF80
3FE03FC0
3FC01FC0
7F801FE0
7F000FE0
7F000FE0
7F000FE0
FFFFFFF0
FFFFFFF0
FFFFFFF0
FFFFFFF0
FFFFFFF0
FF000000
7F000000
7F000000
7F000000
7F801FE0
3FC01FE0
3FE07FC0
1FFFFFC0
1FFFFF80
0FFFFF00
07FFFE00
01FFFC00
007FF000
ENDCHAR
STARTCHAR 0118
ENCODING 280
SWIDTH 558 0
DWIDTH 31 0
BBX 28 49 3 -10
BITMAP
FFFFFFC0
FFFFFFC0
FFFFFFC0
FFFFFFC0
FFFFFFC0
FFFFFFC0
FFFFFFC0
FF000000
FF000000
FF000000
FF000000
FF000000
FF000000
FF000000
FF000000
FF000000
FFFFFE00
FFFFFE00
FFFFFE00
FFFFFE00
FFFFFE00
FFFFFE00
FF000000
FF000000
FF000000
FF000000
FF000000
FF000000
FF000000
FF000000
FF000000
FF000000
FFFFFFC0
FFFFFFC0
FFFFFFC0
FFFFFFC0
FFFFFFC0
FFFFFFC0
FFFFFFC0
00001F80
00001F00
00003E00
00003E00
00003E00
00003F90
00003FF0
00001FF0
00000FF0
000000E0
ENDCHAR
STARTCHAR 0119
ENCODING 281
SWIDTH 576 0
DWIDTH 32 0
BBX 28 40 2 -10
BITMAP
003FE000
00FFF800
03FFFE00
07FFFF00
0FFFFF80
1FFFFF80
3FE03FC0
3FC01FC0
7F801FE0
7F000FE0
7F000FE0
7F000FE0
FFFFFFF0
FFFFFFF0
FFFFFFF0
FFFFFFF0
FFFFFFF0
FF000000
7F000000
7F000000
7F000000
7F801FE0
3FC01FE0
3FE07FC0
1FFFFFC0
1FFFFF80
0FFFFF00
07FFFE00
01FFFC00
007FF000
003F0000
003E0000
007C0000
007C0000
007C0000
007E0000
007FE000
003FE000
003FE000
000FE000
ENDCHAR
STARTCHAR 011A
ENCODING 282
SWIDTH 558 0
DWIDTH 31 0
BBX 26 51 3 0
BITMAP
1FC0FE00
0FE1FC00
07F3F800
07F7F000
03FFE000
01FFE000
00FFC000
007F8000
003F0000
00000000
00000000
00000000
FFFFFFC0
FFFFFFC0
FFFFFFC0
FFFFFFC0
FFFFFFC0
FFFFFFC0
FFFFFFC0
FF000000
FF000000
FF000000
FF000000
FF000000
FF000000
FF000000
FF000000
FF000000
FFFFFE00
FFFFFE00
FFFFFE00
FFFFFE00
FFFFFE00
FFFFFE00
FF000000
FF000000
FF000000
FF000000
FF000000
FF000000
FF000000
FF000000
FF000000
FF000000
FFFFFFC0
FFFFFFC0
FFFFFFC0
FFFFFFC0
FFFFFFC0
FFFFFFC0
FFFFFFC0
ENDCHAR
STARTCHAR 011B
ENCODING 283
SWIDTH 576 0
DWIDTH 32 0
BBX 28 42 2 0
BITMAP
0FE03F80
07F07F00
07F0FE00
03F9FC00
01FFF800
00FFF000
007FF000
003FE000
001FC000
00000000
00000000
00000000
003FE000
00FFF800
03FFFE00
07FFFF00
0FFFFF80
1FFFFF80
3FE03FC0
3FC01FC0
7F801FE0
7F000FE0
7F000FE0
7F000FE0
FFFFFFF0
FFFFFFF0
FFFFFFF0
FFFFFFF0
FFFFFFF0
FF000000
7F000000
7F000000
7F000000
7F801FE0
3FC01FE0
3FE07FC0
1FFFFFC0
1FFFFF80
0FFFFF00
07FFFE00
01FFFC00
007FF000
ENDCHAR
STARTCHAR 011E
ENCODING 286
SWIDTH 702 0
DWIDTH 39 0
BBX 35 50 2 0
BITMAP
00FC03F000
00FE07F000
007F0FE000
003FFFC000
001FFF8000
000FFF0000
0003FC0000
0000000000
0000000000
0000000000
0001F80000
001FFF8000
007FFFE000
00FFFFF000
01FFFFF800
03FFFFFC00
07FFFFFE00
0FFE07FF00
1FF801FF80
1FF000FF80
3FE0007FC0
3FC0003FC0
3FC0003FC0
7F80000000
7F80000000
7F80000000
7F80000000
7F00000000
FF00000000
FF001FFFE0
FF001FFFE0
FF001FFFE0
FF001FFFE0
7F001FFFE0
7F001FFFE0
7F80001FE0
7F80001FE0
7F80001FE0
3FC0001FE0
3FC0003FE0
3FE0003FE0
1FF0007FE0
1FF800FFE0
0FFC03FFE0
07FFFFFFE0
03FFFFF7E0
01FFFFE7E0
00FFFFC7E0
007FFF87E0
000FFE07E0
ENDCHAR
STARTCHAR 011F
ENCODING 287
SWIDTH 612 0
DWIDTH 34 0
BBX 29 52 2 -12
BITMAP
07E01F80
03F03F00
03FFFE00
01FFFE00
00FFF800
003FF000
00000000
00000000
00000000
00000000
00FF0000
03FF87F8
07FFE7F8
0FFFF7F8
1FFFF7F8
3FFFFFF8
3FF87FF8
7FE01FF8
7FC01FF8
7F800FF8
7F800FF8
FF8007F8
FF0007F8
FF0007F8
FF0007F8
FF0007F8
FF0007F8
FF0007F8
7F8007F8
7F800FF8
7FC00FF8
7FC01FF8
3FE03FF8
3FFFFFF8
1FFFFFF8
1FFFF7F8
0FFFE7F8
07FFC7F8
01FF87F8
003807F8
000007F8
000007F8
00000FF0
00000FF0
00001FF0
00207FE0
003FFFE0
003FFFC0
003FFF80
003FFF00
003FFE00
003FF800
ENDCHAR
STARTCHAR 0120
ENCODING 288
SWIDTH 702 0
DWIDTH 39 0
BBX 35 52 2 1
BITMAP
0001F80000
0003FC0000
0003FC0000
0003FC0000
0003FC0000
0003FC0000
0001F80000
0000F00000
0000000000
0000000000
0000000000
0000000000
0001F80000
001FFF8000
007FFFE000
00FFFFF000
01FFFFF800
03FFFFFC00
07FFFFFE00
0FFE07FF00
1FF801FF80
1FF000FF80
3FE0007FC0
3FC0003FC0
3FC0003FC0
7F80000000
7F80000000
7F80000000
7F80000000
7F00000000
FF00000000
FF001FFFE0
FF001FFFE0
FF001FFFE0
FF001FFFE0
7F001FFFE0
7F001FFFE0
7F80001FE0
7F80001FE0
7F80001FE0
3FC0001FE0
3FC0003FE0
3FE0003FE0
1FF0007FE0
1FF800FFE0
0FFC03FFE0
07FFFFFFE0
03FFFFF7E0
01FFFFE7E0
00FFFFC7E0
007FFF87E0
000FFE07E0
ENDCHAR
STARTCHAR 0121
ENCODING 289
SWIDTH 612 0
DWIDTH 34 0
BBX 29 55 2 -12
BITMAP
00078000
000FC000
001FE000
001FE000
001FE000
001FE000
001FE000
000FC000
00020000
00000000
00000000
00000000
00000000
00FF0000
03FF87F8
07FFE7F8
0FFFF7F8
1FFFF7F8
3FFFFFF8
3FF87FF8
7FE01FF8
7FC01FF8
7F800FF8
7F800FF8
FF8007F8
FF0007F8
FF0007F8
FF0007F8
FF0007F8
FF0007F8
FF0007F8
7F8007F8
7F800FF8
7FC00FF8
7FC01FF8
3FE03FF8
3FFFFFF8
1FFFFFF8
1FFFF7F8
0FFFE7F8
07FFC7F8
01FF87F8
003807F8
000007F8
000007F8
00000FF0
00000FF0
00001FF0
00207FE0
003FFFE0
003FFFC0
003FFF80
003FFF00
003FFE00
003FF800
ENDCHAR
STARTCHAR 0126
ENCODING 294
SWIDTH 684 0
DWIDTH 38 0
BBX 37 39 1 0
BITMAP
1FC0003FC0
1FC0003FC0
1FC0003FC0
1FC0003FC0
1FC0003FC0
FFFFFFFFF8
FFFFFFFFF8
FFFFFFFFF8
FFFFFFFFF8
FFFFFFFFF8
FFFFFFFFF8
1FC0003FC0
1FC0003FC0
1FC0003FC0
1FC0003FC0
1FC0003FC0
1FFFFFFFC0
1FFFFFFFC0
1FFFFFFFC0
1FFFFFFFC0
1FFFFFFFC0
1FFFFFFFC0
1FFFFFFFC0
1FC0003FC0
1FC0003FC0
1FC0003FC0
1FC0003FC0
1FC0003FC0
1FC0003FC0
1FC0003FC0
1FC0003FC0
1FC0003FC0
1FC0003FC0
1FC0003FC0
1FC0003FC0
1FC0003FC0
1FC0003FC0
1FC0003FC0
1FC0003FC0
ENDCHAR
STARTCHAR 0127
ENCODING 295
SWIDTH 594 0
DWIDTH 33 0
BBX 31 42 0 0
BITMAP
0FF00000
0FF00000
0FF00000
0FF00000
FFFFC000
FFFFC000
FFFFC000
FFFFC000
FFFFC000
0FF00000
0FF00000
0FF00000
0FF03FC0
0FF0FFF0
0FF1FFF8
0FF3FFF8
0FF7FFFC
0FFFFFFC
0FFF9FFE
0FFC03FE
0FF801FE
0FF801FE
0FF001FE
0FF000FE
0FF000FE
0FF000FE
0FF000FE
0FF000FE
0FF000FE
0FF000FE
0FF000FE
0FF000FE
0FF000FE
0FF000FE
0FF000FE
0FF000FE
0FF000FE
0FF000FE
0FF000FE
0FF000FE
0FF000FE
0FF000FE
ENDCHAR
STARTCHAR 0128
ENCODING 296
SWIDTH 252 0
DWIDTH 14 0
BBX 17 51 -1 0
BITMAP
3E0780
7FC780
FFFF80
FFFF80
FFFF80
F1FF00
F07E00
000000
000000
000000
000000
000000
07F000
07F000
07F000
07F000
07F000
07F000
07F000
07F000
07F000
07F000
07F000
07F000
07F000
07F000
07F000
07F000
07F000
07F000
07F000
07F000
07F000
07F000
07F000
07F000
07F000
07F000
07F000
07F000
07F000
07F000
07F000
07F000
07F000
07F000
07F000
07F000
07F000
07F000
07F000
ENDCHAR
STARTCHAR 0129
ENCODING 297
SWIDTH 270 0
DWIDTH 15 0
BBX 18 42 -1 0
BITMAP
0003C0
3F83C0
7FE7C0
7FFFC0
FFFF80
FBFF80
F0FF00
F01C00
000000
000000
000000
000000
000000
07F800
07F800
07F800
07F800
07F800
07F800
07F800
07F800
07F800
07F800
07F800
07F800
07F800
07F800
07F800
07F800
07F800
07F800
07F800
07F800
07F800
07F800
07F800
07F800
07F800
07F800
07F800
07F800
07F800
ENDCHAR
STARTCHAR 012A
ENCODING 298
SWIDTH 252 0
DWIDTH 14 0
BBX 17 47 -1 0
BITMAP
FFFF80
FFFF80
FFFF80
000000
000000
000000
000000
000000
07F000
07F000
07F000
07F000
07F000
07F000
07F000
07F000
07F000
07F000
07F000
07F000
07F000
07F000
07F000
07F000
07F000
07F000
07F000
07F000
07F000
07F000
07F000
07F000
07F000
07F000
07F000
07F000
07F000
07F000
07F000
07F000
07F000
07F000
07F000
07F000
07F000
07F000
07F000
ENDCHAR
STARTCHAR 012B
ENCODING 299
SWIDTH 270 0
DWIDTH 15 0
BBX 18 38 -1 0
BITMAP
FFFFC0
FFFFC0
FFFFC0
FFFFC0
000000
000000
000000
000000
000000
07F800
07F800
07F800
07F800
07F800
07F800
07F800
07F800
07F800
07F800
07F800
07F800
07F800
07F800
07F800
07F800
07F800
07F800
07F800
07F800
07F800
07F800
07F800
07F800
07F800
07F800
07F800
07F800
07F800
ENDCHAR
STARTCHAR 012E
ENCODING 302
SWIDTH 252 0
DWIDTH 14 0
BBX 10 49 3 -10
BITMAP
7F00
7F00
7F00
7F00
7F00
7F00
7F00
7F00
7F00
7F00
7F00
7F00
7F00
7F00
7F00
7F00
7F00
7F00
7F00
7F00
7F00
7F00
7F00
7F00
7F00
7F00
7F00
7F00
7F00
7F00
7F00
7F00
7F00
7F00
7F00
7F00
7F00
7F00
7F00
3F00
7C00
7C00
F800
FC00
7E40
7FC0
3FC0
1FC0
03C0
ENDCHAR
STARTCHAR 012F
ENCODING 303
SWIDTH 270 0
DWIDTH 15 0
BBX 10 53 4 -10
BITMAP
3C00
7E00
FF00
FF00
FF00
FF00
FF00
7E00
1000
0000
0000
0000
0000
0000
FF00
FF00
FF00
FF00
FF00
FF00
FF00
FF00
FF00
FF00
FF00
FF00
FF00
FF00
FF00
FF00
FF00
FF00
FF00
FF00
FF00
FF00
FF00
FF00
FF00
FF00
FF00
FF00
FF00
7E00
FC00
F800
F800
F800
FC40
FFC0
7FC0
3FC0
0780
ENDCHAR
STARTCHAR 0130
ENCODING 304
SWIDTH 252 0
DWIDTH 14 0
BBX 9 52 3 1
BITMAP
3E00
7F00
FF00
FF80
FF80
FF00
7F00
3E00
0000
0000
0000
0000
0000
7F00
7F00
7F00
7F00
7F00
7F00
7F00
7F00
7F00
7F00
7F00
7F00
7F00
7F00
7F00
7F00
7F00
7F00
7F00
7F00
7F00
7F00
7F00
7F00
7F00
7F00
7F00
7F00
7F00
7F00
7F00
7F00
7F00
7F00
7F00
7F00
7F00
7F00
7F00
ENDCHAR
STARTCHAR 0131
ENCODING 305
SWIDTH 270 0
DWIDTH 15 0
BBX 8 29 4 0
BITMAP
FF
FF
FF
FF
FF
FF
FF
FF
FF
FF
FF
FF
FF
FF
FF
FF
FF
FF
FF
FF
FF
FF
FF
FF
FF
FF
FF
FF
FF
ENDCHAR
STARTCHAR 0139
ENCODING 313
SWIDTH 522 0
DWIDTH 29 0
BBX 25 54 3 0
BITMAP
03FC0000
03F80000
07F80000
07F00000
0FE00000
0FE00000
1FC00000
1F800000
3F800000
3F000000
7E000000
00000000
00000000
00000000
00000000
FF000000
FF000000
FF000000
FF000000
FF000000
FF000000
FF000000
FF000000
FF000000
FF000000
FF000000
FF000000
FF000000
FF000000
FF000000
FF000000
FF000000
FF000000
FF000000
FF000000
FF000000
FF000000
FF000000
FF000000
FF000000
FF000000
FF000000
FF000000
FF000000
FF000000
FF000000
FF000000
FFFFFF80
FFFFFF80
FFFFFF80
FFFFFF80
FFFFFF80
FFFFFF80
FFFFFF80
ENDCHAR
STARTCHAR 013A
ENCODING 314
SWIDTH 324 0
DWIDTH 18 0
BBX 13 56 4 0
BITMAP
03F8
07F0
07F0
0FE0
0FC0
1FC0
3F80
3F80
7F00
7E00
FE00
0000
0000
0000
FE00
FE00
FE00
FE00
FE00
FE00
FE00
FE00
FE00
FE00
FE00
FE00
FE00
FE00
FE00
FE00
FE00
FE00
FE00
FE00
FE00
FE00
FE00
FE00
FE00
FE00
FE00
FE00
FE00
FE00
FE00
FE00
FE00
FE00
FE00
FF00
FFC0
FFF8
FFF8
7FF8
3FF8
0FF8
ENDCHAR
STARTCHAR 013D
ENCODING 317
SWIDTH 522 0
DWIDTH 29 0
BBX 31 51 -3 0
BITMAP
FE07F000
7F0FE000
3F9FC000
1FFF8000
1FFF8000
0FFF0000
07FE0000
03FC0000
01F80000
00000000
00000000
00000000
03FC0000
03FC0000
03FC0000
03FC0000
03FC0000
03FC0000
03FC0000
03FC0000
03FC0000
03FC0000
03FC0000
03FC0000
03FC0000
03FC0000
03FC0000
03FC0000
03FC0000
03FC0000
03FC0000
03FC0000
03FC0000
03FC0000
03FC0000
03FC0000
03FC0000
03FC0000
03FC0000
03FC0000
03FC0000
03FC0000
03FC0000
03FC0000
03FFFFFE
03FFFFFE
03FFFFFE
03FFFFFE
03FFFFFE
03FFFFFE
03FFFFFE
ENDCHAR
STARTCHAR 013E
ENCODING 318
SWIDTH 414 0
DWIDTH 23 0
BBX 19 45 4 0
BITMAP
001F80
003FC0
003FE0
FE7FE0
FE7FE0
FE3FE0
FE3FE0
FE1FE0
FE01E0
FE01E0
FE01E0
FE01E0
FE01C0
FE03C0
FE0F80
FE0F00
FE0C00
FE0000
FE0000
FE0000
FE0000
FE0000
FE0000
FE0000
FE0000
FE0000
FE0000
FE0000
FE0000
FE0000
FE0000
FE0000
FE0000
FE0000
FE0000
FE0000
FE0000
FE0000
FF0000
FFC000
FFF800
FFF800
7FF800
3FF800
0FF800
ENDCHAR
STARTCHAR 0143
ENCODING 323
SWIDTH 684 0
DWIDTH 38 0
BBX 33 54 3 0
BITMAP
00001FC000
00003FC000
00003F8000
00007F8000
00007F0000
0000FE0000
0000FE0000
0001FC0000
0001F80000
0003F80000
0003F00000
0000000000
0000000000
0000000000
0000000000
FF80007F80
FFC0007F80
FFE0007F80
FFE0007F80
FFF0007F80
FFF0007F80
FFF8007F80
FFF8007F80
FFFC007F80
FFFE007F80
FFFE007F80
FFFF007F80
FFFF007F80
FFFF807F80
FF7FC07F80
FF3FC07F80
FF3FE07F80
FF1FE07F80
FF1FF07F80
FF0FF87F80
FF07F87F80
FF07FC7F80
FF03FC7F80
FF03FE7F80
FF01FE7F80
FF00FF7F80
FF00FFFF80
FF007FFF80
FF007FFF80
FF003FFF80
FF001FFF80
FF001FFF80
FF000FFF80
FF000FFF80
FF0007FF80
FF0003FF80
FF0003FF80
FF0001FF80
FF0001FF80
ENDCHAR
STARTCHAR 0144
ENCODING 324
SWIDTH 594 0
DWIDTH 33 0
BBX 27 44 3 0
BITMAP
0000FF00
0001FE00
0001FC00
0003F800
0003F800
0007F000
0007F000
000FE000
000FC000
001FC000
00038000
00000000
00000000
00000000
0007F800
FF1FFE00
FF3FFF00
FF7FFF80
FF7FFFC0
FFFFFFC0
FFF9FFC0
FFC07FE0
FF803FE0
FF801FE0
FF001FE0
FF000FE0
FF000FE0
FF000FE0
FF000FE0
FF000FE0
FF000FE0
FF000FE0
FF000FE0
FF000FE0
FF000FE0
FF000FE0
FF000FE0
FF000FE0
FF000FE0
FF000FE0
FF000FE0
FF000FE0
FF000FE0
FF000FE0
ENDCHAR
STARTCHAR 0147
ENCODING 327
SWIDTH 684 0
DWIDTH 38 0
BBX 33 51 3 0
BITMAP
03F80FE000
01FC1FC000
00FE3F8000
007F7F0000
003FFE0000
001FFC0000
000FF80000
0007F00000
0003E00000
0000000000
0000000000
0000000000
FF80007F80
FFC0007F80
FFE0007F80
FFE0007F80
FFF0007F80
FFF0007F80
FFF8007F80
FFF8007F80
FFFC007F80
FFFE007F80
FFFE007F80
FFFF007F80
FFFF007F80
FFFF807F80
FF7FC07F80
FF3FC07F80
FF3FE07F80
FF1FE07F80
FF1FF07F80
FF0FF87F80
FF07F87F80
FF07FC7F80
FF03FC7F80
FF03FE7F80
FF01FE7F80
FF00FF7F80
FF00FFFF80
FF007FFF80
FF007FFF80
FF003FFF80
FF001FFF80
FF001FFF80
FF000FFF80
FF000FFF80
FF0007FF80
FF0003FF80
FF0003FF80
FF0001FF80
FF0001FF80
ENDCHAR
STARTCHAR 0148
ENCODING 328
SWIDTH 594 0
DWIDTH 33 0
BBX 27 42 3 0
BITMAP
1FC07F00
0FE0FE00
07F1FE00
03F9FC00
01FFF800
00FFF000
00FFE000
007FC000
003F8000
00000000
00000000
00000000
0007F800
FF1FFE00
FF3FFF00
FF7FFF80
FF7FFFC0
FFFFFFC0
FFF9FFC0
FFC07FE0
FF803FE0
FF801FE0
FF001FE0
FF000FE0
FF000FE0
FF000FE0
FF000FE0
FF000FE0
FF000FE0
FF000FE0
FF000FE0
FF000FE0
FF000FE0
FF000FE0
FF000FE0
FF000FE0
FF000FE0
FF000FE0
FF000FE0
FF000FE0
FF000FE0
FF000FE0
ENDCHAR
STARTCHAR 014C
ENCODING 332
SWIDTH 720 0
DWIDTH 40 0
BBX 36 47 2 0
BITMAP
007FFFE000
007FFFE000
007FFFE000
0000000000
0000000000
0000000000
0000000000
0001F80000
001FFF8000
007FFFE000
00FFFFF000
01FFFFFC00
03FFFFFE00
07FFFFFF00
0FFF0FFF00
1FFC01FF80
1FF000FF80
3FE0007FC0
3FE0007FC0
7FC0003FE0
7FC0003FE0
7F80001FE0
7F80001FE0
7F80001FF0
FF80001FF0
FF80000FF0
FF00000FF0
FF00000FF0
FF00000FF0
FF80000FF0
FF80001FF0
7F80001FF0
7F80001FE0
7F80001FE0
7FC0003FE0
7FC0003FE0
3FE0007FC0
3FE0007FC0
1FF000FF80
1FFC03FF80
0FFFDFFF00
07FFFFFE00
03FFFFFE00
01FFFFFC00
00FFFFF000
007FFFE000
000FFF0000
ENDCHAR
STARTCHAR 014D
ENCODING 333
SWIDTH 576 0
DWIDTH 32 0
BBX 28 38 2 0
BITMAP
07FFFE00
07FFFE00
07FFFE00
07FFFE00
00000000
00000000
00000000
00000000
003FC000
00FFF800
03FFFE00
07FFFF00
0FFFFF80
1FFFFFC0
3FF0FFC0
3FE03FE0
7FC01FE0
7F800FE0
7F800FF0
7F000FF0
FF0007F0
FF0007F0
FF0007F0
FF0007F0
FF0007F0
FF0007F0
7F000FF0
7F000FF0
7F800FF0
7F801FE0
3FC03FE0
3FE07FC0
1FFFFFC0
1FFFFF80
0FFFFF00
07FFFE00
01FFFC00
007FF000
ENDCHAR
STARTCHAR 0152
ENCODING 338
SWIDTH 954 0
DWIDTH 53 0
BBX 49 39 2 0
BITMAP
0003FFFFFFFF80
003FFFFFFFFF80
00FFFFFFFFFF80
01FFFFFFFFFF80
03FFFFFFFFFF80
07FFFFFFFFFF80
0FFFFFFFFFFF80
1FFE00FE000000
1FF800FE000000
3FF000FE000000
3FE000FE000000
7FC000FE000000
7FC000FE000000
7F8000FE000000
7F8000FE000000
FF8000FE000000
FF0000FFFFFE00
FF0000FFFFFE00
FF0000FFFFFE00
FF0000FFFFFE00
FF0000FFFFFE00
FF0000FFFFFE00
FF0000FE000000
FF8000FE000000
FF8000FE000000
7F8000FE000000
7FC000FE000000
7FC000FE000000
3FE000FE000000
3FE000FE000000
1FF800FE000000
1FFC00FE000000
0FFFFFFFFFFF80
07FFFFFFFFFF80
03FFFFFFFFFF80
01FFFFFFFFFF80
00FFFFFFFFFF80
003FFFFFFFFF80
0007FFFFFFFF80
ENDCHAR
STARTCHAR 0153
ENCODING 339
SWIDTH 936 0
DWIDTH 52 0
BBX 48 31 2 -1
BITMAP
003FC001FE00
00FFF007FFC0
03FFFC1FFFE0
07FFFE3FFFF0
0FFFFF7FFFF8
1FFFFFFFFFFC
3FF9FFFE03FC
3FE03FFC00FE
7FC01FFC00FE
7F801FF8007F
7F000FF8007F
7F000FF8007F
FF000FFFFFFF
FF000FFFFFFF
FF0007FFFFFF
FF0007FFFFFF
FF000FFFFFFF
FF000FF80000
FF000FF80000
7F000FF80000
7F800FF80000
7F801FFC00FF
3FC03FFC01FE
3FE07FFF03FE
1FFFFFFFFFFC
1FFFFF7FFFFC
0FFFFE3FFFF8
07FFFC1FFFF0
03FFF80FFFC0
00FFE003FF00
000600000000
ENDCHAR
STARTCHAR 0154
ENCODING 340
SWIDTH 594 0
DWIDTH 33 0
BBX 29 54 3 0
BITMAP
0000FE00
0001FE00
0001FC00
0003F800
0003F800
0007F000
000FE000
000FE000
001FC000
001F8000
003F8000
00000000
00000000
00000000
00000000
FFFFE000
FFFFFC00
FFFFFE00
FFFFFF80
FFFFFFC0
FFFFFFC0
FFFFFFE0
FF007FF0
FF001FF0
FF000FF0
FF0007F0
FF0007F8
FF0007F8
FF0007F8
FF0007F0
FF000FF0
FF000FF0
FF003FF0
FF03FFE0
FFFFFFE0
FFFFFFC0
FFFFFF80
FFFFFF00
FFFFFC00
FFFFF800
FF07F800
FF03FC00
FF03FE00
FF01FE00
FF00FF00
FF00FF00
FF007F80
FF007F80
FF003FC0
FF001FE0
FF001FE0
FF000FF0
FF000FF0
FF0007F8
ENDCHAR
STARTCHAR 0155
ENCODING 341
SWIDTH 378 0
DWIDTH 21 0
BBX 18 44 3 0
BITMAP
001FC0
003FC0
003F80
007F00
007F00
00FE00
00FC00
01FC00
01F800
03F800
007000
000000
000000
000000
000000
FF0FC0
FF3FC0
FF7FC0
FF7FC0
FFFFC0
FFFFC0
FFFFC0
FFE000
FFC000
FF8000
FF0000
FF0000
FF0000
FF0000
FF0000
FF0000
FF0000
FF0000
FF0000
FF0000
FF0000
FF0000
FF0000
FF0000
FF0000
FF0000
FF0000
FF0000
FF0000
ENDCHAR
STARTCHAR 0158
ENCODING 344
SWIDTH 594 0
DWIDTH 33 0
BBX 29 51 3 0
BITMAP
1FC0FF00
0FE1FC00
07F3FC00
03FBF800
01FFF000
00FFE000
00FFC000
007F8000
003F0000
00000000
00000000
00000000
FFFFE000
FFFFFC00
FFFFFE00
FFFFFF80
FFFFFFC0
FFFFFFC0
FFFFFFE0
FF007FF0
FF001FF0
FF000FF0
FF0007F0
FF0007F8
FF0007F8
FF0007F8
FF0007F0
FF000FF0
FF000FF0
FF003FF0
FF03FFE0
FFFFFFE0
FFFFFFC0
FFFFFF80
FFFFFF00
FFFFFC00
FFFFF800
FF07F800
FF03FC00
FF03FE00
FF01FE00
FF00FF00
FF00FF00
FF007F80
FF007F80
FF003FC0
FF001FE0
FF001FE0
FF000FF0
FF000FF0
FF0007F8
ENDCHAR
STARTCHAR 0159
ENCODING 345
SWIDTH 378 0
DWIDTH 21 0
BBX 21 42 1 0
BITMAP
FE03F8
7F07F0
3F8FF0
1FCFE0
0FFFC0
07FF80
07FF00
03FE00
01FC00
000000
000000
000000
000000
3FC3F0
3FCFF0
3FDFF0
3FDFF0
3FFFF0
3FFFF0
3FFFF0
3FF800
3FF000
3FE000
3FC000
3FC000
3FC000
3FC000
3FC000
3FC000
3FC000
3FC000
3FC000
3FC000
3FC000
3FC000
3FC000
3FC000
3FC000
3FC000
3FC000
3FC000
3FC000
ENDCHAR
STARTCHAR 015A
ENCODING 346
SWIDTH 594 0
DWIDTH 33 0
BBX 30 55 2 -1
BITMAP
00001FE0
00001FC0
00003F80
00003F80
00007F00
0000FE00
0000FE00
0001FC00
0001F800
0003F800
0003F000
00000000
00000000
00000000
00078000
00FFF800
03FFFE00
07FFFF80
0FFFFFC0
1FFFFFE0
1FFFFFE0
3FF03FF0
3FC01FF0
3FC00FF8
7F800FF8
7F800FF8
7F800FF8
7FC00000
3FC00000
3FF00000
3FFE0000
1FFFE000
1FFFFC00
0FFFFF00
03FFFFC0
00FFFFE0
001FFFF0
0001FFF0
00001FF8
00000FF8
000007F8
FF8007F8
FF8007FC
7F8007F8
7FC007F8
7FC007F8
7FE00FF8
3FF87FF0
1FFFFFF0
1FFFFFE0
0FFFFFC0
07FFFF80
01FFFF00
007FF800
00030000
ENDCHAR
STARTCHAR 015B
ENCODING 347
SWIDTH 486 0
DWIDTH 27 0
BBX 24 45 2 0
BITMAP
0003FC
0003F8
0007F8
0007F0
000FE0
000FE0
001FC0
001F80
003F80
003F00
007E00
000000
000000
000000
000000
00FF00
07FFC0
0FFFF0
1FFFF8
3FFFFC
7FFFFC
7F83FE
7F01FE
7F00FE
7F0000
7F0000
7FC000
3FFE00
3FFFC0
1FFFF0
0FFFF8
03FFFC
007FFE
0003FE
0000FE
FF00FF
FF00FF
FF00FE
7F81FE
7FFFFE
3FFFFC
3FFFFC
1FFFF8
07FFF0
01FF80
ENDCHAR
STARTCHAR 015E
ENCODING 350
SWIDTH 594 0
DWIDTH 33 0
BBX 30 54 2 -14
BITMAP
00078000
00FFF800
03FFFE00
07FFFF80
0FFFFFC0
1FFFFFE0
1FFFFFE0
3FF03FF0
3FC01FF0
3FC00FF8
7F800FF8
7F800FF8
7F800FF8
7FC00000
3FC00000
3FF00000
3FFE0000
1FFFE000
1FFFFC00
0FFFFF00
03FFFFC0
00FFFFE0
001FFFF0
0001FFF0
00001FF8
00000FF8
000007F8
FF8007F8
FF8007FC
7F8007F8
7FC007F8
7FC007F8
7FE00FF8
3FF87FF0
3FFFFFF0
1FFFFFE0
0FFFFFC0
07FFFF80
01FFFF00
007FF800
00078000
00070000
000F8000
000FF800
000FFC00
000FFC00
00001C00
00001E00
00001E00
00087C00
000FFC00
000FF800
000FF000
0007C000
ENDCHAR
STARTCHAR 015F
ENCODING 351
SWIDTH 486 0
DWIDTH 27 0
BBX 24 44 2 -14
BITMAP
00FF00
07FFC0
0FFFF0
1FFFF8
3FFFFC
7FFFFC
7F83FE
7F01FE
7F00FE
7F0000
7F0000
7FC000
3FFE00
3FFFC0
1FFFF0
0FFFF8
03FFFC
007FFE
0003FE
0000FE
FF00FF
FF00FF
FF00FE
7F81FE
7FFFFE
3FFFFC
3FFFFC
1FFFF8
07FFE0
01FF80
003C00
003C00
003E00
003FC0
007FE0
007FF0
0000F0
0000F0
0000F0
0021F0
003FF0
003FE0
003FC0
001E00
ENDCHAR
STARTCHAR 0160
ENCODING 352
SWIDTH 594 0
DWIDTH 33 0
BBX 30 52 2 -1
BITMAP
03F80FE0
01FC1FC0
00FE3F80
007F7F00
003FFE00
001FFC00
000FF800
0007F000
0003F000
00000000
00000000
00078000
00FFF800
03FFFE00
07FFFF80
0FFFFFC0
1FFFFFE0
1FFFFFE0
3FF03FF0
3FC01FF0
3FC00FF8
7F800FF8
7F800FF8
7F800FF8
7FC00000
3FC00000
3FF00000
3FFE0000
1FFFE000
1FFFFC00
0FFFFF00
03FFFFC0
00FFFFE0
001FFFF0
0001FFF0
00001FF8
00000FF8
000007F8
FF8007F8
FF8007FC
7F8007F8
7FC007F8
7FC007F8
7FE00FF8
3FF87FF0
1FFFFFF0
1FFFFFE0
0FFFFFC0
07FFFF80
01FFFF00
007FF800
00030000
ENDCHAR
STARTCHAR 0161
ENCODING 353
SWIDTH 486 0
DWIDTH 27 0
BBX 24 42 2 0
BITMAP
3F81FC
1FC3F8
0FE7F0
07FFE0
03FFC0
01FFC0
00FF80
00FF00
000000
000000
000000
000000
00FF00
07FFC0
0FFFF0
1FFFF8
3FFFFC
7FFFFC
7F83FE
7F01FE
7F00FE
7F0000
7F0000
7FC000
3FFE00
3FFFC0
1FFFF0
0FFFF8
03FFFC
007FFE
0003FE
0000FE
FF00FF
FF00FF
FF00FE
7F81FE
7FFFFE
3FFFFC
3FFFFC
1FFFF8
07FFF0
01FF80
ENDCHAR
STARTCHAR 0162
ENCODING 354
SWIDTH 576 0
DWIDTH 32 0
BBX 29 53 2 -14
BITMAP
FFFFFFF8
FFFFFFF8
FFFFFFF8
FFFFFFF8
FFFFFFF8
FFFFFFF8
FFFFFFF8
001FC000
001FC000
001FC000
001FC000
001FC000
001FC000
001FC000
001FC000
001FC000
001FC000
001FC000
001FC000
001FC000
001FC000
001FC000
001FC000
001FC000
001FC000
001FC000
001FC000
001FC000
001FC000
001FC000
001FC000
001FC000
001FC000
001FC000
001FC000
001FC000
001FC000
001FC000
001FC000
001E0000
001E0000
001F0000
001FE000
003FF000
003FF800
00007800
00007800
00007800
0030F800
003FF000
003FF000
003FE000
000F0000
ENDCHAR
STARTCHAR 0163
ENCODING 355
SWIDTH 414 0
DWIDTH 23 0
BBX 19 53 2 -14
BITMAP
0FF000
0FF000
0FF000
0FF000
0FF000
0FF000
0FF000
0FF000
0FF000
0FF000
FFFFE0
FFFFE0
FFFFE0
FFFFE0
FFFFE0
FFFFE0
0FF000
0FF000
0FF000
0FF000
0FF000
0FF000
0FF000
0FF000
0FF000
0FF000
0FF000
0FF000
0FF000
0FF000
0FF000
0FF000
0FF800
07FE20
07FFE0
07FFE0
03FFE0
01FFE0
00FFE0
007800
007800
007E00
007F80
00FFC0
00FFE0
0001E0
0001E0
0001E0
00E7E0
00FFC0
00FFC0
00FF00
001800
ENDCHAR
STARTCHAR 0164
ENCODING 356
SWIDTH 576 0
DWIDTH 32 0
BBX 29 51 2 0
BITMAP
0FE07F80
07F07F00
03F8FE00
01FDFC00
00FFF800
007FF000
003FE000
001FC000
001F8000
00000000
00000000
00000000
FFFFFFF8
FFFFFFF8
FFFFFFF8
FFFFFFF8
FFFFFFF8
FFFFFFF8
FFFFFFF8
001FC000
001FC000
001FC000
001FC000
001FC000
001FC000
001FC000
001FC000
001FC000
001FC000
001FC000
001FC000
001FC000
001FC000
001FC000
001FC000
001FC000
001FC000
001FC000
001FC000
001FC000
001FC000
001FC000
001FC000
001FC000
001FC000
001FC000
001FC000
001FC000
001FC000
001FC000
001FC000
ENDCHAR
STARTCHAR 0165
ENCODING 357
SWIDTH 558 0
DWIDTH 31 0
BBX 28 45 2 0
BITMAP
000007C0
00001FE0
00001FF0
00001FF0
00001FF0
00001FF0
0FF01FF0
0FF00FF0
0FF000F0
0FF00070
0FF00070
0FF000F0
0FF000E0
0FF001E0
0FF003C0
0FF00780
FFFFE600
FFFFE000
FFFFE000
FFFFE000
FFFFE000
FFFFE000
0FF00000
0FF00000
0FF00000
0FF00000
0FF00000
0FF00000
0FF00000
0FF00000
0FF00000
0FF00000
0FF00000
0FF00000
0FF00000
0FF00000
0FF00000
0FF00000
07F80000
07FE2000
07FFE000
07FFE000
03FFE000
01FFE000
00FFE000
ENDCHAR
STARTCHAR 0166
ENCODING 358
SWIDTH 576 0
DWIDTH 32 0
BBX 29 39 2 0
BITMAP
FFFFFFF8
FFFFFFF8
FFFFFFF8
FFFFFFF8
FFFFFFF8
FFFFFFF8
FFFFFFF8
001FC000
001FC000
001FC000
001FC000
001FC000
001FC000
001FC000
001FC000
001FC000
3FFFFFE0
3FFFFFE0
3FFFFFE0
3FFFFFE0
3FFFFFE0
001FC000
001FC000
001FC000
001FC000
001FC000
001FC000
001FC000
001FC000
001FC000
001FC000
001FC000
001FC000
001FC000
001FC000
001FC000
001FC000
001FC000
001FC000
ENDCHAR
STARTCHAR 0167
ENCODING 359
SWIDTH 414 0
DWIDTH 23 0
BBX 19 39 2 0
BITMAP
0FF000
0FF000
0FF000
0FF000
0FF000
0FF000
0FF000
0FF000
0FF000
0FF000
FFFFE0
FFFFE0
FFFFE0
FFFFE0
FFFFE0
FFFFE0
0FF000
0FF000
0FF000
0FF000
0FF000
FFFFE0
FFFFE0
FFFFE0
FFFFE0
0FF000
0FF000
0FF000
0FF000
0FF000
0FF000
07F000
07F800
07FE20
07FFE0
07FFE0
03FFE0
01FFE0
00FFE0
ENDCHAR
STARTCHAR 0168
ENCODING 360
SWIDTH 684 0
DWIDTH 38 0
BBX 32 52 3 -1
BITMAP
003E0780
007F8780
00FFFF80
00FFFF00
01FFFF00
01E1FF00
01E07C00
00000000
00000000
00000000
00000000
00000000
FF0000FF
FF0000FF
FF0000FF
FF0000FF
FF0000FF
FF0000FF
FF0000FF
FF0000FF
FF0000FF
FF0000FF
FF0000FF
FF0000FF
FF0000FF
FF0000FF
FF0000FF
FF0000FF
FF0000FF
FF0000FF
FF0000FF
FF0000FF
FF0000FF
FF0000FF
FF0000FF
FF0000FF
FF0000FF
FF0000FF
FF0000FF
7F8001FE
7F8001FE
7FC003FE
7FE007FE
3FF00FFC
3FFFFFFC
1FFFFFF8
0FFFFFF0
07FFFFE0
03FFFFC0
01FFFF80
003FFC00
00018000
ENDCHAR
STARTCHAR 0169
ENCODING 361
SWIDTH 576 0
DWIDTH 32 0
BBX 27 43 3 -1
BITMAP
00003C00
03F83C00
07FE7C00
07FFFC00
0FFFF800
0FBFF800
0F0FF000
0F01C000
00000000
00000000
00000000
00000000
00000000
FF001FE0
FF001FE0
FF001FE0
FF001FE0
FF001FE0
FF001FE0
FF001FE0
FF001FE0
FF001FE0
FF001FE0
FF001FE0
FF001FE0
FF001FE0
FF001FE0
FF001FE0
FF001FE0
FF001FE0
FF001FE0
FF001FE0
FF001FE0
FF803FE0
7F807FE0
7FE0FFE0
7FFFFFE0
3FFFFFE0
3FFFDFE0
1FFF9FE0
0FFF1FE0
07FE1FE0
00300000
ENDCHAR
STARTCHAR 016A
ENCODING 362
SWIDTH 684 0
DWIDTH 38 0
BBX 32 48 3 -1
BITMAP
01FFFF80
01FFFF80
01FFFF80
00000000
00000000
00000000
00000000
00000000
FF0000FF
FF0000FF
FF0000FF
FF0000FF
FF0000FF
FF0000FF
FF0000FF
FF0000FF
FF0000FF
FF0000FF
FF0000FF
FF0000FF
FF0000FF
FF0000FF
FF0000FF
FF0000FF
FF0000FF
FF0000FF
FF0000FF
FF0000FF
FF0000FF
FF0000FF
FF0000FF
FF0000FF
FF0000FF
FF0000FF
FF0000FF
7F8001FE
7F8001FE
7FC003FE
7FE007FE
3FF00FFC
3FFFFFFC
1FFFFFF8
0FFFFFF0
07FFFFE0
03FFFFC0
01FFFF80
003FFC00
00018000
ENDCHAR
STARTCHAR 016B
ENCODING 363
SWIDTH 576 0
DWIDTH 32 0
BBX 27 39 3 -1
BITMAP
0FFFFC00
0FFFFC00
0FFFFC00
0FFFFC00
00000000
00000000
00000000
00000000
00000000
FF001FE0
FF001FE0
FF001FE0
FF001FE0
FF001FE0
FF001FE0
FF001FE0
FF001FE0
FF001FE0
FF001FE0
FF001FE0
FF001FE0
FF001FE0
FF001FE0
FF001FE0
FF001FE0
FF001FE0
FF001FE0
FF001FE0
FF001FE0
FF803FE0
7F807FE0
7FE0FFE0
7FFFFFE0
3FFFFFE0
3FFFDFE0
1FFF9FE0
0FFF1FE0
07FE1FE0
00300000
ENDCHAR
STARTCHAR 016E
ENCODING 366
SWIDTH 684 0
DWIDTH 38 0
BBX 32 55 3 -1
BITMAP
0003C000
000FF000
001FF800
001E7800
001C3800
003C3800
001C3800
001E7800
001FF800
000FF000
0003C000
00000000
00000000
00000000
00000000
FF0000FF
FF0000FF
FF0000FF
FF0000FF
FF0000FF
FF0000FF
FF0000FF
FF0000FF
FF0000FF
FF0000FF
FF0000FF
FF0000FF
FF0000FF
FF0000FF
FF0000FF
FF0000FF
FF0000FF
FF0000FF
FF0000FF
FF0000FF
FF0000FF
FF0000FF
FF0000FF
FF0000FF
FF0000FF
FF0000FF
FF0000FF
7F8001FE
7F8001FE
7FC003FE
7FE007FE
3FF00FFC
3FFFFFFC
1FFFFFF8
0FFFFFF0
07FFFFE0
03FFFFC0
01FFFF80
003FFC00
00018000
ENDCHAR
STARTCHAR 016F
ENCODING 367
SWIDTH 576 0
DWIDTH 32 0
BBX 27 45 3 -1
BITMAP
003F0000
007F8000
00FFC000
00E1C000
00E1C000
00E1C000
00E1C000
00FFC000
007F8000
003F0000
000C0000
00000000
00000000
00000000
00000000
FF001FE0
FF001FE0
FF001FE0
FF001FE0
FF001FE0
FF001FE0
FF001FE0
FF001FE0
FF001FE0
FF001FE0
FF001FE0
FF001FE0
FF001FE0
FF001FE0
FF001FE0
FF001FE0
FF001FE0
FF001FE0
FF001FE0
FF001FE0
FF803FE0
7F807FE0
7FE0FFE0
7FFFFFE0
3FFFFFE0
3FFFDFE0
1FFF9FE0
0FFF1FE0
07FE1FE0
00300000
ENDCHAR
STARTCHAR 0172
ENCODING 370
SWIDTH 684 0
DWIDTH 38 0
BBX 32 49 3 -10
BITMAP
FF0000FF
FF0000FF
FF0000FF
FF0000FF
FF0000FF
FF0000FF
FF0000FF
FF0000FF
FF0000FF
FF0000FF
FF0000FF
FF0000FF
FF0000FF
FF0000FF
FF0000FF
FF0000FF
FF0000FF
FF0000FF
FF0000FF
FF0000FF
FF0000FF
FF0000FF
FF0000FF
FF0000FF
FF0000FF
FF0000FF
FF0000FF
7F8001FE
7F8001FE
7FC003FE
7FE007FE
3FF00FFC
3FFFFFFC
1FFFFFF8
0FFFFFF0
07FFFFE0
03FFFFC0
01FFFF80
007FFE00
0007E000
000FC000
000F8000
000F8000
001F8000
000FC000
000FF800
000FF800
0007F800
0001F800
ENDCHAR
STARTCHAR 0173
ENCODING 371
SWIDTH 576 0
DWIDTH 32 0
BBX 29 39 3 -10
BITMAP
FF001FE0
FF001FE0
FF001FE0
FF001FE0
FF001FE0
FF001FE0
FF001FE0
FF001FE0
FF001FE0
FF001FE0
FF001FE0
FF001FE0
FF001FE0
FF001FE0
FF001FE0
FF001FE0
FF001FE0
FF001FE0
FF001FE0
FF001FE0
FF803FE0
7F807FE0
7FE0FFE0
7FFFFFE0
3FFFFFE0
3FFFDFE0
1FFF9FE0
0FFF1FE0
07FE1FE0
00300FC0
00001F80
00001F00
00001F00
00001F00
00001F88
00001FF8
00000FF8
000007F8
000000F0
ENDCHAR
STARTCHAR 0174
ENCODING 372
SWIDTH 990 0
DWIDTH 55 0
BBX 54 51 1 0
BITMAP
000001FC000000
000003FE000000
000007FF000000
000007FF800000
00000FFFC00000
00001FCFE00000
00003F87F00000
00007F03F80000
0000FE03FC0000
00000000000000
00000000000000
00000000000000
FE0001FC0003FC
FF0001FC0003F8
FF0001FE0007F8
FF0003FE0007F8
7F0003FE0007F8
7F8003FF0007F0
7F8007FF000FF0
3F8007FF000FF0
3F8007FF800FF0
3FC00FFF800FE0
3FC00FFF800FE0
1FC00FFFC01FE0
1FC01FFFC01FE0
1FC01FFFC01FC0
1FE01FDFC01FC0
0FE01FDFE03FC0
0FE03FCFE03FC0
0FE03F8FE03F80
0FF03F8FF03F80
07F07F87F07F80
07F07F87F07F80
07F07F07F87F00
07F8FF07F87F00
03F8FF03F87F00
03F8FE03FCFE00
03F9FE03FCFE00
03F9FE01FCFE00
01FDFC01FCFE00
01FDFC01FFFC00
01FFFC00FFFC00
01FFF800FFFC00
00FFF800FFFC00
00FFF800FFF800
00FFF8007FF800
00FFF0007FF800
007FF0007FF800
007FF0003FF000
007FE0003FF000
007FE0003FF000
ENDCHAR
STARTCHAR 0175
ENCODING 373
SWIDTH 810 0
DWIDTH 45 0
BBX 43 42 1 0
BITMAP
00001F800000
00003FC00000
00007FE00000
0000FFF00000
0001FFF80000
0003FBFC0000
0003F9FC0000
0007F0FE0000
000FE07F0000
000000000000
000000000000
000000000000
000000000000
FE003F800FE0
7F003FC00FE0
7F003FC00FE0
7F007FC00FE0
7F007FE01FC0
3F807FE01FC0
3F807FE01FC0
3F80FFF01FC0
3F80FFF03F80
1FC0FFF03F80
1FC1FFF03F80
1FC1FFF83F80
1FC1FBF87F00
0FE1F9F87F00
0FE3F9FC7F00
0FE3F9FC7F00
07E3F1FC7E00
07F7F0FCFE00
07F7F0FEFE00
07F7F0FEFE00
03F7E07EFC00
03FFE07FFC00
03FFE07FFC00
03FFE07FFC00
01FFC03FF800
01FFC03FF800
01FFC03FF800
01FF803FF800
00FF801FF000
ENDCHAR
STARTCHAR 0176
ENCODING 374
SWIDTH 630 0
DWIDTH 35 0
BBX 32 51 2 0
BITMAP
000FE000
000FF000
001FF800
003FFC00
007FFE00
00FE7F00
01FC3F80
03F81FC0
07F00FE0
00000000
00000000
00000000
FF0000FF
FF0000FF
7F8001FE
7F8001FE
3FC003FC
3FC003FC
1FE007F8
1FE007F8
0FE00FF0
0FF00FF0
07F00FE0
07F81FE0
03F81FC0
03FC3FC0
01FC3F80
01FE7F80
00FE7F00
00FFFF00
007FFE00
007FFE00
003FFC00
003FFC00
001FF800
001FF800
000FF000
000FF000
000FF000
000FF000
000FF000
000FF000
000FF000
000FF000
000FF000
000FF000
000FF000
000FF000
000FF000
000FF000
000FF000
ENDCHAR
STARTCHAR 0177
ENCODING 375
SWIDTH 540 0
DWIDTH 30 0
BBX 29 54 1 -12
BITMAP
001F8000
001FC000
003FE000
007FF000
00FFF800
01FDFC00
03F8FE00
07F07F00
0FE03F80
00000000
00000000
00000000
00000000
FF0007F8
7F8007F0
7F800FF0
3F800FF0
3F800FE0
3FC01FE0
1FC01FC0
1FC01FC0
1FE03FC0
0FE03F80
0FE03F80
07F07F00
07F07F00
07F07F00
03F8FE00
03F8FE00
03F8FE00
01FDFC00
01FDFC00
01FDF800
00FFF800
00FFF800
007FF000
007FF000
007FE000
003FE000
003FE000
003FC000
001FC000
003FC000
003F8000
007F8000
007F0000
00FF0000
01FF0000
47FE0000
7FFE0000
7FFC0000
7FF80000
7FF00000
7FC00000
ENDCHAR
STARTCHAR 0178
ENCODING 376
SWIDTH 630 0
DWIDTH 35 0
BBX 32 53 2 0
BITMAP
00400000
03F007C0
03F80FE0
07F81FE0
07F81FF0
07F81FF0
07F81FE0
03F80FE0
01E007C0
00000000
00000000
00000000
00000000
00000000
FF0000FF
FF0000FF
7F8001FE
7F8001FE
3FC003FC
3FC003FC
1FE007F8
1FE007F8
0FE00FF0
0FF00FF0
07F00FE0
07F81FE0
03F81FC0
03FC3FC0
01FC3F80
01FE7F80
00FE7F00
00FFFF00
007FFE00
007FFE00
003FFC00
003FFC00
001FF800
001FF800
000FF000
000FF000
000FF000
000FF000
000FF000
000FF000
000FF000
000FF000
000FF000
000FF000
000FF000
000FF000
000FF000
000FF000
000FF000
ENDCHAR
STARTCHAR 0179
ENCODING 377
SWIDTH 612 0
DWIDTH 34 0
BBX 29 54 3 0
BITMAP
00007F00
0000FF00
0000FE00
0001FC00
0001FC00
0003F800
0003F000
0007F000
0007E000
000FC000
000FC000
00000000
00000000
00000000
00000000
FFFFFFF8
FFFFFFF8
FFFFFFF8
FFFFFFF8
FFFFFFF8
FFFFFFF8
FFFFFFF8
00001FF0
00003FE0
00003FE0
00007FC0
0000FF80
0001FF00
0003FE00
0003FE00
0007FC00
000FF800
001FF000
003FE000
003FE000
007FC000
00FF8000
01FF0000
03FE0000
03FE0000
07FC0000
0FF80000
1FF00000
3FE00000
3FE00000
7FC00000
FF800000
FFFFFFF8
FFFFFFF8
FFFFFFF8
FFFFFFF8
FFFFFFF8
FFFFFFF8
FFFFFFF8
ENDCHAR
STARTCHAR 017A
ENCODING 378
SWIDTH 486 0
DWIDTH 27 0
BBX 22 44 3 0
BITMAP
0007F8
0007F0
000FF0
000FE0
001FC0
001FC0
003F80
003F00
007F00
007E00
001C00
000000
000000
000000
000000
FFFFFC
FFFFFC
FFFFFC
FFFFFC
FFFFFC
FFFFFC
0007F8
0007F8
000FF0
001FE0
003FC0
007F80
00FF80
00FF00
01FE00
03FC00
07F800
0FF000
1FF000
1FE000
3FC000
7F8000
FF0000
FFFFFC
FFFFFC
FFFFFC
FFFFFC
FFFFFC
FFFFFC
ENDCHAR
STARTCHAR 017B
ENCODING 379
SWIDTH 612 0
DWIDTH 34 0
BBX 29 52 3 1
BITMAP
001F8000
001FC000
003FC000
003FE000
003FE000
003FC000
001FC000
000F8000
00000000
00000000
00000000
00000000
00000000
FFFFFFF8
FFFFFFF8
FFFFFFF8
FFFFFFF8
FFFFFFF8
FFFFFFF8
FFFFFFF8
00001FF0
00003FE0
00003FE0
00007FC0
0000FF80
0001FF00
0003FE00
0003FE00
0007FC00
000FF800
001FF000
003FE000
003FE000
007FC000
00FF8000
01FF0000
03FE0000
03FE0000
07FC0000
0FF80000
1FF00000
3FE00000
3FE00000
7FC00000
FF800000
FFFFFFF8
FFFFFFF8
FFFFFFF8
FFFFFFF8
FFFFFFF8
FFFFFFF8
FFFFFFF8
ENDCHAR
STARTCHAR 017C
ENCODING 380
SWIDTH 486 0
DWIDTH 27 0
BBX 22 43 3 0
BITMAP
007800
00FC00
01FE00
01FE00
01FE00
01FE00
01FE00
00FC00
001000
000000
000000
000000
000000
000000
FFFFFC
FFFFFC
FFFFFC
FFFFFC
FFFFFC
FFFFFC
0007F8
0007F8
000FF0
001FE0
003FC0
007F80
00FF80
00FF00
01FE00
03FC00
07F800
0FF000
1FF000
1FE000
3FC000
7F8000
FF0000
FFFFFC
FFFFFC
FFFFFC
FFFFFC
FFFFFC
FFFFFC
ENDCHAR
STARTCHAR 017D
ENCODING 381
SWIDTH 612 0
DWIDTH 34 0
BBX 29 51 3 0
BITMAP
0FE07F80
07F07F00
03F8FE00
01FDFC00
00FFF800
007FF000
003FE000
001FC000
001F8000
00000000
00000000
00000000
FFFFFFF8
FFFFFFF8
FFFFFFF8
FFFFFFF8
FFFFFFF8
FFFFFFF8
FFFFFFF8
00001FF0
00003FE0
00003FE0
00007FC0
0000FF80
0001FF00
0003FE00
0003FE00
0007FC00
000FF800
001FF000
003FE000
003FE000
007FC000
00FF8000
01FF0000
03FE0000
03FE0000
07FC0000
0FF80000
1FF00000
3FE00000
3FE00000
7FC00000
FF800000
FFFFFFF8
FFFFFFF8
FFFFFFF8
FFFFFFF8
FFFFFFF8
FFFFFFF8
FFFFFFF8
ENDCHAR
STARTCHAR 017E
ENCODING 382
SWIDTH 486 0
DWIDTH 27 0
BBX 22 42 3 0
BITMAP
7F01FC
7F03F8
3F87F0
1FCFE0
0FFFC0
07FF80
03FF00
01FE00
00FE00
000000
000000
000000
000000
FFFFFC
FFFFFC
FFFFFC
FFFFFC
FFFFFC
FFFFFC
0007F8
0007F8
000FF0
001FE0
003FC0
007F80
00FF80
00FF00
01FE00
03FC00
07F800
0FF000
1FF000
1FE000
3FC000
7F8000
FF0000
FFFFFC
FFFFFC
FFFFFC
FFFFFC
FFFFFC
FFFFFC
ENDCHAR
STARTCHAR 01A0
ENCODING 416
SWIDTH 720 0
DWIDTH 40 0
BBX 36 45 2 0
BITMAP
00000007E0
00000007E0
00000007E0
00000007E0
00000007E0
0001F80FC0
001FFFFFC0
007FFFFF80
00FFFFFF00
01FFFFFC00
03FFFFFE00
07FFFFFF00
0FFF0FFF00
1FFC01FF80
1FF000FF80
3FE0007FC0
3FE0007FC0
7FC0003FE0
7FC0003FE0
7F80001FE0
7F80001FE0
7F80001FF0
FF80001FF0
FF80000FF0
FF00000FF0
FF00000FF0
FF00000FF0
FF80000FF0
FF80001FF0
7F80001FF0
7F80001FE0
7F80001FE0
7FC0003FE0
7FC0003FE0
3FE0007FC0
3FE0007FC0
1FF000FF80
1FFC03FF80
0FFFDFFF00
07FFFFFE00
03FFFFFE00
01FFFFFC00
00FFFFF000
007FFFE000
000FFF0000
ENDCHAR
STARTCHAR 01A1
ENCODING 417
SWIDTH 594 0
DWIDTH 33 0
BBX 30 35 2 0
BITMAP
000000FC
000000FC
000000FC
000000FC
000000FC
003FC3F8
00FFFFF8
03FFFFF0
07FFFFC0
0FFFFF80
1FFFFFC0
3FF0FFC0
3FE03FE0
7FC01FE0
7F800FF0
7F800FF0
7F000FF0
FF0007F0
FF0007F0
FF0007F0
FF0007F0
FF0007F0
FF0007F0
7F000FF0
7F000FF0
7F800FF0
7F801FE0
3FC03FE0
3FE07FC0
1FFFFFC0
1FFFFF80
0FFFFF00
07FFFE00
01FFFC00
007FF000
ENDCHAR
STARTCHAR 01AF
ENCODING 431
SWIDTH 684 0
DWIDTH 38 0
BBX 38 46 3 -1
BITMAP
000000007C
000000007C
000000007C
000000007C
000000007C
00000000FC
FF0000FFFC
FF0000FFF8
FF0000FFE0
FF0000FF00
FF0000FF00
FF0000FF00
FF0000FF00
FF0000FF00
FF0000FF00
FF0000FF00
FF0000FF00
FF0000FF00
FF0000FF00
FF0000FF00
FF0000FF00
FF0000FF00
FF0000FF00
FF0000FF00
FF0000FF00
FF0000FF00
FF0000FF00
FF0000FF00
FF0000FF00
FF0000FF00
FF0000FF00
FF0000FF00
FF0000FF00
7F8001FE00
7F8001FE00
7FC003FE00
7FE007FE00
3FF00FFC00
3FFFFFFC00
1FFFFFF800
0FFFFFF000
07FFFFE000
03FFFFC000
01FFFF8000
003FFC0000
0001800000
ENDCHAR
STARTCHAR 01B0
ENCODING 432
SWIDTH 594 0
DWIDTH 33 0
BBX 33 36 3 -1
BITMAP
0000000F80
0000000F80
0000000F80
0000000F80
0000001F80
0000003F80
FF001FFF00
FF001FFE00
FF001FFC00
FF001FE000
FF001FE000
FF001FE000
FF001FE000
FF001FE000
FF001FE000
FF001FE000
FF001FE000
FF001FE000
FF001FE000
FF001FE000
FF001FE000
FF001FE000
FF001FE000
FF001FE000
FF001FE000
FF001FE000
FF803FE000
7F807FE000
7FE0FFE000
7FFFFFE000
3FFFFFE000
3FFFDFE000
1FFF9FE000
0FFF1FE000
07FE1FE000
0030000000
ENDCHAR
STARTCHAR 02C6
ENCODING 710
SWIDTH 450 0
DWIDTH 25 0
BBX 21 9 2 33
BITMAP
00FC00
01FE00
03FE00
07FF00
0FFF80
1FDFC0
3F8FE0
7F07F0
FE03F8
ENDCHAR
STARTCHAR 02C7
ENCODING 711
SWIDTH 432 0
DWIDTH 24 0
BBX 21 9 2 33
BITMAP
FE03F8
7F07F0
3F8FE0
3F9FC0
1FFF80
0FFF80
07FF00
03FE00
01FC00
ENDCHAR
STARTCHAR 02D8
ENCODING 728
SWIDTH 414 0
DWIDTH 23 0
BBX 20 6 2 33
BITMAP
FC03F0
7E07E0
7FFFE0
3FFFC0
1FFF00
07FE00
ENDCHAR
STARTCHAR 02D9
ENCODING 729
SWIDTH 198 0
DWIDTH 11 0
BBX 9 9 2 34
BITMAP
3C00
7F00
FF00
FF80
FF80
FF80
7F00
7E00
0800
ENDCHAR
STARTCHAR 02DA
ENCODING 730
SWIDTH 252 0
DWIDTH 14 0
BBX 11 11 2 33
BITMAP
3F00
7F80
FFC0
F1C0
E1E0
E1E0
E1E0
FFC0
7F80
3F00
0400
ENDCHAR
STARTCHAR 02DB
ENCODING 731
SWIDTH 234 0
DWIDTH 13 0
BBX 10 12 2 -12
BITMAP
1800
3E00
7E00
F800
F800
F800
F800
FFC0
FFC0
7FC0
3FC0
0300
ENDCHAR
STARTCHAR 02DC
ENCODING 732
SWIDTH 396 0
DWIDTH 22 0
BBX 18 8 2 34
BITMAP
0003C0
3F83C0
7FE3C0
7FFFC0
FFFF80
FBFF80
F0FF00
F01C00
ENDCHAR
STARTCHAR 0300
ENCODING 768
SWIDTH 0 0
DWIDTH 0 0
BBX 13 11 -14 34
BITMAP
FF00
7F00
7F80
3F80
1FC0
1FC0
0FE0
07E0
07F0
03F0
01F8
ENDCHAR
STARTCHAR 0301
ENCODING 769
SWIDTH 0 0
DWIDTH 0 0
BBX 13 11 -13 34
BITMAP
07F8
07F0
0FF0
0FE0
1FC0
1FC0
3F80
3F00
7F00
7E00
FE00
ENDCHAR
STARTCHAR 0302
ENCODING 770
SWIDTH 0 0
DWIDTH 0 0
BBX 21 9 -21 33
BITMAP
01F800
01FC00
03FE00
07FF00
0FFF80
1FDFC0
3F8FE0
7F07F0
FE03F8
ENDCHAR
STARTCHAR 0303
ENCODING 771
SWIDTH 0 0
DWIDTH 0 0
BBX 17 8 -19 34
BITMAP
000780
3F8780
7FE780
FFFF80
FFFF80
FBFF80
F0FF00
F01C00
ENDCHAR
STARTCHAR 0304
ENCODING 772
SWIDTH 0 0
DWIDTH 0 0
BBX 18 4 -23 36
BITMAP
FFFFC0
FFFFC0
FFFFC0
FFFFC0
ENDCHAR
STARTCHAR 0306
ENCODING 774
SWIDTH 0 0
DWIDTH 0 0
BBX 20 6 -21 33
BITMAP
FC03F0
7E07E0
7FFFE0
3FFFC0
1FFF80
07FE00
ENDCHAR
STARTCHAR 0307
ENCODING 775
SWIDTH 0 0
DWIDTH 0 0
BBX 9 9 -12 34
BITMAP
3C00
7F00
7F00
FF80
FF80
FF80
7F00
3E00
0800
ENDCHAR
STARTCHAR 0308
ENCODING 776
SWIDTH 0 0
DWIDTH 0 0
BBX 23 9 -26 34
BITMAP
3C0070
7F01FC
FF01FC
FF83FE
FF83FE
FF83FE
7F01FC
7E00F8
080070
ENDCHAR
STARTCHAR 0309
ENCODING 777
SWIDTH 0 0
DWIDTH 0 0
BBX 14 12 -16 34
BITMAP
0300
1FF0
7FF8
7FFC
FFFC
FC7C
007C
007C
00F8
01F8
07E0
0FC0
ENDCHAR
STARTCHAR 030A
ENCODING 778
SWIDTH 0 0
DWIDTH 0 0
BBX 11 11 -14 33
BITMAP
1F80
3FC0
7FE0
F1E0
F0E0
E0E0
F0E0
7FE0
7FC0
3F80
0C00
ENDCHAR
STARTCHAR 030C
ENCODING 780
SWIDTH 0 0
DWIDTH 0 0
BBX 21 9 -23 33
BITMAP
FE03F8
7F07F0
7F0FE0
3F9FC0
1FFF80
0FFF00
07FF00
03FE00
01FC00
ENDCHAR
STARTCHAR 031B
ENCODING 795
SWIDTH 0 0
DWIDTH 0 0
BBX 12 9 -13 34
BITMAP
03F0
03F0
03F0
03F0
03F0
07E0
FFE0
FFC0
FF80
ENDCHAR
STARTCHAR 0323
ENCODING 803
SWIDTH 0 0
DWIDTH 0 0
BBX 9 9 -9 -14
BITMAP
0800
3E00
7F00
FF00
FF80
FF00
7F00
3E00
0800
ENDCHAR
STARTCHAR 0327
ENCODING 807
SWIDTH 0 0
DWIDTH 0 0
BBX 11 14 -13 -14
BITMAP
3C00
7800
7C00
7F80
7FC0
FFE0
01E0
00E0
01E0
43E0
7FE0
7FC0
7F80
3E00
ENDCHAR
STARTCHAR 0328
ENCODING 808
SWIDTH 0 0
DWIDTH 0 0
BBX 10 12 -12 -12
BITMAP
0C00
3E00
7E00
7C00
F800
F800
F800
FFC0
7FC0
7FC0
3FC0
0300
ENDCHAR
STARTCHAR 1E80
ENCODING 7808
SWIDTH 990 0
DWIDTH 55 0
BBX 54 54 1 0
BITMAP
00007F00000000
00007F80000000
00003F80000000
00001FC0000000
00001FC0000000
00000FE0000000
000007E0000000
000007F0000000
000003F0000000
000001F8000000
000001F8000000
00000000000000
00000000000000
00000000000000
00000000000000
FE0001FC0003FC
FF0001FC0003F8
FF0001FE0007F8
FF0003FE0007F8
7F0003FE0007F8
7F8003FF0007F0
7F8007FF000FF0
3F8007FF000FF0
3F8007FF800FF0
3FC00FFF800FE0
3FC00FFF800FE0
1FC00FFFC01FE0
1FC01FFFC01FE0
1FC01FFFC01FC0
1FE01FDFC01FC0
0FE01FDFE03FC0
0FE03FCFE03FC0
0FE03F8FE03F80
0FF03F8FF03F80
07F07F87F07F80
07F07F87F07F80
07F07F07F87F00
07F8FF07F87F00
03F8FF03F87F00
03F8FE03FCFE00
03F9FE03FCFE00
03F9FE01FCFE00
01FDFC01FCFE00
01FDFC01FFFC00
01FFFC00FFFC00
01FFF800FFFC00
00FFF800FFFC00
00FFF800FFF800
00FFF8007FF800
00FFF0007FF800
007FF0007FF800
007FF0003FF000
007FE0003FF000
007FE0003FF000
ENDCHAR
STARTCHAR 1E81
ENCODING 7809
SWIDTH 810 0
DWIDTH 45 0
BBX 43 44 1 0
BITMAP
000FF0000000
0007F0000000
0007F8000000
0003F8000000
0001FC000000
0001FC000000
0000FE000000
00007E000000
00007F000000
00003F000000
000000000000
000000000000
000000000000
000000000000
000000000000
FE003F800FE0
7F003FC00FE0
7F003FC00FE0
7F007FC00FE0
7F007FE01FC0
3F807FE01FC0
3F807FE01FC0
3F80FFF01FC0
3F80FFF03F80
1FC0FFF03F80
1FC1FFF03F80
1FC1FFF83F80
1FC1FBF87F00
0FE1F9F87F00
0FE3F9FC7F00
0FE3F9FC7F00
07E3F1FC7E00
07F7F0FCFE00
07F7F0FEFE00
07F7F0FEFE00
03F7E07EFC00
03FFE07FFC00
03FFE07FFC00
03FFE07FFC00
01FFC03FF800
01FFC03FF800
01FFC03FF800
01FF803FF800
00FF801FF000
ENDCHAR
STARTCHAR 1E82
ENCODING 7810
SWIDTH 990 0
DWIDTH 55 0
BBX 54 54 1 0
BITMAP
00000007F80000
00000007F00000
0000000FE00000
0000001FE00000
0000001FC00000
0000003F800000
0000003F800000
0000007F000000
0000007E000000
000000FE000000
000000FC000000
00000000000000
00000000000000
00000000000000
00000000000000
FE0001FC0003FC
FF0001FC0003F8
FF0001FE0007F8
FF0003FE0007F8
7F0003FE0007F8
7F8003FF0007F0
7F8007FF000FF0
3F8007FF000FF0
3F8007FF800FF0
3FC00FFF800FE0
3FC00FFF800FE0
1FC00FFFC01FE0
1FC01FFFC01FE0
1FC01FFFC01FC0
1FE01FDFC01FC0
0FE01FDFE03FC0
0FE03FCFE03FC0
0FE03F8FE03F80
0FF03F8FF03F80
07F07F87F07F80
07F07F87F07F80
07F07F07F87F00
07F8FF07F87F00
03F8FF03F87F00
03F8FE03FCFE00
03F9FE03FCFE00
03F9FE01FCFE00
01FDFC01FCFE00
01FDFC01FFFC00
01FFFC00FFFC00
01FFF800FFFC00
00FFF800FFFC00
00FFF800FFF800
00FFF8007FF800
00FFF0007FF800
007FF0007FF800
007FF0003FF000
007FE0003FF000
007FE0003FF000
ENDCHAR
STARTCHAR 1E83
ENCODING 7811
SWIDTH 810 0
DWIDTH 45 0
BBX 43 44 1 0
BITMAP
000000FF0000
000000FE0000
000001FC0000
000001FC0000
000003F80000
000003F00000
000007F00000
00000FE00000
00000FC00000
00001FC00000
000003800000
000000000000
000000000000
000000000000
000000000000
FE003F800FE0
7F003FC00FE0
7F003FC00FE0
7F007FC00FE0
7F007FE01FC0
3F807FE01FC0
3F807FE01FC0
3F80FFF01FC0
3F80FFF03F80
1FC0FFF03F80
1FC1FFF03F80
1FC1FFF83F80
1FC1FBF87F00
0FE1F9F87F00
0FE3F9FC7F00
0FE3F9FC7F00
07E3F1FC7E00
07F7F0FCFE00
07F7F0FEFE00
07F7F0FEFE00
03F7E07EFC00
03FFE07FFC00
03FFE07FFC00
03FFE07FFC00
01FFC03FF800
01FFC03FF800
01FFC03FF800
01FF803FF800
00FF801FF000
ENDCHAR
STARTCHAR 1E84
ENCODING 7812
SWIDTH 990 0
DWIDTH 55 0
BBX 54 52 1 1
BITMAP
00007E01F80000
0000FF03FC0000
0000FF03FC0000
0000FF03FC0000
0000FF03FC0000
0000FF03FC0000
00007E01F80000
00003C00F00000
00000000000000
00000000000000
00000000000000
00000000000000
00000000000000
FE0001FC0003FC
FF0001FC0003F8
FF0001FE0007F8
FF0003FE0007F8
7F0003FE0007F8
7F8003FF0007F0
7F8007FF000FF0
3F8007FF000FF0
3F8007FF800FF0
3FC00FFF800FE0
3FC00FFF800FE0
1FC00FFFC01FE0
1FC01FFFC01FE0
1FC01FFFC01FC0
1FE01FDFC01FC0
0FE01FDFE03FC0
0FE03FCFE03FC0
0FE03F8FE03F80
0FF03F8FF03F80
07F07F87F07F80
07F07F87F07F80
07F07F07F87F00
07F8FF07F87F00
03F8FF03F87F00
03F8FE03FCFE00
03F9FE03FCFE00
03F9FE01FCFE00
01FDFC01FCFE00
01FDFC01FFFC00
01FFFC00FFFC00
01FFF800FFFC00
00FFF800FFFC00
00FFF800FFF800
00FFF8007FF800
00FFF0007FF800
007FF0007FF800
007FF0003FF000
007FE0003FF000
007FE0003FF000
ENDCHAR
STARTCHAR 1E85
ENCODING 7813
SWIDTH 810 0
DWIDTH 45 0
BBX 43 43 1 0
BITMAP
0007801E0000
000FC03F8000
001FE07F8000
001FE07FC000
001FF07FC000
001FE07F8000
000FE03F8000
000FC03F0000
000100040000
000000000000
000000000000
000000000000
000000000000
000000000000
FE003F800FE0
7F003FC00FE0
7F003FC00FE0
7F007FC00FE0
7F007FE01FC0
3F807FE01FC0
3F807FE01FC0
3F80FFF01FC0
3F80FFF03F80
1FC0FFF03F80
1FC1FFF03F80
1FC1FFF83F80
1FC1FBF87F00
0FE1F9F87F00
0FE3F9FC7F00
0FE3F9FC7F00
07E3F1FC7E00
07F7F0FCFE00
07F7F0FEFE00
07F7F0FEFE00
03F7E07EFC00
03FFE07FFC00
03FFE07FFC00
03FFE07FFC00
01FFC03FF800
01FFC03FF800
01FFC03FF800
01FF803FF800
00FF801FF000
ENDCHAR
STARTCHAR 1EA0
ENCODING 7840
SWIDTH 666 0
DWIDTH 37 0
BBX 35 53 1 -14
BITMAP
0003FC0000
0003FC0000
0007FC0000
0007FE0000
0007FE0000
000FFE0000
000FFF0000
000FFF0000
001FFF8000
001FFF8000
001FBF8000
003F9FC000
003F9FC000
007F1FC000
007F0FE000
007F0FE000
00FE0FE000
00FE07F000
00FE07F000
01FC07F000
01FC03F800
01FC03F800
03F803FC00
03FFFFFC00
07FFFFFC00
07FFFFFE00
07FFFFFE00
0FFFFFFE00
0FFFFFFF00
0FE0007F00
1FE0007F00
1FE0007F80
1FC0003F80
3FC0003F80
3FC0003FC0
3F80001FC0
7F80001FE0
7F80001FE0
FF00001FE0
0000000000
0000000000
0000000000
0000000000
0000000000
0000400000
0001F80000
0003F80000
0003FC0000
0003FC0000
0003FC0000
0003F80000
0001F80000
0000400000
ENDCHAR
STARTCHAR 1EA1
ENCODING 7841
SWIDTH 612 0
DWIDTH 34 0
BBX 29 43 2 -14
BITMAP
00FE0000
03FF87F8
07FFE7F8
0FFFE7F8
1FFFF7F8
3FFFFFF8
3FF0FFF8
7FE03FF8
7FC01FF8
7F800FF8
FF800FF8
FF0007F8
FF0007F8
FF0007F8
FF0007F8
FF0007F8
FF0007F8
FF0007F8
FF0007F8
FF000FF8
7F800FF8
7F801FF8
7FC01FF8
7FE07FF8
3FFFFFF8
3FFFF7F8
1FFFF7F8
0FFFE7F8
07FFC7F8
01FF07F8
00000000
00000000
00000000
00000000
00000000
00000000
000FC000
001FE000
001FE000
001FE000
001FE000
001FE000
000FC000
ENDCHAR
STARTCHAR 1EA2
ENCODING 7842
SWIDTH 666 0
DWIDTH 37 0
BBX 35 54 1 1
BITMAP
0007FC0000
000FFE0000
001FFF0000
001FFF8000
001F0F8000
00000F8000
00001F8000
00001F0000
00007E0000
0000FC0000
0001F80000
0000000000
0000000000
0000000000
0000000000
0003FC0000
0003FC0000
0007FC0000
0007FE0000
0007FE0000
000FFE0000
000FFF0000
000FFF0000
001FFF8000
001FFF8000
001FBF8000
003F9FC000
003F9FC000
007F1FC000
007F0FE000
007F0FE000
00FE0FE000
00FE07F000
00FE07F000
01FC07F000
01FC03F800
01FC03F800
03F803FC00
03FFFFFC00
07FFFFFC00
07FFFFFE00
07FFFFFE00
0FFFFFFE00
0FFFFFFF00
0FE0007F00
1FE0007F00
1FE0007F80
1FC0003F80
3FC0003F80
3FC0003FC0
3F80001FC0
7F80001FE0
7F80001FE0
FF00001FE0
ENDCHAR
STARTCHAR 1EA3
ENCODING 7843
SWIDTH 612 0
DWIDTH 34 0
BBX 29 45 2 0
BITMAP
000FC000
003FF000
007FF800
00FFFC00
00FCFC00
00F87C00
00007C00
0000FC00
0001F800
0003F000
0007E000
000FC000
00000000
00000000
00000000
00FE0000
03FF87F8
07FFE7F8
0FFFE7F8
1FFFF7F8
3FFFFFF8
3FF0FFF8
7FE03FF8
7FC01FF8
7F800FF8
FF800FF8
FF0007F8
FF0007F8
FF0007F8
FF0007F8
FF0007F8
FF0007F8
FF0007F8
FF0007F8
FF000FF8
7F800FF8
7F801FF8
7FC01FF8
7FE07FF8
3FFFFFF8
3FFFF7F8
1FFFF7F8
0FFFE7F8
07FFC7F8
01FF07F8
ENDCHAR
STARTCHAR 1EA4
ENCODING 7844
SWIDTH 666 0
DWIDTH 37 0
BBX 38 60 1 0
BITMAP
00000003FC
00000003F8
00000007F0
00000007F0
0000000FE0
0000000FC0
0000001FC0
0000001F80
0000003F00
0003F83F00
0007FC0000
0007FE0000
000FFF0000
001FFF8000
003F9FC000
007F0FE000
00FE07F000
01FC03F800
0000000000
0000000000
0000000000
0003FC0000
0003FC0000
0007FC0000
0007FE0000
0007FE0000
000FFE0000
000FFF0000
000FFF0000
001FFF8000
001FFF8000
001FBF8000
003F9FC000
003F9FC000
007F1FC000
007F0FE000
007F0FE000
00FE0FE000
00FE07F000
00FE07F000
01FC07F000
01FC03F800
01FC03F800
03F803FC00
03FFFFFC00
07FFFFFC00
07FFFFFE00
07FFFFFE00
0FFFFFFE00
0FFFFFFF00
0FE0007F00
1FE0007F00
1FE0007F80
1FC0003F80
3FC0003F80
3FC0003FC0
3F80001FC0
7F80001FE0
7F80001FE0
FF00001FE0
ENDCHAR
STARTCHAR 1EA5
ENCODING 7845
SWIDTH 612 0
DWIDTH 34 0
BBX 35 51 2 0
BITMAP
0000000FE0
0000001FE0
0000001FC0
0000003F80
0000003F80
0000007F00
0000007E00
000000FE00
000000FC00
000FC1F800
001FE1F800
003FF00000
007FF80000
00FFFC0000
00FEFE0000
01FCFF0000
03F87F0000
07F03F8000
0000000000
0000000000
0000000000
00FE000000
03FF87F800
07FFE7F800
0FFFE7F800
1FFFF7F800
3FFFFFF800
3FF0FFF800
7FE03FF800
7FC01FF800
7F800FF800
FF800FF800
FF0007F800
FF0007F800
FF0007F800
FF0007F800
FF0007F800
FF0007F800
FF0007F800
FF0007F800
FF000FF800
7F800FF800
7F801FF800
7FC01FF800
7FE07FF800
3FFFFFF800
3FFFF7F800
1FFFF7F800
0FFFE7F800
07FFC7F800
01FF07F800
ENDCHAR
STARTCHAR 1EA6
ENCODING 7846
SWIDTH 666 0
DWIDTH 37 0
BBX 35 60 1 0
BITMAP
00001FE000
00000FE000
000007F000
000007F000
000003F800
000001F800
000001FC00
000000FC00
0000007E00
0003F87E00
0007FC0000
0007FE0000
000FFF0000
001FFF8000
003F9FC000
007F0FE000
00FE07F000
01FC03F800
0000000000
0000000000
0000000000
0003FC0000
0003FC0000
0007FC0000
0007FE0000
0007FE0000
000FFE0000
000FFF0000
000FFF0000
001FFF8000
001FFF8000
001FBF8000
003F9FC000
003F9FC000
007F1FC000
007F0FE000
007F0FE000
00FE0FE000
00FE07F000
00FE07F000
01FC07F000
01FC03F800
01FC03F800
03F803FC00
03FFFFFC00
07FFFFFC00
07FFFFFE00
07FFFFFE00
0FFFFFFE00
0FFFFFFF00
0FE0007F00
1FE0007F00
1FE0007F80
1FC0003F80
3FC0003F80
3FC0003FC0
3F80001FC0
7F80001FE0
7F80001FE0
FF00001FE0
ENDCHAR
STARTCHAR 1EA7
ENCODING 7847
SWIDTH 612 0
DWIDTH 34 0
BBX 29 51 2 0
BITMAP
0000FF00
00007F00
00003F80
00003F80
00001FC0
00001FC0
00000FE0
000007E0
000007F0
000FC3F0
001FE1F8
003FF000
007FF800
00FFFC00
00FEFE00
01FCFF00
03F87F00
07F03F80
00000000
00000000
00000000
00FE0000
03FF87F8
07FFE7F8
0FFFE7F8
1FFFF7F8
3FFFFFF8
3FF0FFF8
7FE03FF8
7FC01FF8
7F800FF8
FF800FF8
FF0007F8
FF0007F8
FF0007F8
FF0007F8
FF0007F8
FF0007F8
FF0007F8
FF0007F8
FF000FF8
7F800FF8
7F801FF8
7FC01FF8
7FE07FF8
3FFFFFF8
3FFFF7F8
1FFFF7F8
0FFFE7F8
07FFC7F8
01FF07F8
ENDCHAR
STARTCHAR 1EA8
ENCODING 7848
SWIDTH 666 0
DWIDTH 37 0
BBX 35 62 1 0
BITMAP
0000003800
000000FF80
000003FFC0
000003FFE0
000007FFE0
000007E3E0
00000003E0
00000003E0
00000007C0
0000001FC0
0000003F00
0003F87E00
0007FC0000
0007FE0000
000FFF0000
001FFF8000
003F9FC000
007F0FE000
00FE07F000
01FC03F800
0000000000
0000000000
0000000000
0003FC0000
0003FC0000
0007FC0000
0007FE0000
0007FE0000
000FFE0000
000FFF0000
000FFF0000
001FFF8000
001FFF8000
001FBF8000
003F9FC000
003F9FC000
007F1FC000
007F0FE000
007F0FE000
00FE0FE000
00FE07F000
00FE07F000
01FC07F000
01FC03F800
01FC03F800
03F803FC00
03FFFFFC00
07FFFFFC00
07FFFFFE00
07FFFFFE00
0FFFFFFE00
0FFFFFFF00
0FE0007F00
1FE0007F00
1FE0007F80
1FC0003F80
3FC0003F80
3FC0003FC0
3F80001FC0
7F80001FE0
7F80001FE0
FF00001FE0
ENDCHAR
STARTCHAR 1EA9
ENCODING 7849
SWIDTH 612 0
DWIDTH 34 0
BBX 32 52 2 0
BITMAP
000003F8
00000FFE
00001FFF
00001FFF
00003F1F
00003F1F
0000001F
0000001F
0000003E
000000FC
000FC1F8
001FE000
003FF000
007FF800
00FFFC00
00FEFE00
01FCFF00
03F87F80
07F03F80
00000000
00000000
00000000
00FE0000
03FF87F8
07FFE7F8
0FFFE7F8
1FFFF7F8
3FFFFFF8
3FF0FFF8
7FE03FF8
7FC01FF8
7F800FF8
FF800FF8
FF0007F8
FF0007F8
FF0007F8
FF0007F8
FF0007F8
FF0007F8
FF0007F8
FF0007F8
FF000FF8
7F800FF8
7F801FF8
7FC01FF8
7FE07FF8
3FFFFFF8
3FFFF7F8
1FFFF7F8
0FFFE7F8
07FFC7F8
01FF07F8
ENDCHAR
STARTCHAR 1EAA
ENCODING 7850
SWIDTH 666 0
DWIDTH 37 0
BBX 35 61 1 0
BITMAP
000701E000
001FE1E000
003FFFE000
007FFFC000
007FFFC000
0078FF8000
00783F8000
0000000000
0000000000
0000000000
0003F80000
0007FC0000
000FFE0000
001FFF0000
001FFF8000
003F9FC000
007F0FE000
00FE07F000
01FC07F800
0000000000
0000000000
0000000000
0003FC0000
0003FC0000
0007FC0000
0007FE0000
0007FE0000
000FFE0000
000FFF0000
000FFF0000
001FFF8000
001FFF8000
001FBF8000
003F9FC000
003F9FC000
007F1FC000
007F0FE000
007F0FE000
00FE0FE000
00FE07F000
00FE07F000
01FC07F000
01FC03F800
01FC03F800
03F803FC00
03FFFFFC00
07FFFFFC00
07FFFFFE00
07FFFFFE00
0FFFFFFE00
0FFFFFFF00
0FE0007F00
1FE0007F00
1FE0007F80
1FC0003F80
3FC0003F80
3FC0003FC0
3F80001FC0
7F80001FE0
7F80001FE0
FF00001FE0
ENDCHAR
STARTCHAR 1EAB
ENCODING 7851
SWIDTH 612 0
DWIDTH 34 0
BBX 29 51 2 0
BITMAP
007E0F00
00FF8F00
01FFFF00
01FFFE00
03FFFE00
03C3FC00
03C0F800
00000000
00000000
000FC000
001FE000
003FF000
007FF800
00FFFC00
01FDFE00
01FCFE00
03F87F00
07F03F80
00000000
00000000
00000000
00FE0000
03FF87F8
07FFE7F8
0FFFE7F8
1FFFF7F8
3FFFFFF8
3FF0FFF8
7FE03FF8
7FC01FF8
7F800FF8
FF800FF8
FF0007F8
FF0007F8
FF0007F8
FF0007F8
FF0007F8
FF0007F8
FF0007F8
FF0007F8
FF000FF8
7F800FF8
7F801FF8
7FC01FF8
7FE07FF8
3FFFFFF8
3FFFF7F8
1FFFF7F8
0FFFE7F8
07FFC7F8
01FF07F8
ENDCHAR
STARTCHAR 1EAC
ENCODING 7852
SWIDTH 666 0
DWIDTH 37 0
BBX 35 65 1 -14
BITMAP
0003F80000
0007FC0000
0007FE0000
000FFF0000
001FFF8000
003F9FC000
007F0FE000
00FE07F000
01FC03F800
0000000000
0000000000
0000000000
0003FC0000
0003FC0000
0007FC0000
0007FE0000
0007FE0000
000FFE0000
000FFF0000
000FFF0000
001FFF8000
001FFF8000
001FBF8000
003F9FC000
003F9FC000
007F1FC000
007F0FE000
007F0FE000
00FE0FE000
00FE07F000
00FE07F000
01FC07F000
01FC03F800
01FC03F800
03F803FC00
03FFFFFC00
07FFFFFC00
07FFFFFE00
07FFFFFE00
0FFFFFFE00
0FFFFFFF00
0FE0007F00
1FE0007F00
1FE0007F80
1FC0003F80
3FC0003F80
3FC0003FC0
3F80001FC0
7F80001FE0
7F80001FE0
FF00001FE0
0000000000
0000000000
0000000000
0000000000
0000000000
0000400000
0001F80000
0003F80000
0003FC0000
0003FC0000
0003FC0000
0003F80000
0001F80000
0000400000
ENDCHAR
STARTCHAR 1EAD
ENCODING 7853
SWIDTH 612 0
DWIDTH 34 0
BBX 29 55 2 -14
BITMAP
000FC000
001FE000
003FF000
007FF800
00FFFC00
00FEFE00
01FCFF00
03F87F00
07F03F80
00000000
00000000
00000000
00FE0000
03FF87F8
07FFE7F8
0FFFE7F8
1FFFF7F8
3FFFFFF8
3FF0FFF8
7FE03FF8
7FC01FF8
7F800FF8
FF800FF8
FF0007F8
FF0007F8
FF0007F8
FF0007F8
FF0007F8
FF0007F8
FF0007F8
FF0007F8
FF000FF8
7F800FF8
7F801FF8
7FC01FF8
7FE07FF8
3FFFFFF8
3FFFF7F8
1FFFF7F8
0FFFE7F8
07FFC7F8
01FF07F8
00000000
00000000
00000000
00000000
00000000
00000000
000FC000
001FE000
001FE000
001FE000
001FE000
001FE000
000FC000
ENDCHAR
STARTCHAR 1EAE
ENCODING 7854
SWIDTH 666 0
DWIDTH 37 0
BBX 35 63 1 0
BITMAP
00000FF000
00001FE000
00001FC000
00003FC000
00003F8000
00007F0000
00007F0000
0000FE0000
0000FC0000
0001FC0000
0001F80000
0000000000
0000000000
00FC03F000
00FE07E000
007F1FE000
003FFFC000
001FFF8000
000FFE0000
0003F80000
0000000000
0000000000
0000000000
0000000000
0003FC0000
0003FC0000
0007FC0000
0007FE0000
0007FE0000
000FFE0000
000FFF0000
000FFF0000
001FFF8000
001FFF8000
001FBF8000
003F9FC000
003F9FC000
007F1FC000
007F0FE000
007F0FE000
00FE0FE000
00FE07F000
00FE07F000
01FC07F000
01FC03F800
01FC03F800
03F803FC00
03FFFFFC00
07FFFFFC00
07FFFFFE00
07FFFFFE00
0FFFFFFE00
0FFFFFFF00
0FE0007F00
1FE0007F00
1FE0007F80
1FC0003F80
3FC0003F80
3FC0003FC0
3F80001FC0
7F80001FE0
7F80001FE0
FF00001FE0
ENDCHAR
STARTCHAR 1EAF
ENCODING 7855
SWIDTH 612 0
DWIDTH 34 0
BBX 29 54 2 0
BITMAP
00003F80
00007F80
00007F00
0000FE00
0000FE00
0001FC00
0003F800
0003F800
0007F000
0007E000
000FE000
00000000
00000000
00000000
07E01F80
03F03F00
03FFFF00
01FFFE00
00FFFC00
003FF000
00000000
00000000
00000000
00000000
00FE0000
03FF87F8
07FFE7F8
0FFFE7F8
1FFFF7F8
3FFFFFF8
3FF0FFF8
7FE03FF8
7FC01FF8
7F800FF8
FF800FF8
FF0007F8
FF0007F8
FF0007F8
FF0007F8
FF0007F8
FF0007F8
FF0007F8
FF0007F8
FF000FF8
7F800FF8
7F801FF8
7FC01FF8
7FE07FF8
3FFFFFF8
3FFFF7F8
1FFFF7F8
0FFFE7F8
07FFC7F8
01FF07F8
ENDCHAR
STARTCHAR 1EB0
ENCODING 7856
SWIDTH 666 0
DWIDTH 37 0
BBX 35 63 1 0
BITMAP
00FF000000
007F000000
007F800000
003F800000
001FC00000
001FC00000
000FE00000
0007E00000
0007F00000
0003F00000
0001F80000
0000000000
0000000000
00FC03F000
00FE07F000
007F0FE000
003FFFC000
001FFF8000
000FFF0000
0003F80000
0000000000
0000000000
0000000000
0000000000
0003FC0000
0003FC0000
0007FC0000
0007FE0000
0007FE0000
000FFE0000
000FFF0000
000FFF0000
001FFF8000
001FFF8000
001FBF8000
003F9FC000
003F9FC000
007F1FC000
007F0FE000
007F0FE000
00FE0FE000
00FE07F000
00FE07F000
01FC07F000
01FC03F800
01FC03F800
03F803FC00
03FFFFFC00
07FFFFFC00
07FFFFFE00
07FFFFFE00
0FFFFFFE00
0FFFFFFF00
0FE0007F00
1FE0007F00
1FE0007F80
1FC0003F80
3FC0003F80
3FC0003FC0
3F80001FC0
7F80001FE0
7F80001FE0
FF00001FE0
ENDCHAR
STARTCHAR 1EB1
ENCODING 7857
SWIDTH 612 0
DWIDTH 34 0
BBX 29 54 2 0
BITMAP
07F80000
03F80000
03FC0000
01FC0000
00FE0000
00FE0000
007F0000
003F0000
003F8000
001F8000
000FC000
00000000
00000000
00000000
07F01F80
03F83F80
01FFFF00
00FFFE00
007FFC00
003FF000
00018000
00000000
00000000
00000000
00FE0000
03FF87F8
07FFE7F8
0FFFE7F8
1FFFF7F8
3FFFFFF8
3FF0FFF8
7FE03FF8
7FC01FF8
7F800FF8
FF800FF8
FF0007F8
FF0007F8
FF0007F8
FF0007F8
FF0007F8
FF0007F8
FF0007F8
FF0007F8
FF000FF8
7F800FF8
7F801FF8
7FC01FF8
7FE07FF8
3FFFFFF8
3FFFF7F8
1FFFF7F8
0FFFE7F8
07FFC7F8
01FF07F8
ENDCHAR
STARTCHAR 1EB2
ENCODING 7858
SWIDTH 666 0
DWIDTH 37 0
BBX 35 64 1 0
BITMAP
0001F00000
0007FE0000
000FFF0000
001FFF0000
001FBF8000
001F0F8000
00000F8000
00001F0000
00003F0000
00007E0000
0000FC0000
0001F80000
0000000000
0000000000
00FC03F000
00FE07E000
007F1FE000
003FFFC000
001FFF8000
000FFE0000
0003F80000
0000000000
0000000000
0000000000
0000000000
0003FC0000
0003FC0000
0007FC0000
0007FE0000
0007FE0000
000FFE0000
000FFF0000
000FFF0000
001FFF8000
001FFF8000
001FBF8000
003F9FC000
003F9FC000
007F1FC000
007F0FE000
007F0FE000
00FE0FE000
00FE07F000
00FE07F000
01FC07F000
01FC03F800
01FC03F800
03F803FC00
03FFFFFC00
07FFFFFC00
07FFFFFE00
07FFFFFE00
0FFFFFFE00
0FFFFFFF00
0FE0007F00
1FE0007F00
1FE0007F80
1FC0003F80
3FC0003F80
3FC0003FC0
3F80001FC0
7F80001FE0
7F80001FE0
FF00001FE0
ENDCHAR
STARTCHAR 1EB3
ENCODING 7859
SWIDTH 612 0
DWIDTH 34 0
BBX 29 54 2 0
BITMAP
001FE000
003FF000
007FF800
00FFFC00
00FC7C00
00F87C00
00007C00
0000FC00
0001F800
0003F000
000FE000
00000000
00000000
00000000
07E01F80
03F03F00
03FFFF00
01FFFE00
00FFFC00
003FF000
00000000
00000000
00000000
00000000
00FE0000
03FF87F8
07FFE7F8
0FFFE7F8
1FFFF7F8
3FFFFFF8
3FF0FFF8
7FE03FF8
7FC01FF8
7F800FF8
FF800FF8
FF0007F8
FF0007F8
FF0007F8
FF0007F8
FF0007F8
FF0007F8
FF0007F8
FF0007F8
FF000FF8
7F800FF8
7F801FF8
7FC01FF8
7FE07FF8
3FFFFFF8
3FFFF7F8
1FFFF7F8
0FFFE7F8
07FFC7F8
01FF07F8
ENDCHAR
STARTCHAR 1EB4
ENCODING 7860
SWIDTH 666 0
DWIDTH 37 0
BBX 35 60 1 0
BITMAP
001F81E000
003FE3E000
003FFFC000
007FFFC000
007FFFC000
00787F8000
00781F0000
0000000000
0000000000
0000000000
00FC03F000
00FE07E000
007F1FE000
003FFFC000
001FFF8000
000FFE0000
0003F80000
0000000000
0000000000
0000000000
0000000000
0003FC0000
0003FC0000
0007FC0000
0007FE0000
0007FE0000
000FFE0000
000FFF0000
000FFF0000
001FFF8000
001FFF8000
001FBF8000
003F9FC000
003F9FC000
007F1FC000
007F0FE000
007F0FE000
00FE0FE000
00FE07F000
00FE07F000
01FC07F000
01FC03F800
01FC03F800
03F803FC00
03FFFFFC00
07FFFFFC00
07FFFFFE00
07FFFFFE00
0FFFFFFE00
0FFFFFFF00
0FE0007F00
1FE0007F00
1FE0007F80
1FC0003F80
3FC0003F80
3FC0003FC0
3F80001FC0
7F80001FE0
7F80001FE0
FF00001FE0
ENDCHAR
STARTCHAR 1EB5
ENCODING 7861
SWIDTH 612 0
DWIDTH 34 0
BBX 29 51 2 0
BITMAP
00180F00
00FF0F00
01FFDF00
01FFFF00
03FFFE00
03E7FE00
03C1FC00
03C02000
00000000
00000000
00000000
07E01F80
03F03F00
03FFFF00
01FFFE00
00FFFC00
003FF000
00000000
00000000
00000000
00000000
00FE0000
03FF87F8
07FFE7F8
0FFFE7F8
1FFFF7F8
3FFFFFF8
3FF0FFF8
7FE03FF8
7FC01FF8
7F800FF8
FF800FF8
FF0007F8
FF0007F8
FF0007F8
FF0007F8
FF0007F8
FF0007F8
FF0007F8
FF0007F8
FF000FF8
7F800FF8
7F801FF8
7FC01FF8
7FE07FF8
3FFFFFF8
3FFFF7F8
1FFFF7F8
0FFFE7F8
07FFC7F8
01FF07F8
ENDCHAR
STARTCHAR 1EB6
ENCODING 7862
SWIDTH 666 0
DWIDTH 37 0
BBX 35 64 1 -14
BITMAP
00FC03F000
00FE07E000
007F1FE000
003FFFC000
001FFF8000
000FFE0000
0003F80000
0000000000
0000000000
0000000000
0000000000
0003FC0000
0003FC0000
0007FC0000
0007FE0000
0007FE0000
000FFE0000
000FFF0000
000FFF0000
001FFF8000
001FFF8000
001FBF8000
003F9FC000
003F9FC000
007F1FC000
007F0FE000
007F0FE000
00FE0FE000
00FE07F000
00FE07F000
01FC07F000
01FC03F800
01FC03F800
03F803FC00
03FFFFFC00
07FFFFFC00
07FFFFFE00
07FFFFFE00
0FFFFFFE00
0FFFFFFF00
0FE0007F00
1FE0007F00
1FE0007F80
1FC0003F80
3FC0003F80
3FC0003FC0
3F80001FC0
7F80001FE0
7F80001FE0
FF00001FE0
0000000000
0000000000
0000000000
0000000000
0000000000
0000400000
0001F80000
0003F80000
0003FC0000
0003FC0000
0003FC0000
0003F80000
0001F80000
0000400000
ENDCHAR
STARTCHAR 1EB7
ENCODING 7863
SWIDTH 612 0
DWIDTH 34 0
BBX 29 53 2 -14
BITMAP
07E01F80
03F03F00
03FFFF00
01FFFE00
00FFFC00
003FF000
00000000
00000000
00000000
00000000
00FE0000
03FF87F8
07FFE7F8
0FFFE7F8
1FFFF7F8
3FFFFFF8
3FF0FFF8
7FE03FF8
7FC01FF8
7F800FF8
FF800FF8
FF0007F8
FF0007F8
FF0007F8
FF0007F8
FF0007F8
FF0007F8
FF0007F8
FF0007F8
FF000FF8
7F800FF8
7F801FF8
7FC01FF8
7FE07FF8
3FFFFFF8
3FFFF7F8
1FFFF7F8
0FFFE7F8
07FFC7F8
01FF07F8
00000000
00000000
00000000
00000000
00000000
00000000
000FC000
001FE000
001FE000
001FE000
001FE000
001FE000
000FC000
ENDCHAR
STARTCHAR 1EB8
ENCODING 7864
SWIDTH 558 0
DWIDTH 31 0
BBX 26 52 3 -14
BITMAP
FFFFFFC0
FFFFFFC0
FFFFFFC0
FFFFFFC0
FFFFFFC0
FFFFFFC0
FFFFFFC0
FF000000
FF000000
FF000000
FF000000
FF000000
FF000000
FF000000
FF000000
FF000000
FFFFFE00
FFFFFE00
FFFFFE00
FFFFFE00
FFFFFE00
FFFFFE00
FF000000
FF000000
FF000000
FF000000
FF000000
FF000000
FF000000
FF000000
FF000000
FF000000
FFFFFFC0
FFFFFFC0
FFFFFFC0
FFFFFFC0
FFFFFFC0
FFFFFFC0
FFFFFFC0
00000000
00000000
00000000
00000000
00000000
00000000
003F0000
007F8000
007F8000
007F8000
007F8000
007F8000
003F0000
ENDCHAR
STARTCHAR 1EB9
ENCODING 7865
SWIDTH 576 0
DWIDTH 32 0
BBX 28 44 2 -14
BITMAP
003FE000
00FFF800
03FFFE00
07FFFF00
0FFFFF80
1FFFFF80
3FE03FC0
3FC01FC0
7F801FE0
7F000FE0
7F000FE0
7F000FE0
FFFFFFF0
FFFFFFF0
FFFFFFF0
FFFFFFF0
FFFFFFF0
FF000000
7F000000
7F000000
7F000000
7F801FE0
3FC01FE0
3FE07FC0
1FFFFFC0
1FFFFF80
0FFFFF00
07FFFE00
01FFFC00
007FF000
00000000
00000000
00000000
00000000
00000000
00020000
000F8000
001FC000
003FC000
003FC000
003FC000
001FC000
000F8000
00060000
ENDCHAR
STARTCHAR 1EBA
ENCODING 7866
SWIDTH 558 0
DWIDTH 31 0
BBX 26 54 3 1
BITMAP
00FF8000
01FFE000
03FFE000
03FFF000
03E1F000
0001F000
0001F000
0003E000
000FC000
001F8000
003F0000
00000000
00000000
00000000
00000000
FFFFFFC0
FFFFFFC0
FFFFFFC0
FFFFFFC0
FFFFFFC0
FFFFFFC0
FFFFFFC0
FF000000
FF000000
FF000000
FF000000
FF000000
FF000000
FF000000
FF000000
FF000000
FFFFFE00
FFFFFE00
FFFFFE00
FFFFFE00
FFFFFE00
FFFFFE00
FF000000
FF000000
FF000000
FF000000
FF000000
FF000000
FF000000
FF000000
FF000000
FF000000
FFFFFFC0
FFFFFFC0
FFFFFFC0
FFFFFFC0
FFFFFFC0
FFFFFFC0
FFFFFFC0
ENDCHAR
STARTCHAR 1EBB
ENCODING 7867
SWIDTH 576 0
DWIDTH 32 0
BBX 28 45 2 0
BITMAP
001F8000
007FE000
00FFF000
00FFF800
01F9F800
01F8F800
0000F800
0000F800
0001F000
0007E000
000FC000
001F8000
00000000
00000000
00000000
003FE000
00FFF800
03FFFE00
07FFFF00
0FFFFF80
1FFFFF80
3FE03FC0
3FC01FC0
7F801FE0
7F000FE0
7F000FE0
7F000FE0
FFFFFFF0
FFFFFFF0
FFFFFFF0
FFFFFFF0
FFFFFFF0
FF000000
7F000000
7F000000
7F000000
7F801FE0
3FC01FE0
3FE07FC0
1FFFFFC0
1FFFFF80
0FFFFF00
07FFFE00
01FFFC00
007FF000
ENDCHAR
STARTCHAR 1EBC
ENCODING 7868
SWIDTH 558 0
DWIDTH 31 0
BBX 26 51 3 0
BITMAP
01F03C00
03FC3C00
07FFFC00
0FFFF800
0FFFF800
0F1FF800
0F03E000
00000000
00000000
00000000
00000000
00000000
FFFFFFC0
FFFFFFC0
FFFFFFC0
FFFFFFC0
FFFFFFC0
FFFFFFC0
FFFFFFC0
FF000000
FF000000
FF000000
FF000000
FF000000
FF000000
FF000000
FF000000
FF000000
FFFFFE00
FFFFFE00
FFFFFE00
FFFFFE00
FFFFFE00
FFFFFE00
FF000000
FF000000
FF000000
FF000000
FF000000
FF000000
FF000000
FF000000
FF000000
FF000000
FFFFFFC0
FFFFFFC0
FFFFFFC0
FFFFFFC0
FFFFFFC0
FFFFFFC0
FFFFFFC0
ENDCHAR
STARTCHAR 1EBD
ENCODING 7869
SWIDTH 576 0
DWIDTH 32 0
BBX 28 42 2 0
BITMAP
00001E00
00FC1E00
01FF1E00
03FFFE00
03FFFE00
03DFFC00
0783F800
0780F000
00000000
00000000
00000000
00000000
003FE000
00FFF800
03FFFE00
07FFFF00
0FFFFF80
1FFFFF80
3FE03FC0
3FC01FC0
7F801FE0
7F000FE0
7F000FE0
7F000FE0
FFFFFFF0
FFFFFFF0
FFFFFFF0
FFFFFFF0
FFFFFFF0
FF000000
7F000000
7F000000
7F000000
7F801FE0
3FC01FE0
3FE07FC0
1FFFFFC0
1FFFFF80
0FFFFF00
07FFFE00
01FFFC00
007FF000
ENDCHAR
STARTCHAR 1EBE
ENCODING 7870
SWIDTH 558 0
DWIDTH 31 0
BBX 33 60 3 0
BITMAP
0000007F80
0000007F00
000000FF00
000000FE00
000001FC00
000001FC00
000003F800
000003F000
000007F000
007F87E000
007F800000
00FFC00000
01FFE00000
03FFF00000
07F3F80000
0FE1FC0000
1FC0FE0000
3F807F0000
0000000000
0000000000
0000000000
FFFFFFC000
FFFFFFC000
FFFFFFC000
FFFFFFC000
FFFFFFC000
FFFFFFC000
FFFFFFC000
FF00000000
FF00000000
FF00000000
FF00000000
FF00000000
FF00000000
FF00000000
FF00000000
FF00000000
FFFFFE0000
FFFFFE0000
FFFFFE0000
FFFFFE0000
FFFFFE0000
FFFFFE0000
FF00000000
FF00000000
FF00000000
FF00000000
FF00000000
FF00000000
FF00000000
FF00000000
FF00000000
FF00000000
FFFFFFC000
FFFFFFC000
FFFFFFC000
FFFFFFC000
FFFFFFC000
FFFFFFC000
FFFFFFC000
ENDCHAR
STARTCHAR 1EBF
ENCODING 7871
SWIDTH 576 0
DWIDTH 32 0
BBX 35 51 2 0
BITMAP
0000001FE0
0000003FC0
0000003F80
0000007F80
0000007F00
000000FE00
000000FE00
000001FC00
000001F800
001F83F800
003FC3F000
003FE00000
007FF00000
00FFF80000
01FDFC0000
03F8FE0000
07F07F0000
0FE03F8000
0000000000
0000000000
0000000000
003FE00000
00FFF80000
03FFFE0000
07FFFF0000
0FFFFF8000
1FFFFF8000
3FE03FC000
3FC01FC000
7F801FE000
7F000FE000
7F000FE000
7F000FE000
FFFFFFF000
FFFFFFF000
FFFFFFF000
FFFFFFF000
FFFFFFF000
FF00000000
7F00000000
7F00000000
7F00000000
7F801FE000
3FC01FE000
3FE07FC000
1FFFFFC000
1FFFFF8000
0FFFFF0000
07FFFE0000
01FFFC0000
007FF00000
ENDCHAR
STARTCHAR 1EC0
ENCODING 7872
SWIDTH 558 0
DWIDTH 31 0
BBX 27 60 3 0
BITMAP
0003FC00
0001FE00
0000FE00
0000FF00
00007F00
00003F80
00003F80
00001FC0
00000FC0
003F8FE0
007F8000
00FFC000
01FFE000
03FFF000
07F3F800
0FE1FC00
1FC0FE00
3F807F00
00000000
00000000
00000000
FFFFFFC0
FFFFFFC0
FFFFFFC0
FFFFFFC0
FFFFFFC0
FFFFFFC0
FFFFFFC0
FF000000
FF000000
FF000000
FF000000
FF000000
FF000000
FF000000
FF000000
FF000000
FFFFFE00
FFFFFE00
FFFFFE00
FFFFFE00
FFFFFE00
FFFFFE00
FF000000
FF000000
FF000000
FF000000
FF000000
FF000000
FF000000
FF000000
FF000000
FF000000
FFFFFFC0
FFFFFFC0
FFFFFFC0
FFFFFFC0
FFFFFFC0
FFFFFFC0
FFFFFFC0
ENDCHAR
STARTCHAR 1EC1
ENCODING 7873
SWIDTH 576 0
DWIDTH 32 0
BBX 28 51 2 0
BITMAP
0001FE00
0000FF00
00007F00
00007F80
00003F80
00001FC0
00001FC0
00000FE0
000007E0
001F87F0
003FC3F0
003FE000
007FF000
00FFF800
01FDFC00
03F8FE00
07F07F00
0FE03F80
00000000
00000000
00000000
003FE000
00FFF800
03FFFE00
07FFFF00
0FFFFF80
1FFFFF80
3FE03FC0
3FC01FC0
7F801FE0
7F000FE0
7F000FE0
7F000FE0
FFFFFFF0
FFFFFFF0
FFFFFFF0
FFFFFFF0
FFFFFFF0
FF000000
7F000000
7F000000
7F000000
7F801FE0
3FC01FE0
3FE07FC0
1FFFFFC0
1FFFFF80
0FFFFF00
07FFFE00
01FFFC00
007FF000
ENDCHAR
STARTCHAR 1EC2
ENCODING 7874
SWIDTH 558 0
DWIDTH 31 0
BBX 30 62 3 0
BITMAP
00000100
00001FF0
00003FF8
00007FFC
0000FFFC
0000FC7C
0000007C
0000007C
000000FC
000001F8
000007F0
007F8FC0
007F8000
00FFC000
01FFE000
03FFF000
07F3F800
0FE1FC00
1FC0FE00
3F807F00
00000000
00000000
00000000
FFFFFFC0
FFFFFFC0
FFFFFFC0
FFFFFFC0
FFFFFFC0
FFFFFFC0
FFFFFFC0
FF000000
FF000000
FF000000
FF000000
FF000000
FF000000
FF000000
FF000000
FF000000
FFFFFE00
FFFFFE00
FFFFFE00
FFFFFE00
FFFFFE00
FFFFFE00
FF000000
FF000000
FF000000
FF000000
FF000000
FF000000
FF000000
FF000000
FF000000
FF000000
FFFFFFC0
FFFFFFC0
FFFFFFC0
FFFFFFC0
FFFFFFC0
FFFFFFC0
FFFFFFC0
ENDCHAR
STARTCHAR 1EC3
ENCODING 7875
SWIDTH 576 0
DWIDTH 32 0
BBX 32 52 2 0
BITMAP
000007F0
00000FFC
00001FFE
00003FFE
00003F3F
00007E1F
0000001F
0000003E
0000007E
000001FC
001F83F0
003FC000
003FE000
007FF000
00FFF800
01FDFC00
03F8FE00
07F07F00
0FE03F80
00000000
00000000
00000000
003FE000
00FFF800
03FFFE00
07FFFF00
0FFFFF80
1FFFFF80
3FE03FC0
3FC01FC0
7F801FE0
7F000FE0
7F000FE0
7F000FE0
FFFFFFF0
FFFFFFF0
FFFFFFF0
FFFFFFF0
FFFFFFF0
FF000000
7F000000
7F000000
7F000000
7F801FE0
3FC01FE0
3FE07FC0
1FFFFFC0
1FFFFF80
0FFFFF00
07FFFE00
01FFFC00
007FF000
ENDCHAR
STARTCHAR 1EC4
ENCODING 7876
SWIDTH 558 0
DWIDTH 31 0
BBX 26 61 3 0
BITMAP
01E03C00
03FC3C00
07FF7C00
07FFF800
0FFFF800
0F1FF800
0F07F000
00000000
00000000
00000000
007F0000
00FF8000
00FFC000
01FFE000
03FFF000
07F3F800
0FE1FC00
1FC0FE00
3F807F00
00000000
00000000
00000000
FFFFFFC0
FFFFFFC0
FFFFFFC0
FFFFFFC0
FFFFFFC0
FFFFFFC0
FFFFFFC0
FF000000
FF000000
FF000000
FF000000
FF000000
FF000000
FF000000
FF000000
FF000000
FFFFFE00
FFFFFE00
FFFFFE00
FFFFFE00
FFFFFE00
FFFFFE00
FF000000
FF000000
FF000000
FF000000
FF000000
FF000000
FF000000
FF000000
FF000000
FF000000
FFFFFFC0
FFFFFFC0
FFFFFFC0
FFFFFFC0
FFFFFFC0
FFFFFFC0
FFFFFFC0
ENDCHAR
STARTCHAR 1EC5
ENCODING 7877
SWIDTH 576 0
DWIDTH 32 0
BBX 28 51 2 0
BITMAP
00FC1E00
01FF1E00
03FFFE00
03FFFE00
03FFFC00
07C7FC00
0781F000
00000000
00000000
001F8000
003FC000
007FE000
007FF000
00FFF800
01FDFC00
03F8FE00
07F07F00
0FE07F80
00000000
00000000
00000000
003FE000
00FFF800
03FFFE00
07FFFF00
0FFFFF80
1FFFFF80
3FE03FC0
3FC01FC0
7F801FE0
7F000FE0
7F000FE0
7F000FE0
FFFFFFF0
FFFFFFF0
FFFFFFF0
FFFFFFF0
FFFFFFF0
FF000000
7F000000
7F000000
7F000000
7F801FE0
3FC01FE0
3FE07FC0
1FFFFFC0
1FFFFF80
0FFFFF00
07FFFE00
01FFFC00
007FF000
ENDCHAR
STARTCHAR 1EC6
ENCODING 7878
SWIDTH 558 0
DWIDTH 31 0
BBX 26 64 3 -14
BITMAP
007F8000
007F8000
00FFC000
01FFE000
03FFF000
07F3F800
0FE1FC00
1FC0FE00
3F807F00
00000000
00000000
00000000
FFFFFFC0
FFFFFFC0
FFFFFFC0
FFFFFFC0
FFFFFFC0
FFFFFFC0
FFFFFFC0
FF000000
FF000000
FF000000
FF000000
FF000000
FF000000
FF000000
FF000000
FF000000
FFFFFE00
FFFFFE00
FFFFFE00
FFFFFE00
FFFFFE00
FFFFFE00
FF000000
FF000000
FF000000
FF000000
FF000000
FF000000
FF000000
FF000000
FF000000
FF000000
FFFFFFC0
FFFFFFC0
FFFFFFC0
FFFFFFC0
FFFFFFC0
FFFFFFC0
FFFFFFC0
00000000
00000000
00000000
00000000
00000000
00000000
003F0000
007F8000
007F8000
007F8000
007F8000
007F8000
003F0000
ENDCHAR
STARTCHAR 1EC7
ENCODING 7879
SWIDTH 576 0
DWIDTH 32 0
BBX 28 56 2 -14
BITMAP
001F8000
003FC000
003FE000
007FF000
00FFF800
01FDFC00
03F8FE00
07F07F00
0FE03F80
00000000
00000000
00000000
003FE000
00FFF800
03FFFE00
07FFFF00
0FFFFF80
1FFFFF80
3FE03FC0
3FC01FC0
7F801FE0
7F000FE0
7F000FE0
7F000FE0
FFFFFFF0
FFFFFFF0
FFFFFFF0
FFFFFFF0
FFFFFFF0
FF000000
7F000000
7F000000
7F000000
7F801FE0
3FC01FE0
3FE07FC0
1FFFFFC0
1FFFFF80
0FFFFF00
07FFFE00
01FFFC00
007FF000
00000000
00000000
00000000
00000000
00000000
00020000
000F8000
001FC000
003FC000
003FC000
003FC000
001FC000
000F8000
00060000
ENDCHAR
STARTCHAR 1EC8
ENCODING 7880
SWIDTH 252 0
DWIDTH 14 0
BBX 14 55 0 0
BITMAP
0100
1FF0
3FF8
7FFC
FFFC
FC7C
007C
007C
00FC
01F8
03F0
07E0
0000
0000
0000
0000
0FE0
0FE0
0FE0
0FE0
0FE0
0FE0
0FE0
0FE0
0FE0
0FE0
0FE0
0FE0
0FE0
0FE0
0FE0
0FE0
0FE0
0FE0
0FE0
0FE0
0FE0
0FE0
0FE0
0FE0
0FE0
0FE0
0FE0
0FE0
0FE0
0FE0
0FE0
0FE0
0FE0
0FE0
0FE0
0FE0
0FE0
0FE0
0FE0
ENDCHAR
STARTCHAR 1EC9
ENCODING 7881
SWIDTH 270 0
DWIDTH 15 0
BBX 14 45 1 0
BITMAP
0FC0
3FF0
7FF8
FFFC
FCFC
F87C
007C
00FC
01F8
03F0
07E0
0FC0
0000
0000
0000
0000
1FE0
1FE0
1FE0
1FE0
1FE0
1FE0
1FE0
1FE0
1FE0
1FE0
1FE0
1FE0
1FE0
1FE0
1FE0
1FE0
1FE0
1FE0
1FE0
1FE0
1FE0
1FE0
1FE0
1FE0
1FE0
1FE0
1FE0
1FE0
1FE0
ENDCHAR
STARTCHAR 1ECA
ENCODING 7882
SWIDTH 252 0
DWIDTH 14 0
BBX 9 53 3 -14
BITMAP
7F00
7F00
7F00
7F00
7F00
7F00
7F00
7F00
7F00
7F00
7F00
7F00
7F00
7F00
7F00
7F00
7F00
7F00
7F00
7F00
7F00
7F00
7F00
7F00
7F00
7F00
7F00
7F00
7F00
7F00
7F00
7F00
7F00
7F00
7F00
7F00
7F00
7F00
7F00
0000
0000
0000
0000
0000
0800
3E00
7F00
7F00
FF80
7F00
7F00
3E00
0800
ENDCHAR
STARTCHAR 1ECB
ENCODING 7883
SWIDTH 270 0
DWIDTH 15 0
BBX 8 56 4 -14
BITMAP
3C
7E
FF
FF
FF
FF
FF
7E
10
00
00
00
00
00
FF
FF
FF
FF
FF
FF
FF
FF
FF
FF
FF
FF
FF
FF
FF
FF
FF
FF
FF
FF
FF
FF
FF
FF
FF
FF
FF
FF
FF
00
00
00
00
00
00
7E
FF
FF
FF
FF
FE
7E
ENDCHAR
STARTCHAR 1ECC
ENCODING 7884
SWIDTH 720 0
DWIDTH 40 0
BBX 36 54 2 -14
BITMAP
0001F80000
001FFF8000
007FFFE000
00FFFFF000
01FFFFFC00
03FFFFFE00
07FFFFFF00
0FFF0FFF00
1FFC01FF80
1FF000FF80
3FE0007FC0
3FE0007FC0
7FC0003FE0
7FC0003FE0
7F80001FE0
7F80001FE0
7F80001FF0
FF80001FF0
FF80000FF0
FF00000FF0
FF00000FF0
FF00000FF0
FF80000FF0
FF80001FF0
7F80001FF0
7F80001FE0
7F80001FE0
7FC0003FE0
7FC0003FE0
3FE0007FC0
3FE0007FC0
1FF000FF80
1FFC03FF80
0FFFDFFF00
07FFFFFE00
03FFFFFE00
01FFFFFC00
00FFFFF000
007FFFE000
000FFF0000
0000000000
0000000000
0000000000
0000000000
0000000000
0000600000
0001F80000
0001FC0000
0003FC0000
0003FC0000
0003FC0000
0001FC0000
0001F80000
0000200000
ENDCHAR
STARTCHAR 1ECD
ENCODING 7885
SWIDTH 576 0
DWIDTH 32 0
BBX 28 44 2 -14
BITMAP
003FC000
00FFF800
03FFFE00
07FFFF00
0FFFFF80
1FFFFFC0
3FF0FFC0
3FE03FE0
7FC01FE0
7F800FE0
7F800FF0
7F000FF0
FF0007F0
FF0007F0
FF0007F0
FF0007F0
FF0007F0
FF0007F0
7F000FF0
7F000FF0
7F800FF0
7F801FE0
3FC03FE0
3FE07FC0
1FFFFFC0
1FFFFF80
0FFFFF00
07FFFE00
01FFFC00
007FF000
00000000
00000000
00000000
00000000
00000000
00020000
000F8000
001FC000
003FC000
003FC000
003FC000
001FC000
000F8000
00060000
ENDCHAR
STARTCHAR 1ECE
ENCODING 7886
SWIDTH 720 0
DWIDTH 40 0
BBX 36 55 2 0
BITMAP
0000200000
0003FE0000
000FFF0000
000FFF8000
001FFF8000
001F8F8000
00000F8000
00000F8000
00001F0000
00003F0000
0000FC0000
0001F80000
0000000000
0000000000
0000000000
0001F80000
001FFF8000
007FFFE000
00FFFFF000
01FFFFFC00
03FFFFFE00
07FFFFFF00
0FFF0FFF00
1FFC01FF80
1FF000FF80
3FE0007FC0
3FE0007FC0
7FC0003FE0
7FC0003FE0
7F80001FE0
7F80001FE0
7F80001FF0
FF80001FF0
FF80000FF0
FF00000FF0
FF00000FF0
FF00000FF0
FF80000FF0
FF80001FF0
7F80001FF0
7F80001FE0
7F80001FE0
7FC0003FE0
7FC0003FE0
3FE0007FC0
3FE0007FC0
1FF000FF80
1FFC03FF80
0FFFDFFF00
07FFFFFE00
03FFFFFE00
01FFFFFC00
00FFFFF000
007FFFE000
000FFF0000
ENDCHAR
STARTCHAR 1ECF
ENCODING 7887
SWIDTH 576 0
DWIDTH 32 0
BBX 28 45 2 0
BITMAP
001F8000
007FE000
00FFF000
00FFF800
01F9F800
01F8F800
0000F800
0000F800
0001F000
0007E000
000FC000
001F8000
00000000
00000000
00000000
003FC000
00FFF800
03FFFE00
07FFFF00
0FFFFF80
1FFFFFC0
3FF0FFC0
3FE03FE0
7FC01FE0
7F800FE0
7F800FF0
7F000FF0
FF0007F0
FF0007F0
FF0007F0
FF0007F0
FF0007F0
FF0007F0
7F000FF0
7F000FF0
7F800FF0
7F801FE0
3FC03FE0
3FE07FC0
1FFFFFC0
1FFFFF80
0FFFFF00
07FFFE00
01FFFC00
007FF000
ENDCHAR
STARTCHAR 1ED0
ENCODING 7888
SWIDTH 720 0
DWIDTH 40 0
BBX 38 60 2 0
BITMAP
00000003FC
00000003F8
00000007F8
00000007F0
0000000FE0
0000000FE0
0000001FC0
0000001F80
0000003F80
0001FC3F00
0003FE0000
0007FF0000
000FFF0000
001FFF8000
003F9FC000
007F0FE000
00FE07F000
01FC03F800
0000000000
0000000000
0001F80000
001FFF8000
007FFFE000
00FFFFF000
01FFFFFC00
03FFFFFE00
07FFFFFF00
0FFF0FFF00
1FFC01FF80
1FF000FF80
3FE0007FC0
3FE0007FC0
7FC0003FE0
7FC0003FE0
7F80001FE0
7F80001FE0
7F80001FF0
FF80001FF0
FF80000FF0
FF00000FF0
FF00000FF0
FF00000FF0
FF80000FF0
FF80001FF0
7F80001FF0
7F80001FE0
7F80001FE0
7FC0003FE0
7FC0003FE0
3FE0007FC0
3FE0007FC0
1FF000FF80
1FFC03FF80
0FFFDFFF00
07FFFFFE00
03FFFFFE00
01FFFFFC00
00FFFFF000
007FFFE000
000FFF0000
ENDCHAR
STARTCHAR 1ED1
ENCODING 7889
SWIDTH 576 0
DWIDTH 32 0
BBX 35 51 2 0
BITMAP
0000001FE0
0000003FC0
0000003F80
0000007F80
0000007F00
000000FE00
000000FE00
000001FC00
000001F800
001F83F800
003FC3F000
003FE00000
007FF00000
00FFF80000
01FDFC0000
03F8FE0000
07F07F0000
0FE03F8000
0000000000
0000000000
0000000000
003FC00000
00FFF80000
03FFFE0000
07FFFF0000
0FFFFF8000
1FFFFFC000
3FF0FFC000
3FE03FE000
7FC01FE000
7F800FE000
7F800FF000
7F000FF000
FF0007F000
FF0007F000
FF0007F000
FF0007F000
FF0007F000
FF0007F000
7F000FF000
7F000FF000
7F800FF000
7F801FE000
3FC03FE000
3FE07FC000
1FFFFFC000
1FFFFF8000
0FFFFF0000
07FFFE0000
01FFFC0000
007FF00000
ENDCHAR
STARTCHAR 1ED2
ENCODING 7890
SWIDTH 720 0
DWIDTH 40 0
BBX 36 60 2 0
BITMAP
00000FE000
00000FF000
000007F000
000003F800
000003F800
000001FC00
000000FC00
000000FE00
0000007E00
0001FC3F00
0003FE0000
0007FF0000
000FFF0000
001FFF8000
003F9FC000
007F0FE000
00FE07F000
01FC03F800
0000000000
0000000000
0001F80000
001FFF8000
007FFFE000
00FFFFF000
01FFFFFC00
03FFFFFE00
07FFFFFF00
0FFF0FFF00
1FFC01FF80
1FF000FF80
3FE0007FC0
3FE0007FC0
7FC0003FE0
7FC0003FE0
7F80001FE0
7F80001FE0
7F80001FF0
FF80001FF0
FF80000FF0
FF00000FF0
FF00000FF0
FF00000FF0
FF80000FF0
FF80001FF0
7F80001FF0
7F80001FE0
7F80001FE0
7FC0003FE0
7FC0003FE0
3FE0007FC0
3FE0007FC0
1FF000FF80
1FFC03FF80
0FFFDFFF00
07FFFFFE00
03FFFFFE00
01FFFFFC00
00FFFFF000
007FFFE000
000FFF0000
ENDCHAR
STARTCHAR 1ED3
ENCODING 7891
SWIDTH 576 0
DWIDTH 32 0
BBX 28 51 2 0
BITMAP
0001FE00
0000FF00
00007F00
00007F80
00003F80
00001FC0
00001FC0
00000FE0
000007E0
001F87F0
003FC3F0
003FE000
007FF000
00FFF800
01FDFC00
03F8FE00
07F07F00
0FE03F80
00000000
00000000
00000000
003FC000
00FFF800
03FFFE00
07FFFF00
0FFFFF80
1FFFFFC0
3FF0FFC0
3FE03FE0
7FC01FE0
7F800FE0
7F800FF0
7F000FF0
FF0007F0
FF0007F0
FF0007F0
FF0007F0
FF0007F0
FF0007F0
7F000FF0
7F000FF0
7F800FF0
7F801FE0
3FC03FE0
3FE07FC0
1FFFFFC0
1FFFFF80
0FFFFF00
07FFFE00
01FFFC00
007FF000
ENDCHAR
STARTCHAR 1ED4
ENCODING 7892
SWIDTH 720 0
DWIDTH 40 0
BBX 36 62 2 0
BITMAP
0000000800
000000FF80
000001FFC0
000003FFE0
000003FFE0
000007E3E0
00000003E0
00000003E0
00000007E0
0000000FC0
0000001F80
0001FC3F00
0003FE0000
0007FF0000
000FFF0000
001FFF8000
003F9FC000
007F0FE000
00FE07F000
01FC03F800
0000000000
0000000000
0001F80000
001FFF8000
007FFFE000
00FFFFF000
01FFFFFC00
03FFFFFE00
07FFFFFF00
0FFF0FFF00
1FFC01FF80
1FF000FF80
3FE0007FC0
3FE0007FC0
7FC0003FE0
7FC0003FE0
7F80001FE0
7F80001FE0
7F80001FF0
FF80001FF0
FF80000FF0
FF00000FF0
FF00000FF0
FF00000FF0
FF80000FF0
FF80001FF0
7F80001FF0
7F80001FE0
7F80001FE0
7FC0003FE0
7FC0003FE0
3FE0007FC0
3FE0007FC0
1FF000FF80
1FFC03FF80
0FFFDFFF00
07FFFFFE00
03FFFFFE00
01FFFFFC00
00FFFFF000
007FFFE000
000FFF0000
ENDCHAR
STARTCHAR 1ED5
ENCODING 7893
SWIDTH 576 0
DWIDTH 32 0
BBX 32 52 2 0
BITMAP
000007F0
00001FFC
00001FFE
00003FFE
00003F3F
00007E1F
0000003F
0000003E
0000007E
000001FC
001F83F0
003FC000
003FE000
007FF000
00FFF800
01FDFC00
03F8FE00
07F07F00
0FE03F80
00000000
00000000
00000000
003FC000
00FFF800
03FFFE00
07FFFF00
0FFFFF80
1FFFFFC0
3FF0FFC0
3FE03FE0
7FC01FE0
7F800FE0
7F800FF0
7F000FF0
FF0007F0
FF0007F0
FF0007F0
FF0007F0
FF0007F0
FF0007F0
7F000FF0
7F000FF0
7F800FF0
7F801FE0
3FC03FE0
3FE07FC0
1FFFFFC0
1FFFFF80
0FFFFF00
07FFFE00
01FFFC00
007FF000
ENDCHAR
STARTCHAR 1ED6
ENCODING 7894
SWIDTH 720 0
DWIDTH 40 0
BBX 36 61 2 0
BITMAP
000781E000
001FE1E000
003FFBE000
003FFFE000
007FFFC000
007CFFC000
00783F8000
0000000000
0000000000
0000000000
0001FC0000
0003FC0000
0007FE0000
000FFF0000
001FFF8000
003F9FC000
007F0FE000
00FE07F000
01FC03F800
0000000000
0000000000
0001F80000
001FFF8000
007FFFE000
00FFFFF000
01FFFFFC00
03FFFFFE00
07FFFFFF00
0FFF0FFF00
1FFC01FF80
1FF000FF80
3FE0007FC0
3FE0007FC0
7FC0003FE0
7FC0003FE0
7F80001FE0
7F80001FE0
7F80001FF0
FF80001FF0
FF80000FF0
FF00000FF0
FF00000FF0
FF00000FF0
FF80000FF0
FF80001FF0
7F80001FF0
7F80001FE0
7F80001FE0
7FC0003FE0
7FC0003FE0
3FE0007FC0
3FE0007FC0
1FF000FF80
1FFC03FF80
0FFFDFFF00
07FFFFFE00
03FFFFFE00
01FFFFFC00
00FFFFF000
007FFFE000
000FFF0000
ENDCHAR
STARTCHAR 1ED7
ENCODING 7895
SWIDTH 576 0
DWIDTH 32 0
BBX 28 51 2 0
BITMAP
00FC1E00
01FF1E00
03FFFE00
03FFFE00
07FFFC00
07C7FC00
0781F000
00000000
00000000
001F8000
003FC000
007FE000
00FFF000
00FFF800
01FDFC00
03F8FE00
07F07F00
0FE07F80
00000000
00000000
00000000
003FC000
00FFF800
03FFFE00
07FFFF00
0FFFFF80
1FFFFFC0
3FF0FFC0
3FE03FE0
7FC01FE0
7F800FE0
7F800FF0
7F000FF0
FF0007F0
FF0007F0
FF0007F0
FF0007F0
FF0007F0
FF0007F0
7F000FF0
7F000FF0
7F800FF0
7F801FE0
3FC03FE0
3FE07FC0
1FFFFFC0
1FFFFF80
0FFFFF00
07FFFE00
01FFFC00
007FF000
ENDCHAR
STARTCHAR 1ED8
ENCODING 7896
SWIDTH 720 0
DWIDTH 40 0
BBX 36 65 2 -14
BITMAP
0001FC0000
0003FE0000
0007FF0000
000FFF0000
001FFF8000
003F9FC000
007F0FE000
00FE07F000
01FC03F800
0000000000
0000000000
0001F80000
001FFF8000
007FFFE000
00FFFFF000
01FFFFFC00
03FFFFFE00
07FFFFFF00
0FFF0FFF00
1FFC01FF80
1FF000FF80
3FE0007FC0
3FE0007FC0
7FC0003FE0
7FC0003FE0
7F80001FE0
7F80001FE0
7F80001FF0
FF80001FF0
FF80000FF0
FF00000FF0
FF00000FF0
FF00000FF0
FF80000FF0
FF80001FF0
7F80001FF0
7F80001FE0
7F80001FE0
7FC0003FE0
7FC0003FE0
3FE0007FC0
3FE0007FC0
1FF000FF80
1FFC03FF80
0FFFDFFF00
07FFFFFE00
03FFFFFE00
01FFFFFC00
00FFFFF000
007FFFE000
000FFF0000
0000000000
0000000000
0000000000
0000000000
0000000000
0000600000
0001F80000
0001FC0000
0003FC0000
0003FC0000
0003FC0000
0001FC0000
0001F80000
0000200000
ENDCHAR
STARTCHAR 1ED9
ENCODING 7897
SWIDTH 576 0
DWIDTH 32 0
BBX 28 56 2 -14
BITMAP
001F8000
003FC000
003FE000
007FF000
00FFF800
01FDFC00
03F8FE00
07F07F00
0FE03F80
00000000
00000000
00000000
003FC000
00FFF800
03FFFE00
07FFFF00
0FFFFF80
1FFFFFC0
3FF0FFC0
3FE03FE0
7FC01FE0
7F800FE0
7F800FF0
7F000FF0
FF0007F0
FF0007F0
FF0007F0
FF0007F0
FF0007F0
FF0007F0
7F000FF0
7F000FF0
7F800FF0
7F801FE0
3FC03FE0
3FE07FC0
1FFFFFC0
1FFFFF80
0FFFFF00
07FFFE00
01FFFC00
007FF000
00000000
00000000
00000000
00000000
00000000
00020000
000F8000
001FC000
003FC000
003FC000
003FC000
001FC000
000F8000
00060000
ENDCHAR
STARTCHAR 1EDA
ENCODING 7898
SWIDTH 720 0
DWIDTH 40 0
BBX 36 54 2 0
BITMAP
000007F000
00000FE000
00001FE000
00001FC000
00003F8000
00003F8000
00007F0000
00007F0000
0000FE0000
0000FC07E0
0001FC07E0
00000007E0
00000007E0
00000007E0
0001F80FC0
001FFFFFC0
007FFFFF80
00FFFFFF00
01FFFFFC00
03FFFFFE00
07FFFFFF00
0FFF0FFF00
1FFC01FF80
1FF000FF80
3FE0007FC0
3FE0007FC0
7FC0003FE0
7FC0003FE0
7F80001FE0
7F80001FE0
7F80001FF0
FF80001FF0
FF80000FF0
FF00000FF0
FF00000FF0
FF00000FF0
FF80000FF0
FF80001FF0
7F80001FF0
7F80001FE0
7F80001FE0
7FC0003FE0
7FC0003FE0
3FE0007FC0
3FE0007FC0
1FF000FF80
1FFC03FF80
0FFFDFFF00
07FFFFFE00
03FFFFFE00
01FFFFFC00
00FFFFF000
007FFFE000
000FFF0000
ENDCHAR
STARTCHAR 1EDB
ENCODING 7899
SWIDTH 594 0
DWIDTH 33 0
BBX 30 44 2 0
BITMAP
0000FF00
0000FE00
0001FE00
0001FC00
0003F800
0003F800
0007F000
0007E000
000FE000
000FC0FC
000380FC
000000FC
000000FC
000000FC
003FC3F8
00FFFFF8
03FFFFF0
07FFFFC0
0FFFFF80
1FFFFFC0
3FF0FFC0
3FE03FE0
7FC01FE0
7F800FF0
7F800FF0
7F000FF0
FF0007F0
FF0007F0
FF0007F0
FF0007F0
FF0007F0
FF0007F0
7F000FF0
7F000FF0
7F800FF0
7F801FE0
3FC03FE0
3FE07FC0
1FFFFFC0
1FFFFF80
0FFFFF00
07FFFE00
01FFFC00
007FF000
ENDCHAR
STARTCHAR 1EDC
ENCODING 7900
SWIDTH 720 0
DWIDTH 40 0
BBX 36 54 2 0
BITMAP
00FF000000
007F000000
007F800000
003F800000
001FC00000
001FC00000
000FE00000
0007E00000
0007F00000
0003F007E0
0001F807E0
00000007E0
00000007E0
00000007E0
0001F80FC0
001FFFFFC0
007FFFFF80
00FFFFFF00
01FFFFFC00
03FFFFFE00
07FFFFFF00
0FFF0FFF00
1FFC01FF80
1FF000FF80
3FE0007FC0
3FE0007FC0
7FC0003FE0
7FC0003FE0
7F80001FE0
7F80001FE0
7F80001FF0
FF80001FF0
FF80000FF0
FF00000FF0
FF00000FF0
FF00000FF0
FF80000FF0
FF80001FF0
7F80001FF0
7F80001FE0
7F80001FE0
7FC0003FE0
7FC0003FE0
3FE0007FC0
3FE0007FC0
1FF000FF80
1FFC03FF80
0FFFDFFF00
07FFFFFE00
03FFFFFE00
01FFFFFC00
00FFFFF000
007FFFE000
000FFF0000
ENDCHAR
STARTCHAR 1EDD
ENCODING 7901
SWIDTH 594 0
DWIDTH 33 0
BBX 30 44 2 0
BITMAP
0FF00000
07F80000
03F80000
01FC0000
01FC0000
00FE0000
007E0000
007F0000
003F0000
001F80FC
000000FC
000000FC
000000FC
000000FC
003FC3F8
00FFFFF8
03FFFFF0
07FFFFC0
0FFFFF80
1FFFFFC0
3FF0FFC0
3FE03FE0
7FC01FE0
7F800FF0
7F800FF0
7F000FF0
FF0007F0
FF0007F0
FF0007F0
FF0007F0
FF0007F0
FF0007F0
7F000FF0
7F000FF0
7F800FF0
7F801FE0
3FC03FE0
3FE07FC0
1FFFFFC0
1FFFFF80
0FFFFF00
07FFFE00
01FFFC00
007FF000
ENDCHAR
STARTCHAR 1EDE
ENCODING 7902
SWIDTH 720 0
DWIDTH 40 0
BBX 36 55 2 0
BITMAP
0000200000
0003FE0000
000FFF0000
000FFF8000
001FFF8000
001F8F8000
00000F8000
00000F8000
00001F0000
00003F0000
0000FC07E0
0001F807E0
00000007E0
00000007E0
00000007E0
0001F80FC0
001FFFFFC0
007FFFFF80
00FFFFFF00
01FFFFFC00
03FFFFFE00
07FFFFFF00
0FFF0FFF00
1FFC01FF80
1FF000FF80
3FE0007FC0
3FE0007FC0
7FC0003FE0
7FC0003FE0
7F80001FE0
7F80001FE0
7F80001FF0
FF80001FF0
FF80000FF0
FF00000FF0
FF00000FF0
FF00000FF0
FF80000FF0
FF80001FF0
7F80001FF0
7F80001FE0
7F80001FE0
7FC0003FE0
7FC0003FE0
3FE0007FC0
3FE0007FC0
1FF000FF80
1FFC03FF80
0FFFDFFF00
07FFFFFE00
03FFFFFE00
01FFFFFC00
00FFFFF000
007FFFE000
000FFF0000
ENDCHAR
STARTCHAR 1EDF
ENCODING 7903
SWIDTH 594 0
DWIDTH 33 0
BBX 30 45 2 0
BITMAP
001F8000
007FE000
00FFF000
00FFF800
01F9F800
01F8F800
0000F800
0000F800
0001F000
0007E000
000FC0FC
001F80FC
000000FC
000000FC
000000FC
003FC3F8
00FFFFF8
03FFFFF0
07FFFFC0
0FFFFF80
1FFFFFC0
3FF0FFC0
3FE03FE0
7FC01FE0
7F800FF0
7F800FF0
7F000FF0
FF0007F0
FF0007F0
FF0007F0
FF0007F0
FF0007F0
FF0007F0
7F000FF0
7F000FF0
7F800FF0
7F801FE0
3FC03FE0
3FE07FC0
1FFFFFC0
1FFFFF80
0FFFFF00
07FFFE00
01FFFC00
007FF000
ENDCHAR
STARTCHAR 1EE0
ENCODING 7904
SWIDTH 720 0
DWIDTH 40 0
BBX 36 51 2 0
BITMAP
000F81E000
001FE1E000
003FFFE000
003FFFE000
007FFFC000
00787FC000
00781F07E0
00000007E0
00000007E0
00000007E0
00000007E0
0001F80FC0
001FFFFFC0
007FFFFF80
00FFFFFF00
01FFFFFC00
03FFFFFE00
07FFFFFF00
0FFF0FFF00
1FFC01FF80
1FF000FF80
3FE0007FC0
3FE0007FC0
7FC0003FE0
7FC0003FE0
7F80001FE0
7F80001FE0
7F80001FF0
FF80001FF0
FF80000FF0
FF00000FF0
FF00000FF0
FF00000FF0
FF80000FF0
FF80001FF0
7F80001FF0
7F80001FE0
7F80001FE0
7FC0003FE0
7FC0003FE0
3FE0007FC0
3FE0007FC0
1FF000FF80
1FFC03FF80
0FFFDFFF00
07FFFFFE00
03FFFFFE00
01FFFFFC00
00FFFFF000
007FFFE000
000FFF0000
ENDCHAR
STARTCHAR 1EE1
ENCODING 7905
SWIDTH 594 0
DWIDTH 33 0
BBX 30 42 2 0
BITMAP
00001E00
00FC1E00
01FF1E00
03FFFE00
03FFFE00
07DFFC00
0783F800
0780E0FC
000000FC
000000FC
000000FC
000000FC
003FC3F8
00FFFFF8
03FFFFF0
07FFFFC0
0FFFFF80
1FFFFFC0
3FF0FFC0
3FE03FE0
7FC01FE0
7F800FF0
7F800FF0
7F000FF0
FF0007F0
FF0007F0
FF0007F0
FF0007F0
FF0007F0
FF0007F0
7F000FF0
7F000FF0
7F800FF0
7F801FE0
3FC03FE0
3FE07FC0
1FFFFFC0
1FFFFF80
0FFFFF00
07FFFE00
01FFFC00
007FF000
ENDCHAR
STARTCHAR 1EE2
ENCODING 7906
SWIDTH 720 0
DWIDTH 40 0
BBX 36 59 2 -14
BITMAP
00000007E0
00000007E0
00000007E0
00000007E0
00000007E0
0001F80FC0
001FFFFFC0
007FFFFF80
00FFFFFF00
01FFFFFC00
03FFFFFE00
07FFFFFF00
0FFF0FFF00
1FFC01FF80
1FF000FF80
3FE0007FC0
3FE0007FC0
7FC0003FE0
7FC0003FE0
7F80001FE0
7F80001FE0
7F80001FF0
FF80001FF0
FF80000FF0
FF00000FF0
FF00000FF0
FF00000FF0
FF80000FF0
FF80001FF0
7F80001FF0
7F80001FE0
7F80001FE0
7FC0003FE0
7FC0003FE0
3FE0007FC0
3FE0007FC0
1FF000FF80
1FFC03FF80
0FFFDFFF00
07FFFFFE00
03FFFFFE00
01FFFFFC00
00FFFFF000
007FFFE000
000FFF0000
0000000000
0000000000
0000000000
0000000000
0000000000
0000600000
0001F80000
0001FC0000
0003FC0000
0003FC0000
0003FC0000
0001FC0000
0001F80000
0000200000
ENDCHAR
STARTCHAR 1EE3
ENCODING 7907
SWIDTH 594 0
DWIDTH 33 0
BBX 30 49 2 -14
BITMAP
000000FC
000000FC
000000FC
000000FC
000000FC
003FC3F8
00FFFFF8
03FFFFF0
07FFFFC0
0FFFFF80
1FFFFFC0
3FF0FFC0
3FE03FE0
7FC01FE0
7F800FF0
7F800FF0
7F000FF0
FF0007F0
FF0007F0
FF0007F0
FF0007F0
FF0007F0
FF0007F0
7F000FF0
7F000FF0
7F800FF0
7F801FE0
3FC03FE0
3FE07FC0
1FFFFFC0
1FFFFF80
0FFFFF00
07FFFE00
01FFFC00
007FF000
00000000
00000000
00000000
00000000
00000000
00020000
000F8000
001FC000
003FC000
003FC000
003FC000
001FC000
000F8000
00060000
ENDCHAR
STARTCHAR 1EE4
ENCODING 7908
SWIDTH 684 0
DWIDTH 38 0
BBX 32 52 3 -14
BITMAP
FF0000FF
FF0000FF
FF0000FF
FF0000FF
FF0000FF
FF0000FF
FF0000FF
FF0000FF
FF0000FF
FF0000FF
FF0000FF
FF0000FF
FF0000FF
FF0000FF
FF0000FF
FF0000FF
FF0000FF
FF0000FF
FF0000FF
FF0000FF
FF0000FF
FF0000FF
FF0000FF
FF0000FF
FF0000FF
FF0000FF
FF0000FF
7F8001FE
7F8001FE
7FC003FE
7FE007FE
3FF00FFC
3FFFFFFC
1FFFFFF8
0FFFFFF0
07FFFFE0
03FFFFC0
01FFFF80
003FFC00
00018000
00000000
00000000
00000000
00000000
00010000
0007E000
0007F000
000FF000
000FF000
000FF000
0007F000
0007E000
ENDCHAR
STARTCHAR 1EE5
ENCODING 7909
SWIDTH 576 0
DWIDTH 32 0
BBX 27 43 3 -14
BITMAP
FF001FE0
FF001FE0
FF001FE0
FF001FE0
FF001FE0
FF001FE0
FF001FE0
FF001FE0
FF001FE0
FF001FE0
FF001FE0
FF001FE0
FF001FE0
FF001FE0
FF001FE0
FF001FE0
FF001FE0
FF001FE0
FF001FE0
FF001FE0
FF803FE0
7F807FE0
7FE0FFE0
7FFFFFE0
3FFFFFE0
3FFFDFE0
1FFF9FE0
0FFF1FE0
07FE1FE0
00300000
00000000
00000000
00000000
00000000
000C0000
003F0000
003F8000
007F8000
007F8000
007F8000
003F8000
003F0000
00040000
ENDCHAR
STARTCHAR 1EE6
ENCODING 7910
SWIDTH 684 0
DWIDTH 38 0
BBX 32 55 3 0
BITMAP
000FF000
003FFC00
003FFC00
007FFE00
007C3E00
00003E00
00003E00
00007C00
0001F800
0003F000
0007E000
00000000
00000000
00000000
00000000
FF0000FF
FF0000FF
FF0000FF
FF0000FF
FF0000FF
FF0000FF
FF0000FF
FF0000FF
FF0000FF
FF0000FF
FF0000FF
FF0000FF
FF0000FF
FF0000FF
FF0000FF
FF0000FF
FF0000FF
FF0000FF
FF0000FF
FF0000FF
FF0000FF
FF0000FF
FF0000FF
FF0000FF
FF0000FF
FF0000FF
FF0000FF
7F8001FE
7F8001FE
7FC003FE
7FE007FE
3FF00FFC
3FFFFFFC
1FFFFFF8
0FFFFFF0
07FFFFE0
03FFFFC0
01FFFF80
003FFC00
00018000
ENDCHAR
STARTCHAR 1EE7
ENCODING 7911
SWIDTH 576 0
DWIDTH 32 0
BBX 27 46 3 -1
BITMAP
003F0000
00FFC000
01FFE000
03FFF000
03F3F000
03E1F000
0001F000
0003F000
0007E000
000FC000
001F8000
003F0000
00000000
00000000
00000000
00000000
FF001FE0
FF001FE0
FF001FE0
FF001FE0
FF001FE0
FF001FE0
FF001FE0
FF001FE0
FF001FE0
FF001FE0
FF001FE0
FF001FE0
FF001FE0
FF001FE0
FF001FE0
FF001FE0
FF001FE0
FF001FE0
FF001FE0
FF001FE0
FF803FE0
7F807FE0
7FE0FFE0
7FFFFFE0
3FFFFFE0
3FFFDFE0
1FFF9FE0
0FFF1FE0
07FE1FE0
00300000
ENDCHAR
STARTCHAR 1EE8
ENCODING 7912
SWIDTH 684 0
DWIDTH 38 0
BBX 38 55 3 -1
BITMAP
00003FC000
00003F8000
00007F8000
00007F0000
0000FE0000
0000FE0000
0001FC0000
0001F80000
0003F80000
0003F0007C
0007E0007C
000000007C
000000007C
000000007C
00000000FC
FF0000FFFC
FF0000FFF8
FF0000FFE0
FF0000FF00
FF0000FF00
FF0000FF00
FF0000FF00
FF0000FF00
FF0000FF00
FF0000FF00
FF0000FF00
FF0000FF00
FF0000FF00
FF0000FF00
FF0000FF00
FF0000FF00
FF0000FF00
FF0000FF00
FF0000FF00
FF0000FF00
FF0000FF00
FF0000FF00
FF0000FF00
FF0000FF00
FF0000FF00
FF0000FF00
FF0000FF00
7F8001FE00
7F8001FE00
7FC003FE00
7FE007FE00
3FF00FFC00
3FFFFFFC00
1FFFFFF800
0FFFFFF000
07FFFFE000
03FFFFC000
01FFFF8000
003FFC0000
0001800000
ENDCHAR
STARTCHAR 1EE9
ENCODING 7913
SWIDTH 594 0
DWIDTH 33 0
BBX 33 45 3 -1
BITMAP
0001FE0000
0001FC0000
0003F80000
0003F80000
0007F00000
0007E00000
000FE00000
000FC00000
001F800000
001F800F80
0007000F80
0000000F80
0000000F80
0000001F80
0000003F80
FF001FFF00
FF001FFE00
FF001FFC00
FF001FE000
FF001FE000
FF001FE000
FF001FE000
FF001FE000
FF001FE000
FF001FE000
FF001FE000
FF001FE000
FF001FE000
FF001FE000
FF001FE000
FF001FE000
FF001FE000
FF001FE000
FF001FE000
FF001FE000
FF803FE000
7F807FE000
7FE0FFE000
7FFFFFE000
3FFFFFE000
3FFFDFE000
1FFF9FE000
0FFF1FE000
07FE1FE000
0030000000
ENDCHAR
STARTCHAR 1EEA
ENCODING 7914
SWIDTH 684 0
DWIDTH 38 0
BBX 38 55 3 -1
BITMAP
03FC000000
01FC000000
01FE000000
00FE000000
007F000000
007F000000
003F800000
001F800000
001FC00000
000FC0007C
0007E0007C
000000007C
000000007C
000000007C
00000000FC
FF0000FFFC
FF0000FFF8
FF0000FFE0
FF0000FF00
FF0000FF00
FF0000FF00
FF0000FF00
FF0000FF00
FF0000FF00
FF0000FF00
FF0000FF00
FF0000FF00
FF0000FF00
FF0000FF00
FF0000FF00
FF0000FF00
FF0000FF00
FF0000FF00
FF0000FF00
FF0000FF00
FF0000FF00
FF0000FF00
FF0000FF00
FF0000FF00
FF0000FF00
FF0000FF00
FF0000FF00
7F8001FE00
7F8001FE00
7FC003FE00
7FE007FE00
3FF00FFC00
3FFFFFFC00
1FFFFFF800
0FFFFFF000
07FFFFE000
03FFFFC000
01FFFF8000
003FFC0000
0001800000
ENDCHAR
STARTCHAR 1EEB
ENCODING 7915
SWIDTH 594 0
DWIDTH 33 0
BBX 33 45 3 -1
BITMAP
1FE0000000
0FE0000000
07F0000000
07F0000000
03F8000000
01F8000000
01FC000000
00FC000000
007E000000
007E000F80
0000000F80
0000000F80
0000000F80
0000001F80
0000003F80
FF001FFF00
FF001FFE00
FF001FFC00
FF001FE000
FF001FE000
FF001FE000
FF001FE000
FF001FE000
FF001FE000
FF001FE000
FF001FE000
FF001FE000
FF001FE000
FF001FE000
FF001FE000
FF001FE000
FF001FE000
FF001FE000
FF001FE000
FF001FE000
FF803FE000
7F807FE000
7FE0FFE000
7FFFFFE000
3FFFFFE000
3FFFDFE000
1FFF9FE000
0FFF1FE000
07FE1FE000
0030000000
ENDCHAR
STARTCHAR 1EEC
ENCODING 7916
SWIDTH 684 0
DWIDTH 38 0
BBX 38 55 3 0
BITMAP
000FF00000
003FFC0000
003FFC0000
007FFE0000
007C3E0000
00003E0000
00003E0000
00007C0000
0001F80000
0003F0007C
0007E0007C
000000007C
000000007C
000000007C
00000000FC
FF0000FFFC
FF0000FFF8
FF0000FFE0
FF0000FF00
FF0000FF00
FF0000FF00
FF0000FF00
FF0000FF00
FF0000FF00
FF0000FF00
FF0000FF00
FF0000FF00
FF0000FF00
FF0000FF00
FF0000FF00
FF0000FF00
FF0000FF00
FF0000FF00
FF0000FF00
FF0000FF00
FF0000FF00
FF0000FF00
FF0000FF00
FF0000FF00
FF0000FF00
FF0000FF00
FF0000FF00
7F8001FE00
7F8001FE00
7FC003FE00
7FE007FE00
3FF00FFC00
3FFFFFFC00
1FFFFFF800
0FFFFFF000
07FFFFE000
03FFFFC000
01FFFF8000
003FFC0000
0001800000
ENDCHAR
STARTCHAR 1EED
ENCODING 7917
SWIDTH 594 0
DWIDTH 33 0
BBX 33 46 3 -1
BITMAP
003F000000
00FFC00000
01FFE00000
03FFF00000
03F3F00000
03E1F00000
0001F00000
0003F00000
0007E00000
000FC00000
001F800F80
003F000F80
0000000F80
0000000F80
0000001F80
0000003F80
FF001FFF00
FF001FFE00
FF001FFC00
FF001FE000
FF001FE000
FF001FE000
FF001FE000
FF001FE000
FF001FE000
FF001FE000
FF001FE000
FF001FE000
FF001FE000
FF001FE000
FF001FE000
FF001FE000
FF001FE000
FF001FE000
FF001FE000
FF001FE000
FF803FE000
7F807FE000
7FE0FFE000
7FFFFFE000
3FFFFFE000
3FFFDFE000
1FFF9FE000
0FFF1FE000
07FE1FE000
0030000000
ENDCHAR
STARTCHAR 1EEE
ENCODING 7918
SWIDTH 684 0
DWIDTH 38 0
BBX 38 52 3 -1
BITMAP
003E078000
007F878000
00FFFF8000
00FFFF0000
01FFFF0000
01E1FF0000
01E07C007C
000000007C
000000007C
000000007C
000000007C
00000000FC
FF0000FFFC
FF0000FFF8
FF0000FFE0
FF0000FF00
FF0000FF00
FF0000FF00
FF0000FF00
FF0000FF00
FF0000FF00
FF0000FF00
FF0000FF00
FF0000FF00
FF0000FF00
FF0000FF00
FF0000FF00
FF0000FF00
FF0000FF00
FF0000FF00
FF0000FF00
FF0000FF00
FF0000FF00
FF0000FF00
FF0000FF00
FF0000FF00
FF0000FF00
FF0000FF00
FF0000FF00
7F8001FE00
7F8001FE00
7FC003FE00
7FE007FE00
3FF00FFC00
3FFFFFFC00
1FFFFFF800
0FFFFFF000
07FFFFE000
03FFFFC000
01FFFF8000
003FFC0000
0001800000
ENDCHAR
STARTCHAR 1EEF
ENCODING 7919
SWIDTH 594 0
DWIDTH 33 0
BBX 33 43 3 -1
BITMAP
00001E0000
01FC1E0000
03FF3E0000
03FFFE0000
07FFFC0000
07DFFC0000
0787F80000
0780E00F80
0000000F80
0000000F80
0000000F80
0000001F80
0000003F80
FF001FFF00
FF001FFE00
FF001FFC00
FF001FE000
FF001FE000
FF001FE000
FF001FE000
FF001FE000
FF001FE000
FF001FE000
FF001FE000
FF001FE000
FF001FE000
FF001FE000
FF001FE000
FF001FE000
FF001FE000
FF001FE000
FF001FE000
FF001FE000
FF803FE000
7F807FE000
7FE0FFE000
7FFFFFE000
3FFFFFE000
3FFFDFE000
1FFF9FE000
0FFF1FE000
07FE1FE000
0030000000
ENDCHAR
STARTCHAR 1EF0
ENCODING 7920
SWIDTH 684 0
DWIDTH 38 0
BBX 38 58 3 -14
BITMAP
000000007C
000000007C
000000007C
000000007C
000000007C
00000000FC
FF0000FFFC
FF0000FFF8
FF0000FFE0
FF0000FF00
FF0000FF00
FF0000FF00
FF0000FF00
FF0000FF00
FF0000FF00
FF0000FF00
FF0000FF00
FF0000FF00
FF0000FF00
FF0000FF00
FF0000FF00
FF0000FF00
FF0000FF00
FF0000FF00
FF0000FF00
FF0000FF00
FF0000FF00
FF0000FF00
FF0000FF00
FF0000FF00
FF0000FF00
FF0000FF00
FF0000FF00
7F8001FE00
7F8001FE00
7FC003FE00
7FE007FE00
3FF00FFC00
3FFFFFFC00
1FFFFFF800
0FFFFFF000
07FFFFE000
03FFFFC000
01FFFF8000
003FFC0000
0001800000
0000000000
0000000000
0000000000
0000000000
0001000000
0007E00000
0007F00000
000FF00000
000FF00000
000FF00000
0007F00000
0007E00000
ENDCHAR
STARTCHAR 1EF1
ENCODING 7921
SWIDTH 594 0
DWIDTH 33 0
BBX 33 49 3 -14
BITMAP
0000000F80
0000000F80
0000000F80
0000000F80
0000001F80
0000003F80
FF001FFF00
FF001FFE00
FF001FFC00
FF001FE000
FF001FE000
FF001FE000
FF001FE000
FF001FE000
FF001FE000
FF001FE000
FF001FE000
FF001FE000
FF001FE000
FF001FE000
FF001FE000
FF001FE000
FF001FE000
FF001FE000
FF001FE000
FF001FE000
FF803FE000
7F807FE000
7FE0FFE000
7FFFFFE000
3FFFFFE000
3FFFDFE000
1FFF9FE000
0FFF1FE000
07FE1FE000
0030000000
0000000000
0000000000
0000000000
0000000000
000C000000
003F000000
003F800000
007F800000
007F800000
007F800000
003F800000
003F000000
0004000000
ENDCHAR
STARTCHAR 1EF2
ENCODING 7922
SWIDTH 630 0
DWIDTH 35 0
BBX 32 54 2 0
BITMAP
03FC0000
01FC0000
01FE0000
00FE0000
007F0000
007F0000
003F8000
001F8000
001FC000
000FC000
000FE000
00000000
00000000
00000000
00000000
FF0000FF
FF0000FF
7F8001FE
7F8001FE
3FC003FC
3FC003FC
1FE007F8
1FE007F8
0FE00FF0
0FF00FF0
07F00FE0
07F81FE0
03F81FC0
03FC3FC0
01FC3F80
01FE7F80
00FE7F00
00FFFF00
007FFE00
007FFE00
003FFC00
003FFC00
001FF800
001FF800
000FF000
000FF000
000FF000
000FF000
000FF000
000FF000
000FF000
000FF000
000FF000
000FF000
000FF000
000FF000
000FF000
000FF000
000FF000
ENDCHAR
STARTCHAR 1EF3
ENCODING 7923
SWIDTH 540 0
DWIDTH 30 0
BBX 29 56 1 -12
BITMAP
07F00000
07F80000
03F80000
01FC0000
01FC0000
00FE0000
007E0000
007F0000
003F0000
001F8000
00000000
00000000
00000000
00000000
00000000
FF0007F8
7F8007F0
7F800FF0
3F800FF0
3F800FE0
3FC01FE0
1FC01FC0
1FC01FC0
1FE03FC0
0FE03F80
0FE03F80
07F07F00
07F07F00
07F07F00
03F8FE00
03F8FE00
03F8FE00
01FDFC00
01FDFC00
01FDF800
00FFF800
00FFF800
007FF000
007FF000
007FE000
003FE000
003FE000
003FC000
001FC000
003FC000
003F8000
007F8000
007F0000
00FF0000
01FF0000
47FE0000
7FFE0000
7FFC0000
7FF80000
7FF00000
7FC00000
ENDCHAR
STARTCHAR 1EF4
ENCODING 7924
SWIDTH 630 0
DWIDTH 35 0
BBX 32 52 2 -14
BITMAP
FF0000FF
FF0000FF
7F8001FE
7F8001FE
3FC003FC
3FC003FC
1FE007F8
1FE007F8
0FE00FF0
0FF00FF0
07F00FE0
07F81FE0
03F81FC0
03FC3FC0
01FC3F80
01FE7F80
00FE7F00
00FFFF00
007FFE00
007FFE00
003FFC00
003FFC00
001FF800
001FF800
000FF000
000FF000
000FF000
000FF000
000FF000
000FF000
000FF000
000FF000
000FF000
000FF000
000FF000
000FF000
000FF000
000FF000
000FF000
00000000
00000000
00000000
00000000
00000000
00000000
0007E000
000FF000
000FF000
000FF000
000FF000
000FE000
0007E000
ENDCHAR
STARTCHAR 1EF5
ENCODING 7925
SWIDTH 540 0
DWIDTH 30 0
BBX 29 42 1 -14
BITMAP
FF0007F8
7F8007F0
7F800FF0
3F800FF0
3F800FE0
3FC01FE0
1FC01FC0
1FC01FC0
1FE03FC0
0FE03F80
0FE03F80
07F07F00
07F07F00
07F07F00
03F8FE00
03F8FE00
03F8FE00
01FDFC00
01FDFC00
01FDF800
00FFF800
00FFF800
007FF000
007FF000
007FE000
003FE000
003FE000
003FC000
001FC000
003FC000
003F8000
007F8000
007F0000
00FF0000
01FF0000
47FE07E0
7FFE0FF0
7FFC0FF0
7FF80FF0
7FF00FF0
7FC00FE0
000007E0
ENDCHAR
STARTCHAR 1EF6
ENCODING 7926
SWIDTH 630 0
DWIDTH 35 0
BBX 32 54 2 1
BITMAP
001FF000
003FFC00
007FFC00
007FFE00
007C3E00
00003E00
00003E00
00007C00
0001F800
0003F000
0007E000
00000000
00000000
00000000
00000000
FF0000FF
FF0000FF
7F8001FE
7F8001FE
3FC003FC
3FC003FC
1FE007F8
1FE007F8
0FE00FF0
0FF00FF0
07F00FE0
07F81FE0
03F81FC0
03FC3FC0
01FC3F80
01FE7F80
00FE7F00
00FFFF00
007FFE00
007FFE00
003FFC00
003FFC00
001FF800
001FF800
000FF000
000FF000
000FF000
000FF000
000FF000
000FF000
000FF000
000FF000
000FF000
000FF000
000FF000
000FF000
000FF000
000FF000
000FF000
ENDCHAR
STARTCHAR 1EF7
ENCODING 7927
SWIDTH 540 0
DWIDTH 30 0
BBX 29 57 1 -12
BITMAP
001FC000
007FF000
00FFF000
00FFF800
01FDF800
01F8F800
0000F800
0000F800
0001F000
0007E000
000FC000
001F8000
00000000
00000000
00000000
00000000
FF0007F8
7F8007F0
7F800FF0
3F800FF0
3F800FE0
3FC01FE0
1FC01FC0
1FC01FC0
1FE03FC0
0FE03F80
0FE03F80
07F07F00
07F07F00
07F07F00
03F8FE00
03F8FE00
03F8FE00
01FDFC00
01FDFC00
01FDF800
00FFF800
00FFF800
007FF000
007FF000
007FE000
003FE000
003FE000
003FC000
001FC000
003FC000
003F8000
007F8000
007F0000
00FF0000
01FF0000
47FE0000
7FFE0000
7FFC0000
7FF80000
7FF00000
7FC00000
ENDCHAR
STARTCHAR 1EF8
ENCODING 7928
SWIDTH 630 0
DWIDTH 35 0
BBX 32 51 2 0
BITMAP
003E0780
007F8780
00FFFF80
01FFFF00
01FFFF00
01E3FE00
01E07C00
00000000
00000000
00000000
00000000
00000000
FF0000FF
FF0000FF
7F8001FE
7F8001FE
3FC003FC
3FC003FC
1FE007F8
1FE007F8
0FE00FF0
0FF00FF0
07F00FE0
07F81FE0
03F81FC0
03FC3FC0
01FC3F80
01FE7F80
00FE7F00
00FFFF00
007FFE00
007FFE00
003FFC00
003FFC00
001FF800
001FF800
000FF000
000FF000
000FF000
000FF000
000FF000
000FF000
000FF000
000FF000
000FF000
000FF000
000FF000
000FF000
000FF000
000FF000
000FF000
ENDCHAR
STARTCHAR 1EF9
ENCODING 7929
SWIDTH 540 0
DWIDTH 30 0
BBX 29 54 1 -12
BITMAP
00001E00
00FC1E00
01FF1E00
03FFFE00
03FFFE00
03DFFC00
03C3FC00
03C07000
00000000
00000000
00000000
00000000
00000000
FF0007F8
7F8007F0
7F800FF0
3F800FF0
3F800FE0
3FC01FE0
1FC01FC0
1FC01FC0
1FE03FC0
0FE03F80
0FE03F80
07F07F00
07F07F00
07F07F00
03F8FE00
03F8FE00
03F8FE00
01FDFC00
01FDFC00
01FDF800
00FFF800
00FFF800
007FF000
007FF000
007FE000
003FE000
003FE000
003FC000
001FC000
003FC000
003F8000
007F8000
007F0000
00FF0000
01FF0000
47FE0000
7FFE0000
7FFC0000
7FF80000
7FF00000
7FC00000
ENDCHAR
STARTCHAR 2013
ENCODING 8211
SWIDTH 630 0
DWIDTH 35 0
BBX 24 6 6 14
BITMAP
FFFFFF
FFFFFF
FFFFFF
FFFFFF
FFFFFF
FFFFFF
ENDCHAR
STARTCHAR 2014
ENCODING 8212
SWIDTH 756 0
DWIDTH 42 0
BBX 30 6 6 14
BITMAP
FFFFFFFC
FFFFFFFC
FFFFFFFC
FFFFFFFC
FFFFFFFC
FFFFFFFC
ENDCHAR
STARTCHAR 2018
ENCODING 8216
SWIDTH 288 0
DWIDTH 16 0
BBX 9 16 3 28
BITMAP
0E00
1E00
3C00
7800
7000
F000
F000
F000
FC00
FF80
FF80
FF80
FF80
7F80
7F80
3F00
ENDCHAR
STARTCHAR 2019
ENCODING 8217
SWIDTH 270 0
DWIDTH 15 0
BBX 9 16 4 26
BITMAP
3E00
7F00
FF80
FF80
FF80
FF80
7F80
0F80
0380
0380
0380
0780
0700
1E00
3C00
3800
ENDCHAR
STARTCHAR 201A
ENCODING 8218
SWIDTH 288 0
DWIDTH 16 0
BBX 10 17 4 -10
BITMAP
3F00
7F80
FF80
FF80
FFC0
FFC0
7FC0
1FC0
03C0
0380
0380
0380
0780
0F00
3E00
3C00
3000
ENDCHAR
STARTCHAR 201C
ENCODING 8220
SWIDTH 504 0
DWIDTH 28 0
BBX 23 16 3 28
BITMAP
060038
1E0078
3C00F0
7801C0
7003C0
F00380
F00380
F003C0
FC03F8
FF03FC
FF83FE
FF83FE
FF83FE
7F83FE
7F81FC
3E00F8
ENDCHAR
STARTCHAR 201D
ENCODING 8221
SWIDTH 540 0
DWIDTH 30 0
BBX 23 17 4 27
BITMAP
080000
7F01F8
FF03FC
FF83FE
FF83FE
FF83FE
FF83FE
7F81FE
07801E
03801E
03801E
07801C
07001C
0F0038
1E00F8
3C00E0
3000C0
ENDCHAR
STARTCHAR 201E
ENCODING 8222
SWIDTH 540 0
DWIDTH 30 0
BBX 23 17 4 -10
BITMAP
3E00F0
7F03FC
FF83FC
FF83FE
FF87FE
FF83FE
7F83FE
1F80FE
07801E
03801E
03801C
07001C
07003C
0E0078
3C00F0
3800E0
200000
ENDCHAR
STARTCHAR 2020
ENCODING 8224
SWIDTH 576 0
DWIDTH 32 0
BBX 23 52 5 -13
BITMAP
00FE00
00FE00
00FE00
00FE00
00FE00
00FE00
00FE00
00FE00
00FE00
00FE00
FFFFFE
FFFFFE
FFFFFE
FFFFFE
FFFFFE
FFFFFE
00FE00
00FE00
00FE00
00FE00
00FE00
00FE00
00FE00
00FE00
00FE00
00FE00
00FE00
00FE00
00FE00
00FE00
00FE00
00FE00
00FE00
00FE00
00FE00
00FE00
00FE00
00FE00
00FE00
00FE00
00FE00
00FE00
00FE00
00FE00
00FE00
00FE00
00FE00
00FE00
00FE00
00FE00
00FE00
00FE00
ENDCHAR
STARTCHAR 2021
ENCODING 8225
SWIDTH 576 0
DWIDTH 32 0
BBX 23 52 5 -13
BITMAP
00FE00
00FE00
00FE00
00FE00
00FE00
00FE00
00FE00
00FE00
00FE00
00FE00
FFFFFE
FFFFFE
FFFFFE
FFFFFE
FFFFFE
FFFFFE
00FE00
00FE00
00FE00
00FE00
00FE00
00FE00
00FE00
00FE00
00FE00
00FE00
00FE00
00FE00
00FE00
00FE00
00FE00
00FE00
00FE00
00FE00
00FE00
00FE00
FFFFFE
FFFFFE
FFFFFE
FFFFFE
FFFFFE
FFFFFE
FFFFFE
00FE00
00FE00
00FE00
00FE00
00FE00
00FE00
00FE00
00FE00
00FE00
ENDCHAR
STARTCHAR 2022
ENCODING 8226
SWIDTH 468 0
DWIDTH 26 0
BBX 13 13 3 14
BITMAP
0780
1FE0
3FF0
7FF8
7FF8
FFF8
FFF8
FFF8
FFF8
7FF8
7FF0
3FE0
0FC0
ENDCHAR
STARTCHAR 2026
ENCODING 8230
SWIDTH 864 0
DWIDTH 48 0
BBX 38 8 5 0
BITMAP
3E007C01F0
7F00FE03F8
FF01FE03FC
FF81FE07FC
FF81FE07FC
FF01FE03FC
7F01FE03F8
3E00FC01F8
ENDCHAR
STARTCHAR 2030
ENCODING 8240
SWIDTH 1134 0
DWIDTH 63 0
BBX 60 40 2 -1
BITMAP
0FF0001F80000000
3FF8003F80000000
3FFC003F00000000
7FFC007F00000000
7C7E007E00000000
FC3E00FE00000000
FC3E00FC00000000
F83E01FC00000000
F83E01F800000000
FC3E03F800000000
7C7E03F000000000
7FFC07F000000000
3FFC07E000000000
3FF80FE000000000
1FF00FC000000000
03801F8000000000
00001F8000000000
00003F0000000000
00007F0000000000
00007E0000000000
0000FE0000000000
0000FC0000000000
0001FC0000000000
0001F80000000800
0003F807F800FF00
0003F01FFC01FF80
0007F01FFE03FFC0
0007E03FFE07FFE0
000FE03E1F07E3E0
000FC07E1F07C3E0
001FC07E1F07C1E0
001F807E1F07C1F0
003F807E1F07C1E0
003F007E1F07C3E0
007F003E1F07E3E0
007E003FFE07FFE0
00FE001FFE03FFC0
00FC001FFC01FF80
01FC0007F800FF00
00000000C0001C00
ENDCHAR
STARTCHAR 2039
ENCODING 8249
SWIDTH 396 0
DWIDTH 22 0
BBX 18 24 2 5
BITMAP
003FC0
007F80
00FF00
00FE00
01FC00
03F800
07F000
0FE000
1FE000
3FC000
7F8000
FF0000
7F0000
3F8000
1FC000
1FE000
0FF000
07F800
03FC00
01FE00
00FE00
007F00
003F80
001FC0
ENDCHAR
STARTCHAR 203A
ENCODING 8250
SWIDTH 396 0
DWIDTH 22 0
BBX 18 24 2 5
BITMAP
7F0000
3F8000
1FC000
1FE000
0FF000
07F800
03FC00
01FE00
00FE00
007F00
003F80
003FC0
003FC0
007F80
00FF00
01FE00
03FC00
03F800
07F000
0FE000
1FC000
3FC000
7F8000
FF0000
ENDCHAR
STARTCHAR 2044
ENCODING 8260
SWIDTH 504 0
DWIDTH 28 0
BBX 29 39 -1 0
BITMAP
000001F8
000003F8
000007F0
000007F0
00000FE0
00000FC0
00001FC0
00003F80
00003F80
00007F00
00007E00
0000FE00
0001FC00
0001FC00
0003F800
0003F000
0007F000
000FE000
000FE000
001FC000
001F8000
003F8000
007F0000
007F0000
00FE0000
00FC0000
01FC0000
03F80000
03F80000
07F00000
07E00000
0FE00000
1FC00000
1FC00000
3F800000
3F000000
7F000000
FE000000
FE000000
ENDCHAR
STARTCHAR 2070
ENCODING 8304
SWIDTH 342 0
DWIDTH 19 0
BBX 17 22 1 21
BITMAP
008000
0FF800
1FFC00
3FFE00
3F7E00
7E1F00
7C1F00
7C1F00
FC1F80
FC0F80
FC0F80
FC0F80
FC0F80
FC1F80
7C1F80
7C1F00
7C1F00
3E3F00
3FFE00
1FFC00
0FF800
03F000
ENDCHAR
STARTCHAR 2074
ENCODING 8308
SWIDTH 324 0
DWIDTH 18 0
BBX 16 21 1 22
BITMAP
00FC
01FC
01FC
03FC
07FC
07FC
0F7C
0F7C
1E7C
3C7C
3C7C
787C
707C
FFFF
FFFF
FFFF
007C
007C
007C
007C
007C
ENDCHAR
STARTCHAR 2075
ENCODING 8309
SWIDTH 306 0
DWIDTH 17 0
BBX 16 21 1 21
BITMAP
7FFC
7FFC
7FFC
7FFC
7FFC
7800
7800
78E0
7BF8
7FFC
FFFE
FC3E
003E
001F
001F
F83E
7C3E
7FFE
3FFC
3FF8
0FF0
ENDCHAR
STARTCHAR 2076
ENCODING 8310
SWIDTH 306 0
DWIDTH 17 0
BBX 15 22 1 21
BITMAP
01F0
03E0
03C0
07C0
0F80
0F00
1E00
3E00
3DF0
7FFC
7FFC
7C3E
F81E
F81E
F81E
F81E
781E
7C3E
7FFC
3FF8
1FF0
0100
ENDCHAR
STARTCHAR 2077
ENCODING 8311
SWIDTH 288 0
DWIDTH 16 0
BBX 15 21 1 22
BITMAP
FFFE
FFFE
FFFE
FFFE
FFFE
003E
003C
007C
0078
00F8
00F0
01F0
01E0
03E0
03C0
07C0
0780
0F80
0F80
1F00
1F00
ENDCHAR
STARTCHAR 2078
ENCODING 8312
SWIDTH 324 0
DWIDTH 18 0
BBX 16 22 1 21
BITMAP
0080
1FF8
3FFC
3FFE
7E7E
7C3E
781E
781E
7C3E
3FFC
1FF8
1FFC
7E7E
7C1E
F81F
F81F
F81F
FC3F
7FFE
3FFE
3FFC
0FF0
ENDCHAR
STARTCHAR 2079
ENCODING 8313
SWIDTH 306 0
DWIDTH 17 0
BBX 15 22 2 21
BITMAP
0100
1FE0
3FF8
7FF8
F87C
F03C
F03E
F03E
F03E
F03E
F87C
7FFC
7FFC
3FF8
00F8
00F0
01E0
03E0
07C0
07C0
0F80
1F00
ENDCHAR
STARTCHAR 2080
ENCODING 8320
SWIDTH 342 0
DWIDTH 19 0
BBX 17 21 1 -14
BITMAP
07F000
1FFC00
3FFE00
3FFE00
7E3F00
7C1F00
7C1F00
7C1F80
FC1F80
FC1F80
FC0F80
FC0F80
FC1F80
7C1F80
7C1F00
7C1F00
7E3F00
3FFE00
1FFE00
0FFC00
07F000
ENDCHAR
STARTCHAR 2081
ENCODING 8321
SWIDTH 270 0
DWIDTH 15 0
BBX 13 21 1 -14
BITMAP
0780
1F80
3F80
7F80
FF80
FF80
F780
E780
C780
8780
0780
0780
0780
0780
0780
0780
0780
FFF8
FFF8
FFF8
FFF8
ENDCHAR
STARTCHAR 2082
ENCODING 8322
SWIDTH 306 0
DWIDTH 17 0
BBX 15 21 1 -14
BITMAP
07E0
1FF0
3FF8
7FFC
7C7C
783E
F83E
003C
003C
007C
00F8
01F0
03E0
07C0
1F80
3F00
7E00
FFFE
FFFE
FFFE
FFFE
ENDCHAR
STARTCHAR 2083
ENCODING 8323
SWIDTH 324 0
DWIDTH 18 0
BBX 16 21 1 -14
BITMAP
0FF8
1FFC
3FFE
7E7E
7C1E
781F
001F
003E
03FE
03FC
03F8
03FE
003E
001F
001F
F81F
7E3F
7FFE
3FFE
1FFC
0FF0
ENDCHAR
STARTCHAR 2084
ENCODING 8324
SWIDTH 324 0
DWIDTH 18 0
BBX 16 21 1 -14
BITMAP
00FC
01FC
01FC
03FC
07FC
07FC
0F7C
0F7C
1E7C
3C7C
3C7C
787C
F07C
FFFF
FFFF
FFFF
007C
007C
007C
007C
007C
ENDCHAR
STARTCHAR 2085
ENCODING 8325
SWIDTH 306 0
DWIDTH 17 0
BBX 16 21 1 -14
BITMAP
7FFC
7FFC
7FFC
7FFC
7800
7800
7800
79E0
7FF8
7FFC
FFFE
FC3E
001E
001F
001F
F83E
7C7E
7FFE
3FFC
1FF8
0FE0
ENDCHAR
STARTCHAR 2086
ENCODING 8326
SWIDTH 306 0
DWIDTH 17 0
BBX 15 21 1 -14
BITMAP
03E0
03E0
07C0
0780
0F80
1F00
1E00
3CC0
3FF8
7FFC
7FFE
7C3E
F81E
F81E
F81E
F81E
7C3E
7FFE
3FFC
1FF8
0FE0
ENDCHAR
STARTCHAR 2087
ENCODING 8327
SWIDTH 288 0
DWIDTH 16 0
BBX 15 21 1 -14
BITMAP
FFFE
FFFE
FFFE
FFFE
003E
003C
003C
007C
0078
00F8
00F0
01F0
01E0
03E0
03C0
07C0
0780
0F80
0F00
1F00
1F00
ENDCHAR
STARTCHAR 2088
ENCODING 8328
SWIDTH 324 0
DWIDTH 18 0
BBX 16 21 1 -14
BITMAP
0FF0
3FFC
3FFC
7FFE
7C3E
781E
781E
7C3E
3E7C
1FFC
1FF8
3FFC
7C3E
F81F
F81F
F81F
FC3F
7FFE
7FFE
3FFC
0FF0
ENDCHAR
STARTCHAR 2089
ENCODING 8329
SWIDTH 306 0
DWIDTH 17 0
BBX 15 21 2 -14
BITMAP
0FC0
3FF0
7FF8
FFFC
F87C
F03C
F03E
F03E
F03E
F87C
FEFC
7FFC
3FF8
1F78
00F0
01F0
03E0
03C0
07C0
0F80
0F80
ENDCHAR
STARTCHAR 20AB
ENCODING 8363
SWIDTH 594 0
DWIDTH 33 0
BBX 30 46 2 0
BITMAP
00001FE0
00001FE0
00001FE0
0003FFFC
0003FFFC
0003FFFC
0003FFFC
0003FFFC
00001FE0
00001FE0
00F81FE0
07FF1FE0
0FFFDFE0
1FFFFFE0
3FFFFFE0
3FFFFFE0
7FFFFFE0
7FC07FE0
FF803FE0
FF003FE0
FF001FE0
FF001FE0
FE001FE0
FE001FE0
FE001FE0
FF001FE0
FF001FE0
FF001FE0
FF803FE0
7FC07FE0
7FE0FFE0
7FFFFFE0
3FFFFFE0
1FFFFFE0
0FFFDFE0
07FF9FE0
01FC1FE0
00000000
00000000
00000000
00000000
1FFFFFF0
1FFFFFF0
1FFFFFF0
1FFFFFF0
1FFFFFF0
ENDCHAR
STARTCHAR 20AC
ENCODING 8364
SWIDTH 666 0
DWIDTH 37 0
BBX 35 39 1 0
BITMAP
0000380000
0003FFC000
000FFFF000
003FFFF800
007FFFFC00
00FFFFFE00
01FFFFFF00
01FF83FF80
03FE00FF80
03FC007FC0
07FC003FC0
07F8001FC0
0FF8001FE0
0FF0000FE0
0FF0000000
FFFFF80000
FFFFF80000
FFFFF80000
1FE0000000
1FE0000000
1FE0000000
1FE0000000
FFFFF80000
FFFFF80000
FFFFF80000
0FF0000000
0FF0001FE0
0FF8001FE0
07F8001FC0
07FC003FC0
03FC007FC0
03FF00FF80
01FFC7FF00
00FFFFFF00
00FFFFFE00
007FFFFC00
003FFFF800
000FFFF000
0003FF8000
ENDCHAR
STARTCHAR 2122
ENCODING 8482
SWIDTH 396 0
DWIDTH 22 0
BBX 20 10 1 29
BITMAP
FEF9F0
FEF9F0
FEFFF0
38FFF0
38EF70
38EF70
38E670
38E670
38E070
38E070
ENDCHAR
STARTCHAR 215B
ENCODING 8539
SWIDTH 900 0
DWIDTH 50 0
BBX 47 40 2 -1
BITMAP
0F800000FE00
1F800000FC00
3F800001FC00
FF800003F800
FF800003F800
FF800007F000
FF800007E000
EF80000FE000
CF80001FC000
8F80001FC000
0F80003F8000
0F80003F0000
0F80007F0000
0F8000FE0000
0F8000FE0000
FFF801FC0000
FFF801F80000
FFF803F80000
FFF807F00000
FFF807F003C0
00000FE01FF0
00000FC03FF8
00001FC07FFC
00003F807EFC
00003F807C7E
00007F00783E
00007E007C7C
0000FE007EFC
0001FC003FF8
0001FC001FF8
0003F8007FFC
0003F0007C3E
0007F000F83E
000FE000F83E
000FE000FC3E
001FC000FFFE
001F80007FFC
003F80003FFC
003F00001FF0
000000000100
ENDCHAR
STARTCHAR 215C
ENCODING 8540
SWIDTH 882 0
DWIDTH 49 0
BBX 46 40 2 -1
BITMAP
0FF00001FC00
3FF80001FC00
3FFC0003F800
7FFC0007F000
7C7E0007F000
F83E000FE000
003E000FE000
007E001FC000
03FC003F8000
03F8003F8000
03F8007F0000
03FC007F0000
003E00FE0000
003E01FC0000
F83E01FC0000
FE7E03F80000
7FFE03F80000
7FFC07F00000
3FF807E00000
0FF00FE00F00
00001FC07FE0
00001FC0FFF0
00003F80FFF8
00003F01FDF8
00007F01F0F8
0000FE01F0F8
0000FE01F0F8
0001FC00FDF8
0001F8007FF0
0003F8007FE0
0007F000FFF8
0007F001F0F8
000FE001F07C
000FC001F07C
001FC001F0FC
003F8001FFF8
003F8000FFF8
007F0000FFF0
007E00007FE0
000000000600
ENDCHAR
STARTCHAR 215D
ENCODING 8541
SWIDTH 900 0
DWIDTH 50 0
BBX 47 40 2 -1
BITMAP
FFFC0000FE00
FFFC0001FC00
FFFC0001FC00
FFFC0003F800
F8000007F000
F8000007F000
F880000FE000
FFF0000FE000
FFF8001FC000
FFFC003F8000
FCFC003F8000
007C007F0000
007E007F0000
F87C00FE0000
FC7C01FC0000
7FFC01FC0000
7FF803F80000
3FF803F80000
1FF007F00000
01800FE00780
00000FE03FF0
00001FC07FF8
00001FC07FFC
00003F80FEFC
00007F00F87C
00007F00F87C
0000FE00F87C
0000FE007EFC
0001FC003FF8
0003F8003FF0
0003F8007FFC
0007F000F87C
0007F000F83E
000FE000F83E
001FC000F87E
001FC000FFFC
003F80007FFC
003F80007FF8
007F00001FF0
000000000300
ENDCHAR
STARTCHAR 215E
ENCODING 8542
SWIDTH 900 0
DWIDTH 50 0
BBX 47 40 2 -1
BITMAP
FFFC0001FC00
FFFC0001FC00
FFFC0003F800
FFFC0007F000
FFFC0007F000
007C000FE000
00FC000FE000
00F8001FC000
01F8003F8000
01F0003F8000
03F0007F0000
03E0007F0000
07E000FE0000
07C001FC0000
0FC001FC0000
0F8003F80000
1F8003F80000
1F0007F00000
3F0007E00000
3E000FE007C0
00001FC01FF0
00001FC03FF8
00003F807FFC
00003F007EFC
00007F007C7E
0000FE00783E
0000FE007C7C
0001FC007EFC
0001F8003FF8
0003F8001FF8
0007F0007FFC
0007F0007C7E
000FE000F83E
000FC000F83E
001FC000FC7E
003F8000FFFE
003F80007FFC
007F00003FFC
007E00001FF0
000000000100
ENDCHAR
STARTCHAR 2212
ENCODING 8722
SWIDTH 594 0
DWIDTH 33 0
BBX 23 7 5 14
BITMAP
FFFFFE
FFFFFE
FFFFFE
FFFFFE
FFFFFE
FFFFFE
FFFFFE
ENDCHAR
STARTCHAR 2215
ENCODING 8725
SWIDTH 522 0
DWIDTH 29 0
BBX 26 39 2 0
BITMAP
00001FC0
00003FC0
00003F80
00007F80
00007F00
0000FF00
0000FE00
0001FE00
0001FC00
0003FC00
0003F800
0007F800
0007F000
000FF000
000FE000
001FE000
001FC000
003FC000
003F8000
007F8000
007F0000
00FF0000
00FE0000
01FE0000
01FC0000
03FC0000
03F80000
07F80000
07F00000
0FF00000
0FE00000
1FE00000
1FC00000
3FC00000
3F800000
7F800000
7F000000
FF000000
FE000000
ENDCHAR
STARTCHAR 2248
ENCODING 8776
SWIDTH 576 0
DWIDTH 32 0
BBX 22 20 5 7
BITMAP
07C03C
1FF07C
3FFFFC
7FFFF8
7FFFF8
7C7FF0
F81FE0
000000
000000
000000
000000
000000
000000
0FC03C
1FF87C
3FFFFC
7FFFF8
7FFFF8
787FF0
F80FE0
ENDCHAR
STARTCHAR 2260
ENCODING 8800
SWIDTH 738 0
DWIDTH 41 0
BBX 27 34 7 0
BITMAP
00000FE0
00001FC0
00001FC0
00003F80
00007F00
00007F00
0000FE00
0000FE00
FFFFFFE0
FFFFFFE0
FFFFFFE0
FFFFFFE0
FFFFFFE0
FFFFFFE0
000FE000
001FC000
003F8000
003F8000
007F0000
007F0000
FFFFFFE0
FFFFFFE0
FFFFFFE0
FFFFFFE0
FFFFFFE0
FFFFFFE0
07F00000
0FE00000
1FC00000
1FC00000
3F800000
3F800000
7F000000
7F000000
ENDCHAR
STARTCHAR 2264
ENCODING 8804
SWIDTH 594 0
DWIDTH 33 0
BBX 24 37 6 0
BITMAP
000004
00001C
00007C
0001FC
0007FC
001FFC
007FFC
01FFF8
07FFE0
1FFF00
3FFC00
7FF000
7FC000
7F8000
7FE000
7FF800
3FFE00
0FFF80
03FFF0
00FFFC
003FFC
000FFC
0003FC
0000FC
00003C
00000C
000000
000000
000000
000000
000000
000000
FFFFFF
FFFFFF
FFFFFF
FFFFFF
FFFFFF
ENDCHAR
STARTCHAR 2265
ENCODING 8805
SWIDTH 630 0
DWIDTH 35 0
BBX 25 37 5 0
BITMAP
30000000
3C000000
3F000000
3FC00000
3FF00000
3FF80000
3FFE0000
0FFF8000
03FFE000
00FFF800
003FFE00
000FFE00
0003FE00
0000FE00
0007FE00
001FFE00
007FFC00
01FFF000
07FFC000
1FFF0000
3FFE0000
3FF80000
3FE00000
3F800000
3E000000
38000000
20000000
00000000
00000000
00000000
00000000
00000000
FFFFFF80
FFFFFF80
FFFFFF80
FFFFFF80
FFFFFF80
ENDCHAR
ENDFONT
